<?xml version="1.0" encoding="utf-8"?>
<!-- Generator: Adobe Illustrator 16.0.0, SVG Export Plug-In . SVG Version: 6.00 Build 0)  -->
<!DOCTYPE svg PUBLIC "-//W3C//DTD SVG 1.1//EN" "http://www.w3.org/Graphics/SVG/1.1/DTD/svg11.dtd">
<svg version="1.1" id="Layer_1" xmlns="http://www.w3.org/2000/svg" xmlns:xlink="http://www.w3.org/1999/xlink" x="0px" y="0px"
	 width="276.472px" height="243.333px" viewBox="0 0 276.472 243.333" enable-background="new 0 0 276.472 243.333"
	 xml:space="preserve">
<g id="XMLID_1_">
	<g>
		<path fill="#27246B" d="M116.106,84.764c-1.63-0.24-3.82-0.68-5.32-0.81c-1.23-0.11-2.1-0.83-3.08-0.43
			c-0.12,0.04-0.23,0.1-0.35,0.18C87.256,94.164,120.577,103.264,116.106,84.764z M222.696,77.244
			c6.24,5.21,12.52,10.82,17.97,18.09c17,26,31,57,17,86c-5,3-8-1-10-4c-1.21-2.42-2.26-4.84-3.13-7.32
			c-1.8,5.49-4.49,10.25-7.85,14.37c-5.94,7.26-13.95,12.53-22.82,16.351c1.18-25.881-2.49-46.38-27.45-74.65
			c-4.86-5.72-11.88-9.37-20-11.35c-15.17-3.7-34.2-1.56-50.27,3.83c-10.33,3.45-19.44,8.25-25.5,13.71
			c-18.41,17.43-22.94,40.61-19.53,65.66c-6.15-2.71-11.94-6.02-17.13-9.979c-10.06-7.68-17.83-17.79-21.42-30.67
			c-3.56,7.62-7.1,16.49-14.9,18.05c-8-9-6-23-3-34c8.66-25.99,24.74-48.27,44.27-66.82c0.01-0.02,0.03-0.03,0.04-0.05
			c12.24-13.41,10.37-8.93,12.63-11.54c12.29-14.25,28.94-38.59,44.92-48.26c40.56-24.56,85.14,26.29,102.79,56.6
			C220.466,73.244,221.597,75.233,222.696,77.244z M160.787,98.744c10.59,3.53,17.64-4.7,4.7-9.41
			C161.356,88.523,159.606,95.213,160.787,98.744z"/>
		<path fill="#F26722" d="M236.687,184.383c42.53,33.97-62.69,55.601-68.31,26.05c4.58-0.39,9.11-0.88,13.59-1.47
			c10.57-1.39,21.8-3.87,31.9-8.229C222.736,196.914,230.747,191.643,236.687,184.383z"/>
		<path fill="#FCF7BD" d="M186.417,126.083c24.96,28.27,28.63,48.77,27.45,74.65c-10.1,4.359-21.33,6.84-31.9,8.229
			c-4.48,0.59-9.01,1.08-13.59,1.47c-14.13,1.2-28.64,1.4-42.98,0.21c-16.95-1.399-33.64-4.729-49.15-10.6
			c-1.73-0.66-3.44-1.36-5.13-2.11c-3.41-25.05,1.12-48.229,19.53-65.66c6.06-5.46,15.17-10.26,25.5-13.71
			c2.88,25.11,44.04,21.45,50.27-3.83C174.537,116.713,181.557,120.363,186.417,126.083z"/>
		<path fill="#949C9E" d="M165.486,89.333c12.94,4.71,5.89,12.94-4.7,9.41C159.606,95.213,161.356,88.523,165.486,89.333z"/>
		<path fill="#ECE82C" d="M116.146,118.563c16.07-5.39,35.1-7.53,50.27-3.83C160.187,140.014,119.026,143.673,116.146,118.563z"/>
		<path fill="#949C9E" d="M116.106,84.764c4.47,18.5-28.85,9.4-8.75-1.06c0.11-0.06,0.23-0.12,0.35-0.18
			c0.98-0.4,1.85,0.32,3.08,0.43C112.287,84.083,114.477,84.523,116.106,84.764z"/>
		<path fill="#F26722" d="M71.117,197.933c1.69,0.75,3.4,1.45,5.13,2.11c15.51,5.87,32.2,9.2,49.15,10.6
			c-21.37,32.32-107.12-1.739-71.41-22.689C59.176,191.914,64.966,195.223,71.117,197.933z"/>
	</g>
	<g>
		<path fill="none" stroke="#000000" stroke-width="5" stroke-miterlimit="10" d="M245.327,167.364c-0.24,0.899-0.5,1.79-0.79,2.649
			c-1.8,5.49-4.49,10.25-7.85,14.37c-5.94,7.26-13.95,12.53-22.82,16.351c-10.1,4.359-21.33,6.84-31.9,8.229
			c-4.48,0.59-9.01,1.08-13.59,1.47c-14.13,1.2-28.64,1.4-42.98,0.21c-16.95-1.399-33.64-4.729-49.15-10.6
			c-1.73-0.66-3.44-1.36-5.13-2.11c-6.15-2.71-11.94-6.02-17.13-9.979c-10.06-7.68-17.83-17.79-21.42-30.67
			c-0.28-0.96-0.53-1.94-0.75-2.93"/>
		<path fill="none" stroke="#000000" stroke-width="5" stroke-miterlimit="10" d="M58.977,74.463
			c12.24-13.41,10.37-8.93,12.63-11.54c12.29-14.25,28.94-38.59,44.92-48.26c40.56-24.56,85.14,26.29,102.79,56.6
			c1.15,1.98,2.28,3.97,3.38,5.98c0.67,1.21,1.33,2.43,1.98,3.65"/>
		<path fill="none" stroke="#000000" stroke-width="5" stroke-miterlimit="10" d="M57.017,76.633c0.67-0.75,1.31-1.46,1.92-2.12"/>
		<path fill="none" stroke="#000000" stroke-width="5" stroke-miterlimit="10" d="M54.126,187.864c-0.05,0.029-0.1,0.06-0.14,0.09
			c-35.71,20.95,50.04,55.01,71.41,22.689"/>
		<path fill="none" stroke="#000000" stroke-width="5" stroke-miterlimit="10" d="M168.376,210.433
			c5.62,29.551,110.84,7.92,68.31-26.05c-0.02-0.02-0.05-0.04-0.07-0.06"/>
		<path fill="none" stroke="#000000" stroke-width="5" stroke-miterlimit="10" d="M71.117,197.944v-0.011
			c-3.41-25.05,1.12-48.229,19.53-65.66c0.62-0.61,1.25-1.19,1.9-1.76"/>
		<path fill="none" stroke="#000000" stroke-width="5" stroke-miterlimit="10" d="M186.417,126.083
			c24.96,28.27,28.63,48.77,27.45,74.65"/>
		<path fill="none" stroke="#000000" stroke-width="5" stroke-miterlimit="10" d="M74.907,95.213
			c-13.24,19.12-26.24,36.12-39.24,56.12c-1.1,1.76-2.1,3.81-3.1,5.95c-3.56,7.62-7.1,16.49-14.9,18.05c-8-9-6-23-3-34
			c8.66-25.99,24.74-48.27,44.27-66.82c0.01-0.02,0.03-0.03,0.04-0.05c0.75-0.71,1.5-1.41,2.26-2.11"/>
		<path fill="none" stroke="#000000" stroke-width="5" stroke-miterlimit="10" d="M211.376,115.213
			c13.29,10.12,23.29,24.12,28.29,40.12c0,1,2,2,2,3c0.6,4.18,1.55,8,2.87,11.68c0.87,2.48,1.92,4.9,3.13,7.32c2,3,5,7,10,4
			c14-29,0-60-17-86c-5.45-7.27-11.73-12.88-17.97-18.09c-0.63-0.53-1.26-1.05-1.89-1.57"/>
		<path fill="none" stroke="#000000" stroke-width="5" stroke-miterlimit="10" d="M116.077,118.003c0.02,0.19,0.04,0.38,0.07,0.56
			c2.88,25.11,44.04,21.45,50.27-3.83c0.05-0.15,0.08-0.3,0.12-0.46"/>
		<path fill="none" stroke="#000000" stroke-width="5" stroke-miterlimit="10" d="M107.847,83.454c-0.05,0.02-0.1,0.05-0.14,0.07
			c-0.12,0.06-0.24,0.12-0.35,0.18c-20.1,10.46,13.22,19.56,8.75,1.06c-0.01-0.04-0.02-0.09-0.03-0.14"/>
		<path fill="none" stroke="#000000" stroke-width="5" stroke-miterlimit="10" d="M165.486,89.333c-4.13-0.81-5.88,5.88-4.7,9.41
			C171.376,102.273,178.426,94.043,165.486,89.333z"/>
		<path fill="none" stroke="#000000" stroke-width="5" stroke-miterlimit="10" d="M89.986,132.863c0.22-0.2,0.44-0.41,0.66-0.59
			c6.06-5.46,15.17-10.26,25.5-13.71c16.07-5.39,35.1-7.53,50.27-3.83c8.12,1.98,15.14,5.63,20,11.35"/>
		<path fill="none" stroke="#000000" stroke-width="5" stroke-miterlimit="10" d="M107.356,83.704c0.12-0.08,0.23-0.14,0.35-0.18
			c0.98-0.4,1.85,0.32,3.08,0.43c1.5,0.13,3.69,0.57,5.32,0.81"/>
	</g>
</g>
</svg>
