<?xml version="1.0" encoding="utf-8"?>
<!-- Generator: Adobe Illustrator 16.0.0, SVG Export Plug-In . SVG Version: 6.00 Build 0)  -->
<!DOCTYPE svg PUBLIC "-//W3C//DTD SVG 1.1//EN" "http://www.w3.org/Graphics/SVG/1.1/DTD/svg11.dtd">
<svg version="1.1" id="Layer_1" xmlns="http://www.w3.org/2000/svg" xmlns:xlink="http://www.w3.org/1999/xlink" x="0px" y="0px"
	 width="540px" height="540px" viewBox="0 0 540 540" enable-background="new 0 0 540 540" xml:space="preserve">
<path fill="#223D7A" d="M474.125,265.732c-34.117-59.583-54.198-83.807-87.516-123.317c0,0-0.209,0-0.209-0.208
	c-3.926-8.277-8.06-16.972-12.61-26.482c0-0.217-0.244-0.217-0.244-0.417c-13.827-39.728-36.584-78.413-97.834-78.413h-0.417
	c-61.25,0-84.006,38.686-97.868,78.413c0,0.2-0.191,0.2-0.191,0.417c-4.568,9.51-8.702,18.205-12.628,26.482
	c0,0.208-0.208,0.208-0.208,0.208C131.081,181.926,111,206.15,76.883,265.732c-20.289,35.585-41.586,75.538-40.978,98.711
	c1.268,56.057,30,11.152,32.883,6.827l15.53-24.842c-8.06,38.877-7.644,81.507,21.106,103.237
	c11.378,8.478,23.989,15.512,37.661,20.896c22.565,9.294,47.579,15.131,73.028,17.997c0,0-55.014-18.831-71.569-52.565
	c-15.13-30.381-23.607-60.85-2.692-115.448c22.547-58.54,53.989-49.863,82.129-91.649c-2.467-5.376-5.176-11.795-8.269-19.238
	c-2.292-5.577,6.41-4.76,20.255-2.901c10.979,1.659,25.258,3.926,39.537,4.151c14.487,0.191,28.975-1.659,40.161-2.918
	c13.237-1.841,21.714-2.684,19.839,1.667c-3.301,7.026-6.219,13.237-8.895,18.422c28.142,42.802,59.791,33.509,82.548,92.465
	c20.915,54.599,12.402,85.067-2.676,115.448c-16.572,33.734-71.604,52.565-71.604,52.565c25.431-2.866,50.48-8.703,73.063-17.997
	c13.618-5.385,26.265-12.419,37.66-20.896c28.731-21.73,29.113-64.36,21.088-103.237l15.495,24.842
	c2.918,4.325,31.685,49.229,32.901-6.827C515.711,341.271,494.414,301.317,474.125,265.732z M265.567,180.484
	c-4.76,12.012-19.229,16.138-29.791,16.138c-11.796,0-24.007-2.901-29.375-15.512c-0.625-1.451-1.042-3.109-0.833-4.56v-0.2
	c10.961-8.277,46.138-12.003,60.625,2.267C265.984,179.233,265.776,179.867,265.567,180.484z M344.606,181.109
	c-5.351,12.611-17.58,15.512-29.358,15.512c-10.561,0-25.048-4.125-29.808-16.138c-0.209-0.617-0.417-1.25-0.626-1.867
	c14.487-14.271,49.646-10.544,60.626-2.267v0.2C345.648,178,345.231,179.659,344.606,181.109z"/>
<path fill="#FBF6BF" d="M409.157,320.546c20.915,54.599,12.402,85.067-2.676,115.448c-16.572,33.734-71.604,52.565-71.604,52.565
	c-6.81,1.06-13.827,1.65-20.88,2.05c-13.028,1.06-25.849,1.46-38.494,1.46c-12.611,0-25.449-0.4-38.494-1.46
	c-7.018-0.399-14.07-0.99-20.897-2.05c0,0-55.014-18.831-71.569-52.565c-15.13-30.381-23.607-60.85-2.692-115.448
	c22.547-58.54,53.989-49.863,82.129-91.649c17.389,36.202,25.467,26.682,51.731,26.682c26.892,0,31.859,9.745,50.897-27.499
	C354.751,270.883,386.4,261.589,409.157,320.546z"/>
<linearGradient id="SVGID_1_" gradientUnits="userSpaceOnUse" x1="199.6992" y1="242.9155" x2="341.3594" y2="488.2781">
	<stop  offset="0" style="stop-color:#010101;stop-opacity:0"/>
	<stop  offset="1" style="stop-color:#010101;stop-opacity:0.2"/>
</linearGradient>
<path fill="url(#SVGID_1_)" d="M409.157,320.546c20.915,54.599,12.402,85.067-2.676,115.448
	c-16.572,33.734-71.604,52.565-71.604,52.565c-6.81,1.06-13.827,1.65-20.88,2.05c-13.028,1.06-25.849,1.46-38.494,1.46
	c-12.611,0-25.449-0.4-38.494-1.46c-7.018-0.399-14.07-0.99-20.897-2.05c0,0-55.014-18.831-71.569-52.565
	c-15.13-30.381-23.607-60.85-2.692-115.448c22.547-58.54,53.989-49.863,82.129-91.649c17.389,36.202,25.467,26.682,51.731,26.682
	c26.892,0,31.859,9.745,50.897-27.499C354.751,270.883,386.4,261.589,409.157,320.546z"/>
<path fill="#F49A21" d="M408.149,470.998c21.923,26.89,1.008,25.639-34.359,24.388c-24.216-1.024-73.445,20.707-59.792-4.551v-0.226
	c7.053-0.399,14.07-0.99,20.88-2.05c25.431-2.866,50.48-8.703,73.063-17.997L408.149,470.998z"/>
<path fill="#FFFFFF" d="M345.44,176.549c0.208,1.451-0.209,3.109-0.834,4.56c-5.351,12.611-17.58,15.512-29.358,15.512
	c-10.561,0-25.048-4.125-29.808-16.138c-0.209-0.617-0.417-1.25-0.626-1.867c14.487-14.271,49.646-10.544,60.626-2.267V176.549z"/>
<linearGradient id="SVGID_2_" gradientUnits="userSpaceOnUse" x1="283.6631" y1="164.1421" x2="346.6006" y2="164.1421">
	<stop  offset="0" style="stop-color:#010101;stop-opacity:0"/>
	<stop  offset="1" style="stop-color:#010101;stop-opacity:0.4"/>
</linearGradient>
<path fill="url(#SVGID_2_)" d="M315.041,149.451c-18.657,0-35.611,17.371-30.435,29.383l0.208-0.217
	c14.487-14.271,49.646-10.544,60.626-2.267v0.2h0.208C351.033,164.129,332.586,149.451,315.041,149.451z"/>
<linearGradient id="SVGID_3_" gradientUnits="userSpaceOnUse" x1="204.4111" y1="164.1421" x2="267.3442" y2="164.1421">
	<stop  offset="0" style="stop-color:#010101;stop-opacity:0"/>
	<stop  offset="1" style="stop-color:#010101;stop-opacity:0.4"/>
</linearGradient>
<path fill="url(#SVGID_3_)" d="M235.967,149.451c-17.578,0-35.975,14.678-30.607,27.099h0.209v-0.2
	c10.961-8.277,46.138-12.003,60.625,2.267l0.208,0.217C271.578,166.821,254.605,149.451,235.967,149.451z"/>
<path fill="#FFFFFF" d="M266.193,178.617c-0.209,0.617-0.417,1.25-0.626,1.867c-4.76,12.012-19.229,16.138-29.791,16.138
	c-11.796,0-24.007-2.901-29.375-15.512c-0.625-1.451-1.042-3.109-0.833-4.56v-0.2C216.529,168.072,251.706,164.346,266.193,178.617z
	"/>
<path fill="#F49A21" d="M237.01,490.835c13.671,25.258-35.576,3.526-59.774,4.551c-35.384,1.251-56.299,2.502-34.377-24.388
	l0.226-0.436c22.565,9.294,47.579,15.131,73.028,17.997c6.827,1.06,13.88,1.65,20.897,2.05V490.835z"/>
<linearGradient id="SVGID_4_" gradientUnits="userSpaceOnUse" x1="311.6475" y1="486.834" x2="417.1133" y2="486.834">
	<stop  offset="0" style="stop-color:#010101;stop-opacity:0"/>
	<stop  offset="1" style="stop-color:#010101;stop-opacity:0.4"/>
</linearGradient>
<path fill="url(#SVGID_4_)" d="M408.149,470.998c21.923,26.89,1.008,25.639-34.359,24.388c-24.216-1.024-73.445,20.707-59.792-4.551
	v-0.226c7.053-0.399,14.07-0.99,20.88-2.05c25.431-2.866,50.48-8.703,73.063-17.997L408.149,470.998z"/>
<linearGradient id="SVGID_5_" gradientUnits="userSpaceOnUse" x1="133.8955" y1="486.834" x2="239.3657" y2="486.834">
	<stop  offset="0" style="stop-color:#010101;stop-opacity:0"/>
	<stop  offset="1" style="stop-color:#010101;stop-opacity:0.4"/>
</linearGradient>
<path fill="url(#SVGID_5_)" d="M237.01,490.835c13.671,25.258-35.576,3.526-59.774,4.551c-35.384,1.251-56.299,2.502-34.377-24.388
	l0.226-0.436c22.565,9.294,47.579,15.131,73.028,17.997c6.827,1.06,13.88,1.65,20.897,2.05V490.835z"/>
<path fill="#F9C217" d="M315.665,207.991c-11.187,1.259-25.674,3.109-40.161,2.918c-14.279-0.226-28.559-2.493-39.537-4.151
	c-13.845-1.859-22.547-2.676-20.255,2.901c3.093,7.443,5.802,13.862,8.269,19.238c17.389,36.202,25.467,26.682,51.731,26.682
	c26.892,0,31.859,9.745,50.897-27.499c2.676-5.185,5.594-11.396,8.895-18.422C337.379,205.307,328.902,206.15,315.665,207.991z"/>
<linearGradient id="SVGID_6_" gradientUnits="userSpaceOnUse" x1="302.0557" y1="257.4297" x2="258.4829" y2="181.9595">
	<stop  offset="0" style="stop-color:#010101;stop-opacity:0"/>
	<stop  offset="1" style="stop-color:#010101;stop-opacity:0.2"/>
</linearGradient>
<path fill="url(#SVGID_6_)" d="M315.665,207.991c-11.187,1.259-25.674,3.109-40.161,2.918c-14.279-0.226-28.559-2.493-39.537-4.151
	c-13.845-1.859-22.547-2.676-20.255,2.901c3.093,7.443,5.802,13.862,8.269,19.238c17.389,36.202,25.467,26.682,51.731,26.682
	c26.892,0,31.859,9.745,50.897-27.499c2.676-5.185,5.594-11.396,8.895-18.422C337.379,205.307,328.902,206.15,315.665,207.991z"/>
<linearGradient id="SVGID_7_" gradientUnits="userSpaceOnUse" x1="128.6572" y1="104.4575" x2="357.9121" y2="501.5386">
	<stop  offset="0" style="stop-color:#010101;stop-opacity:0"/>
	<stop  offset="1" style="stop-color:#010101;stop-opacity:0.6"/>
</linearGradient>
<path fill="url(#SVGID_7_)" d="M474.125,265.732c-34.117-59.583-54.198-83.807-87.516-123.317c0,0-0.209,0-0.209-0.208
	c-3.926-8.277-8.06-16.972-12.61-26.482c0-0.217-0.244-0.217-0.244-0.417c-13.827-39.728-36.584-78.413-97.834-78.413h-0.417
	c-61.25,0-84.006,38.686-97.868,78.413c0,0.2-0.191,0.2-0.191,0.417c-4.568,9.51-8.702,18.205-12.628,26.482
	c0,0.208-0.208,0.208-0.208,0.208C131.081,181.926,111,206.15,76.883,265.732c-20.289,35.585-41.586,75.538-40.978,98.711
	c1.268,56.057,30,11.152,32.883,6.827l15.53-24.842c-8.06,38.877-7.644,81.507,21.106,103.237
	c11.378,8.478,23.989,15.512,37.661,20.896c22.565,9.294,47.579,15.131,73.028,17.997c0,0-55.014-18.831-71.569-52.565
	c-15.13-30.381-23.607-60.85-2.692-115.448c22.547-58.54,53.989-49.863,82.129-91.649c-2.467-5.376-5.176-11.795-8.269-19.238
	c-2.292-5.577,6.41-4.76,20.255-2.901c10.979,1.659,25.258,3.926,39.537,4.151c14.487,0.191,28.975-1.659,40.161-2.918
	c13.237-1.841,21.714-2.684,19.839,1.667c-3.301,7.026-6.219,13.237-8.895,18.422c28.142,42.802,59.791,33.509,82.548,92.465
	c20.915,54.599,12.402,85.067-2.676,115.448c-16.572,33.734-71.604,52.565-71.604,52.565c25.431-2.866,50.48-8.703,73.063-17.997
	c13.618-5.385,26.265-12.419,37.66-20.896c28.731-21.73,29.113-64.36,21.088-103.237l15.495,24.842
	c2.918,4.325,31.685,49.229,32.901-6.827C515.711,341.271,494.414,301.317,474.125,265.732z M266.401,178.833l-0.208-0.217
	c-0.209,0.617-0.417,1.25-0.626,1.867c-4.76,12.012-19.229,16.138-29.791,16.138c-11.796,0-24.007-2.901-29.375-15.512
	c-0.625-1.451-1.042-3.109-0.833-4.56h-0.209c-5.367-12.42,13.029-27.099,30.607-27.099
	C254.605,149.451,271.578,166.821,266.401,178.833z M345.648,176.549h-0.208c0.208,1.451-0.209,3.109-0.834,4.56
	c-5.351,12.611-17.58,15.512-29.358,15.512c-10.561,0-25.048-4.125-29.808-16.138c-0.209-0.617-0.417-1.25-0.626-1.867l-0.208,0.217
	c-5.177-12.012,11.777-29.383,30.435-29.383C332.586,149.451,351.033,164.129,345.648,176.549z"/>
<g>
	<path fill="#010101" d="M235.967,206.758c0,0-1.154-0.147-3.317-0.423c-2.165-0.252-5.34-0.691-9.404-0.885
		c-1.016-0.039-2.088-0.056-3.208,0.013c-1.108,0.082-2.312,0.198-3.398,0.738c-0.53,0.277-0.998,0.733-1.15,1.336
		c-0.141,0.604-0.011,1.255,0.216,1.863c0.496,1.216,1.064,2.474,1.622,3.775c1.129,2.601,2.33,5.369,3.596,8.287
		c0.635,1.458,1.286,2.954,1.953,4.484c0.675,1.535,1.335,3.093,2.152,4.639c1.572,3.113,3.269,6.322,5.233,9.519
		c1.955,3.196,4.183,6.392,6.908,9.258c1.382,1.409,2.896,2.727,4.596,3.794c1.695,1.072,3.578,1.87,5.57,2.342
		c4,0.956,8.297,0.661,12.617,0.313c4.334-0.374,8.772-0.802,13.289-0.939c4.521-0.131,9.094,0.063,13.678,0.417
		c2.289,0.173,4.578,0.378,6.86,0.51c2.279,0.13,4.559,0.178,6.772-0.108c2.216-0.267,4.353-0.915,6.269-2.026
		c1.926-1.088,3.644-2.563,5.19-4.214c3.111-3.303,5.668-7.179,8.033-11.12c2.351-3.955,4.554-8.012,6.573-12.092
		c2.008-4.117,3.999-8.201,5.967-12.236c0.497-1.006,0.992-2.009,1.486-3.009l0.739-1.498c0.201-0.426,0.32-0.861,0.242-1.132
		c-0.06-0.548-1.159-0.94-2.143-1.077c-1.026-0.147-2.101-0.178-3.172-0.161c-4.3,0.103-8.565,0.682-12.723,1.192
		c-4.195,0.49-8.262,0.905-12.252,1.283c-3.987,0.348-7.857,0.772-11.623,0.941c-1.88,0.111-3.728,0.221-5.542,0.329
		c-0.905,0.07-1.806,0.091-2.697,0.089c-0.892,0.008-1.774,0.017-2.648,0.025c-3.488,0.013-6.847,0.148-10.02-0.104
		c-1.589-0.082-3.136-0.161-4.641-0.239c-1.504-0.076-2.967-0.132-4.376-0.308c-2.822-0.291-5.464-0.562-7.906-0.813
		c-2.438-0.278-4.667-0.623-6.686-0.887c-4.037-0.528-7.194-1.045-9.352-1.369C237.116,206.934,235.967,206.758,235.967,206.758z
		 M235.967,206.758c0,0,1.151,0.168,3.31,0.483c2.158,0.309,5.319,0.804,9.359,1.304c2.021,0.25,4.251,0.579,6.689,0.84
		c2.44,0.234,5.081,0.487,7.901,0.757c1.407,0.166,2.871,0.212,4.376,0.278c1.505,0.067,3.053,0.136,4.642,0.206
		c3.178,0.246,6.511,0.035,9.999-0.038c0.871-0.023,1.751-0.047,2.64-0.072c0.89-0.013,1.786-0.051,2.689-0.136
		c1.809-0.14,3.65-0.282,5.524-0.427c3.751-0.235,7.609-0.728,11.582-1.145c3.963-0.447,8.063-0.939,12.198-1.497
		c4.163-0.585,8.406-1.245,12.831-1.431c1.108-0.036,2.231-0.028,3.386,0.116c0.579,0.084,1.168,0.197,1.771,0.452
		c0.3,0.12,0.605,0.309,0.89,0.555c0.271,0.269,0.528,0.62,0.618,1.027c0.099,0.401,0.087,0.78,0.007,1.141
		c-0.104,0.441-0.143,0.535-0.321,0.94l-0.712,1.511c-0.477,1.009-0.954,2.021-1.433,3.036c-1.937,4.051-3.896,8.15-5.872,12.283
		c-2.016,4.142-4.193,8.222-6.55,12.251c-2.375,4.009-4.932,7.985-8.193,11.481c-1.643,1.727-3.501,3.312-5.636,4.499
		c-1.054,0.613-2.198,1.063-3.352,1.451c-1.17,0.333-2.357,0.614-3.553,0.733c-2.39,0.29-4.758,0.218-7.077,0.07
		c-2.322-0.15-4.611-0.372-6.889-0.56c-4.546-0.39-9.063-0.585-13.52-0.524c-4.463,0.056-8.867,0.401-13.23,0.701
		c-4.344,0.269-8.757,0.51-12.952-0.567c-2.084-0.532-4.06-1.413-5.811-2.564c-1.756-1.147-3.294-2.537-4.684-4.006
		c-2.737-2.983-4.925-6.25-6.836-9.501c-1.919-3.249-3.566-6.505-5.084-9.647c-0.788-1.556-1.435-3.157-2.077-4.691
		c-0.651-1.537-1.288-3.039-1.909-4.503c-1.246-2.927-2.428-5.703-3.538-8.312c-0.551-1.309-1.104-2.557-1.601-3.796
		c-0.227-0.625-0.362-1.306-0.207-1.956c0.169-0.651,0.681-1.138,1.23-1.419c1.13-0.55,2.338-0.652,3.455-0.729
		c1.126-0.061,2.201-0.036,3.219,0.01c4.069,0.223,7.239,0.684,9.403,0.951C234.814,206.603,235.967,206.758,235.967,206.758z"/>
</g>
<g>
	<path fill="#010101" d="M84.318,346.429c0,0-0.205,1.111-0.589,3.195c-0.373,2.086-0.888,5.149-1.452,9.063
		c-0.562,3.911-1.149,8.677-1.541,14.163c-0.378,5.484-0.603,11.691-0.328,18.442c0.295,6.742,1.069,14.054,2.942,21.541
		c1.854,7.474,4.811,15.152,9.412,22.157c2.301,3.493,5.02,6.794,8.13,9.764c0.798,0.72,1.6,1.441,2.402,2.165
		c0.844,0.676,1.69,1.354,2.539,2.033c1.804,1.248,3.616,2.504,5.436,3.764c0.915,0.633,1.832,1.267,2.75,1.901
		c0.905,0.662,1.892,1.162,2.836,1.752c1.909,1.139,3.823,2.281,5.741,3.426c0.943,0.597,1.942,1.107,2.946,1.608l3,1.53
		l3.002,1.531c1.001,0.512,1.993,1.04,3.04,1.456c8.189,3.644,16.615,7.071,25.014,9.808c2.091,0.725,4.228,1.306,6.324,1.961
		c2.101,0.646,4.193,1.283,6.304,1.809c2.103,0.555,4.191,1.106,6.267,1.654c2.092,0.479,4.168,0.954,6.229,1.426
		c1.03,0.234,2.056,0.468,3.077,0.7c1.028,0.2,2.052,0.399,3.071,0.599c2.037,0.398,4.056,0.793,6.052,1.184
		c2.007,0.336,3.992,0.669,5.953,0.997c1.963,0.32,3.897,0.669,5.822,0.901c3.848,0.511,7.592,1.009,11.212,1.489
		c1.813,0.235,3.595,0.466,5.344,0.692c0.438,0.057,0.872,0.113,1.306,0.169c0.434,0.035,0.865,0.069,1.295,0.104
		c0.859,0.069,1.71,0.138,2.552,0.205c6.726,0.576,12.944,0.951,18.437,1.346c2.748,0.188,5.32,0.365,7.698,0.528
		c2.381,0.068,4.567,0.13,6.542,0.187c7.905,0.248,12.423,0.39,12.423,0.39s-4.522-0.016-12.436-0.044
		c-1.979-0.013-4.172-0.026-6.558-0.042c-2.382-0.11-4.957-0.229-7.709-0.357c-5.506-0.267-11.704-0.499-18.497-1.011
		c-0.849-0.057-1.706-0.114-2.572-0.173c-0.433-0.028-0.868-0.058-1.306-0.088c-0.434-0.05-0.869-0.101-1.308-0.15
		c-1.752-0.203-3.536-0.41-5.353-0.62c-3.632-0.433-7.386-0.88-11.246-1.34c-1.937-0.207-3.883-0.53-5.858-0.825
		c-1.975-0.304-3.974-0.61-5.994-0.921c-2.01-0.374-4.041-0.753-6.093-1.136c-1.024-0.194-2.055-0.391-3.089-0.587
		c-1.028-0.229-2.061-0.459-3.098-0.69c-2.073-0.465-4.164-0.934-6.27-1.405c-2.089-0.542-4.193-1.087-6.311-1.636
		c-2.126-0.52-4.233-1.151-6.352-1.791c-2.115-0.651-4.262-1.225-6.378-1.948c-8.542-2.746-16.897-6.098-25.241-9.771
		c-1.055-0.425-2.056-0.964-3.065-1.485l-3.028-1.561l-3.024-1.561c-1.012-0.511-2.018-1.031-2.977-1.643
		c-1.943-1.172-3.883-2.341-5.816-3.507c-0.952-0.602-1.965-1.125-2.861-1.787c-0.916-0.64-1.83-1.277-2.742-1.913
		c-1.833-1.282-3.657-2.559-5.474-3.829c-0.87-0.703-1.737-1.403-2.602-2.103c-0.823-0.748-1.644-1.494-2.462-2.238
		c-3.187-3.07-5.966-6.477-8.312-10.071c-4.72-7.198-7.598-15.099-9.38-22.699c-1.797-7.623-2.477-15.014-2.683-21.81
		c-0.207-6.805,0.164-13.038,0.668-18.532c0.515-5.495,1.208-10.257,1.857-14.161c0.639-3.906,1.272-6.953,1.698-9.028
		C84.08,347.533,84.318,346.429,84.318,346.429z"/>
</g>
<g>
	<path fill="#010101" d="M110.618,303.818l-26.1,43.05l-13.23,21.412c-2.162,3.583-4.51,7.124-7.041,10.486
		c-2.545,3.361-5.267,6.618-8.443,9.472c-1.601,1.407-3.313,2.731-5.285,3.705c-0.986,0.479-2.045,0.865-3.177,1.034
		c-1.125,0.172-2.333,0.101-3.444-0.303c-2.245-0.854-3.743-2.779-4.73-4.692c-1.028-1.942-1.655-4.013-2.165-6.084
		c-0.989-4.157-1.414-8.381-1.678-12.593c-0.049-1.054-0.119-2.107-0.144-3.161l-0.052-1.58l0.039-1.612l0.098-3.146l0.394-3.191
		c1.17-8.456,3.795-16.516,6.779-24.389c3.019-7.867,6.495-15.535,10.159-23.1c3.675-7.562,7.532-15.029,11.567-22.395
		c4.027-7.377,8.13-14.684,12.324-21.98l6.414-10.828l6.669-10.703l6.865-10.564l7.034-10.45
		c4.741-6.931,9.607-13.774,14.538-20.569c2.459-3.402,4.977-6.76,7.463-10.142l7.572-10.06
		c5.106-6.662,10.234-13.307,15.467-19.869c2.613-3.283,5.262-6.539,7.911-9.792l3.995-4.865l2.005-2.425
		c0.669-0.776,1.357-1.704,1.945-2.278l0.023-0.103l12.841-26.38v0.001c0.014-0.08,0.035-0.155,0.095-0.211
		c0.059-0.056,0.089-0.125,0.101-0.206c-0.011,0.08-0.04,0.151-0.098,0.208c-0.059,0.057-0.078,0.131-0.09,0.209l-0.001,0.002
		l-12.415,26.583l0.023-0.103c-0.708,1.075-1.36,1.761-2.014,2.613l-1.965,2.457l-3.914,4.925c-2.596,3.294-5.189,6.59-7.748,9.913
		c-5.167,6.606-10.232,13.291-15.273,19.993l-7.473,10.118c-2.452,3.401-4.937,6.778-7.362,10.198
		c-2.412,3.429-4.861,6.832-7.241,10.282l-7.127,10.36l-6.989,10.451l-6.818,10.561l-6.61,10.678l-6.381,10.847
		c-4.145,7.263-8.237,14.601-12.228,21.964c-3.987,7.372-7.865,14.8-11.548,22.318c-3.671,7.522-7.152,15.142-10.169,22.935
		c-2.982,7.783-5.6,15.799-6.756,23.981l-0.393,3.052l-0.107,3.143l-0.043,1.533l0.046,1.563c0.022,1.044,0.088,2.084,0.133,3.125
		c0.248,4.156,0.658,8.316,1.602,12.33c0.488,1.993,1.072,3.979,1.998,5.758c0.891,1.779,2.191,3.381,3.922,4.05
		c1.739,0.655,3.757,0.238,5.543-0.629c1.806-0.869,3.461-2.113,5.016-3.459c3.097-2.73,5.815-5.917,8.359-9.215
		c2.544-3.32,4.871-6.758,7.076-10.338l13.454-21.273L110.618,303.818z"/>
</g>
<g>
	<path fill="#010101" d="M142.858,470.998c0,0-0.325,0.438-0.934,1.257c-0.626,0.809-1.477,2.043-2.566,3.598
		c-1.029,1.596-2.317,3.521-3.431,5.903c-0.252,0.604-0.527,1.222-0.77,1.869c-0.193,0.66-0.464,1.324-0.567,2.036
		c-0.29,1.391-0.37,2.945,0.281,4.293c0.626,1.352,1.929,2.373,3.459,3.049c1.537,0.686,3.28,1.099,5.087,1.404
		c3.64,0.562,7.568,0.683,11.628,0.709c4.064,0.022,8.273-0.123,12.554-0.258c2.141-0.077,4.299-0.155,6.466-0.233
		c2.166-0.071,4.344-0.212,6.583-0.133c4.424,0.168,8.774,0.792,13.02,1.516c4.247,0.721,8.381,1.615,12.378,2.458
		c7.987,1.681,15.41,3.451,21.869,4.024c1.61,0.139,3.159,0.2,4.616,0.125c1.453-0.075,2.835-0.277,3.997-0.782
		c0.572-0.258,1.1-0.572,1.502-0.988c0.401-0.414,0.688-0.9,0.875-1.408c0.333-1.039,0.272-2.1,0.118-3.017
		c-0.333-1.85-0.946-3.239-1.349-4.169c-0.42-0.929-0.666-1.416-0.666-1.416s0.274,0.47,0.753,1.374
		c0.454,0.911,1.181,2.25,1.603,4.146c0.199,0.94,0.327,2.05,0.01,3.229c-0.181,0.581-0.484,1.156-0.926,1.654
		c-0.442,0.5-1.021,0.882-1.641,1.195c-2.549,1.189-5.694,1.229-8.965,1.056c-3.294-0.196-6.82-0.698-10.523-1.318
		c-3.703-0.624-7.586-1.368-11.588-2.171c-4.004-0.797-8.142-1.585-12.35-2.299c-4.208-0.698-8.506-1.287-12.792-1.433
		c-2.116-0.087-4.293,0.04-6.463,0.102c-2.169,0.068-4.331,0.136-6.475,0.203c-4.291,0.127-8.522,0.175-12.625,0.105
		c-4.101-0.063-8.085-0.316-11.834-0.999c-1.868-0.371-3.687-0.849-5.349-1.646c-1.645-0.779-3.172-2.009-3.884-3.673
		c-0.727-1.657-0.579-3.417-0.202-4.887c0.15-0.762,0.461-1.438,0.696-2.12c0.282-0.66,0.593-1.282,0.881-1.89
		c1.25-2.381,2.634-4.255,3.741-5.812c1.158-1.522,2.104-2.685,2.771-3.458C142.507,471.415,142.858,470.998,142.858,470.998z"/>
</g>
<g>
	<path fill="#010101" d="M223.98,228.897c0,0-0.739,1.082-2.124,3.111c-1.414,2.006-3.536,4.933-6.534,8.413
		c-2.986,3.489-6.886,7.505-11.752,11.671c-4.842,4.199-10.72,8.421-17.138,12.952c-6.396,4.547-13.278,9.58-19.551,15.974
		c-6.295,6.358-11.878,14.062-16.479,22.673c-1.188,2.134-2.241,4.361-3.327,6.592c-0.53,1.121-1.014,2.27-1.525,3.409
		c-0.515,1.14-1.013,2.29-1.468,3.464c-0.469,1.167-0.94,2.339-1.412,3.513c-0.428,1.19-0.857,2.384-1.288,3.581
		c-0.846,2.41-1.759,4.819-2.561,7.262c-3.195,9.741-5.771,19.905-7.236,30.214c-1.5,10.3-1.77,20.784-0.493,30.945
		c1.198,10.18,4.163,19.91,7.793,28.974c1.787,4.551,3.862,8.9,5.89,13.156c2.024,4.266,4.46,8.098,7.228,11.618
		c5.528,7.022,11.946,12.679,18.199,17.372c3.124,2.361,6.231,4.477,9.241,6.401c3.002,1.938,5.915,3.68,8.694,5.242
		c5.547,3.146,10.547,5.597,14.699,7.533c8.323,3.842,13.273,5.592,13.273,5.592s-1.245-0.409-3.549-1.265
		c-2.301-0.862-5.665-2.163-9.867-4.012c-4.194-1.859-9.251-4.219-14.878-7.269c-5.626-3.04-11.856-6.736-18.211-11.42
		c-6.355-4.657-12.907-10.287-18.619-17.37c-2.845-3.522-5.441-7.517-7.52-11.778c-1.025-2.14-2.145-4.26-3.103-6.487
		c-0.995-2.209-2.016-4.432-2.909-6.735c-3.702-9.139-6.751-19.002-8.009-29.341c-1.335-10.318-1.107-20.971,0.381-31.407
		c1.526-10.442,4.159-20.665,7.433-30.515c0.816-2.456,1.735-4.851,2.591-7.261c0.439-1.207,0.877-2.411,1.314-3.612
		c0.481-1.184,0.96-2.364,1.438-3.541c0.464-1.183,0.972-2.343,1.496-3.492c0.521-1.149,1.015-2.308,1.555-3.439
		c1.107-2.253,2.182-4.501,3.393-6.658c4.664-8.72,10.465-16.477,16.918-22.85c6.438-6.411,13.439-11.402,19.893-15.879
		c6.464-4.477,12.391-8.558,17.287-12.64c4.918-4.051,8.875-7.974,11.917-11.395c3.045-3.42,5.255-6.265,6.714-8.241
		C223.214,229.96,223.98,228.897,223.98,228.897z"/>
</g>
<g>
	<path fill="#010101" d="M266.401,178.833c0.687-1.872,0.87-3.861,0.655-5.797c-0.23-1.938-0.889-3.799-1.764-5.528
		c-1.736-3.48-4.361-6.468-7.353-8.935c-3.013-2.448-6.373-4.485-9.989-5.875c-3.6-1.41-7.424-2.282-11.275-2.339l-0.698-0.021
		l-0.743,0.017c-0.496,0.009-0.994,0.017-1.46,0.062c-0.944,0.054-1.909,0.172-2.865,0.309c-1.914,0.281-3.801,0.746-5.65,1.325
		c-3.707,1.146-7.233,2.873-10.462,5.035c-3.202,2.182-6.114,4.908-8.069,8.261c-0.984,1.66-1.731,3.487-2.004,5.416
		c-0.253,1.924-0.044,3.923,0.645,5.785l-0.009-0.005l0.209,0.009l-0.209,0.009c-0.004,0-0.007-0.002-0.009-0.006
		c-0.869-1.787-1.252-3.825-1.108-5.843c0.146-2.021,0.797-3.985,1.711-5.792c1.902-3.6,4.817-6.55,8.047-8.954
		c3.242-2.418,6.913-4.222,10.741-5.52c1.921-0.638,3.896-1.124,5.9-1.437c1.004-0.15,2.006-0.282,3.04-0.348
		c0.521-0.05,1.014-0.061,1.508-0.074l0.743-0.022l0.786,0.02c4.081,0.098,8.109,1.023,11.858,2.559
		c3.745,1.549,7.243,3.696,10.249,6.399c2.999,2.692,5.606,5.894,7.251,9.601c0.79,1.858,1.342,3.836,1.445,5.854
		C267.632,175.005,267.261,177.049,266.401,178.833z"/>
</g>
<g>
	<path fill="#010101" d="M205.568,176.549l-0.014-0.2c0-0.004,0.003-0.008,0.006-0.011c1.03-0.868,2.159-1.629,3.348-2.282
		c1.187-0.656,2.413-1.243,3.667-1.765c1.259-0.505,2.539-0.965,3.836-1.363c1.295-0.41,2.61-0.75,3.933-1.054
		c2.642-0.629,5.33-1.038,8.028-1.344c1.35-0.15,2.705-0.232,4.062-0.309c1.357-0.059,2.715-0.091,4.074-0.084
		c1.359,0.03,2.719,0.076,4.074,0.181c0.68,0.036,1.356,0.108,2.033,0.177c0.678,0.061,1.354,0.137,2.026,0.246
		c1.349,0.185,2.688,0.434,4.021,0.719c1.334,0.277,2.651,0.636,3.954,1.035c1.302,0.41,2.586,0.871,3.843,1.399l1.857,0.858
		l1.802,0.966l1.722,1.098c0.547,0.407,1.102,0.798,1.637,1.213c0.513,0.447,1.043,0.868,1.534,1.333
		c0.465,0.495,0.954,0.958,1.391,1.471c-1.021-0.881-2.094-1.679-3.199-2.422c-0.565-0.354-1.146-0.683-1.714-1.024l-1.776-0.899
		l-1.817-0.807l-1.857-0.703l-1.888-0.617c-0.633-0.191-1.275-0.355-1.912-0.534c-1.285-0.317-2.577-0.603-3.88-0.841
		c-1.303-0.236-2.612-0.438-3.931-0.577c-1.314-0.163-2.637-0.278-3.96-0.358c-1.323-0.088-2.65-0.12-3.978-0.135
		c-1.327-0.02-2.654-0.002-3.982,0.042c-1.327,0.056-2.652,0.14-3.977,0.249c-1.324,0.106-2.647,0.238-3.965,0.418
		c-0.66,0.077-1.315,0.184-1.973,0.287c-0.659,0.09-1.313,0.203-1.968,0.324c-1.311,0.226-2.61,0.51-3.902,0.822
		c-1.297,0.298-2.578,0.66-3.846,1.064c-1.273,0.388-2.527,0.843-3.752,1.37c-1.223,0.536-2.405,1.155-3.549,1.867l0.006-0.01
		L205.568,176.549z"/>
</g>
<g>
	<path fill="#010101" d="M395.294,178.833c0,0-0.646-1.451-1.855-4.171c-0.294-0.683-0.659-1.431-0.993-2.283
		c-0.326-0.855-0.684-1.788-1.068-2.796c-0.757-2.021-1.69-4.326-2.619-6.946c-0.931-2.62-1.961-5.52-3.082-8.677
		c-1.081-3.171-2.249-6.601-3.498-10.266c-1.217-3.675-2.512-7.586-3.877-11.709c-1.319-4.138-2.706-8.488-4.153-13.028
		c-0.356-1.137-0.716-2.286-1.079-3.446c-0.409-1.136-0.822-2.283-1.24-3.441c-0.859-2.318-1.757-4.667-2.716-7.044
		c-1.921-4.748-4.071-9.589-6.547-14.428c-4.931-9.669-11.274-19.358-19.605-27.742c-4.167-4.174-8.812-8.026-13.948-11.258
		c-5.123-3.25-10.682-5.944-16.516-8.018c-11.684-4.179-24.366-5.793-36.976-5.798c-12.622,0.007-25.284,1.611-36.977,5.788
		c-5.835,2.072-11.394,4.763-16.519,8.011c-5.139,3.23-9.787,7.077-13.955,11.25c-8.335,8.38-14.684,18.065-19.622,27.729
		c-2.48,4.836-4.635,9.676-6.56,14.422c-0.96,2.374-1.861,4.726-2.724,7.044c-0.419,1.158-0.835,2.306-1.246,3.441
		c-0.375,1.156-0.746,2.301-1.113,3.434c-1.473,4.53-2.884,8.872-4.226,13.001c-1.361,4.111-2.529,8.07-3.69,11.76
		c-2.3,7.391-4.32,13.837-6.214,19.067c-0.924,2.622-1.836,4.934-2.616,6.946c-0.852,1.985-1.533,3.692-2.16,5.042
		c-1.291,2.684-1.979,4.115-1.979,4.115s0.664-1.442,1.908-4.146c0.603-1.36,1.254-3.078,2.071-5.074
		c0.745-2.024,1.615-4.347,2.493-6.981c1.802-5.254,3.708-11.726,5.881-19.155c1.099-3.714,2.194-7.676,3.491-11.832
		c1.298-4.144,2.662-8.5,4.086-13.046c0.356-1.136,0.717-2.285,1.08-3.444c0.405-1.154,0.813-2.318,1.227-3.494
		c0.844-2.335,1.726-4.707,2.668-7.103c1.89-4.79,4.011-9.682,6.465-14.584c4.886-9.791,11.202-19.691,19.686-28.231
		c4.229-4.261,8.956-8.198,14.188-11.511c5.217-3.33,10.882-6.094,16.82-8.225c11.888-4.291,24.791-5.964,37.536-6.001
		c12.759,0.044,25.641,1.718,37.534,6.015c5.938,2.132,11.602,4.899,16.817,8.231c5.229,3.314,9.953,7.257,14.181,11.519
		c8.479,8.544,14.784,18.452,19.665,28.245c2.45,4.904,4.567,9.798,6.453,14.589c0.939,2.396,1.821,4.771,2.662,7.108
		c0.412,1.177,0.819,2.343,1.223,3.498c0.352,1.163,0.7,2.314,1.045,3.453c2.774,9.111,5.359,17.452,7.685,24.833
		c1.186,3.684,2.295,7.131,3.32,10.319c1.067,3.174,2.047,6.089,2.933,8.722c0.884,2.634,1.774,4.946,2.496,6.98
		c0.368,1.014,0.709,1.953,1.021,2.813c0.32,0.857,0.672,1.612,0.955,2.3C394.673,177.372,395.294,178.833,395.294,178.833z"/>
</g>
<g>
	<path fill="#010101" d="M466.689,346.429c0,0,0.237,1.105,0.681,3.177c0.425,2.076,1.056,5.123,1.692,9.029
		c0.646,3.905,1.339,8.667,1.852,14.162c0.504,5.494,0.874,11.728,0.668,18.532c-0.205,6.796-0.883,14.187-2.677,21.81
		c-1.778,7.603-4.652,15.504-9.37,22.703c-2.343,3.597-5.122,7.004-8.308,10.074c-0.818,0.744-1.639,1.49-2.462,2.238
		c-0.865,0.699-1.732,1.4-2.602,2.104c-1.818,1.269-3.645,2.544-5.479,3.824c-0.912,0.636-1.827,1.272-2.743,1.91
		c-0.897,0.661-1.91,1.186-2.862,1.786c-1.935,1.164-3.874,2.333-5.818,3.503c-0.959,0.611-1.965,1.132-2.977,1.643l-3.023,1.561
		l-3.028,1.562c-1.009,0.521-2.01,1.06-3.064,1.486c-8.337,3.686-16.699,7.029-25.24,9.774c-2.117,0.722-4.264,1.295-6.379,1.945
		c-2.118,0.639-4.226,1.271-6.352,1.79c-2.117,0.548-4.222,1.094-6.311,1.635c-2.106,0.472-4.196,0.94-6.27,1.404
		c-1.037,0.231-2.07,0.461-3.098,0.69c-1.034,0.196-2.064,0.393-3.09,0.588c-2.051,0.382-4.083,0.761-6.093,1.135
		c-2.021,0.311-4.019,0.617-5.993,0.921c-1.976,0.295-3.922,0.619-5.858,0.827c-3.859,0.46-7.614,0.908-11.246,1.341
		c-1.815,0.211-3.6,0.418-5.352,0.622c-0.438,0.05-0.874,0.101-1.309,0.15c-0.437,0.029-0.872,0.059-1.305,0.088
		c-0.866,0.059-1.724,0.116-2.572,0.173c-6.793,0.51-12.991,0.743-18.497,1.011c-2.752,0.127-5.327,0.247-7.709,0.357
		c-2.386,0.015-4.578,0.029-6.558,0.042c-7.913,0.027-12.436,0.043-12.436,0.043s4.518-0.142,12.422-0.39
		c1.976-0.056,4.162-0.118,6.543-0.187c2.378-0.163,4.95-0.339,7.698-0.527c5.491-0.395,11.711-0.771,18.437-1.346
		c0.842-0.068,1.692-0.137,2.552-0.205c0.43-0.035,0.861-0.069,1.295-0.104c0.433-0.057,0.868-0.112,1.306-0.169
		c1.748-0.228,3.53-0.458,5.343-0.693c3.621-0.482,7.364-0.98,11.212-1.492c1.925-0.232,3.859-0.582,5.822-0.902
		c1.961-0.328,3.946-0.66,5.953-0.997c1.996-0.391,4.015-0.785,6.052-1.184c1.019-0.198,2.043-0.398,3.071-0.599
		c1.021-0.232,2.047-0.466,3.077-0.7c2.06-0.471,4.137-0.946,6.229-1.425c2.075-0.547,4.165-1.099,6.267-1.653
		c2.111-0.524,4.203-1.162,6.305-1.807c2.097-0.655,4.233-1.236,6.324-1.96c8.401-2.735,16.827-6.153,25.012-9.81
		c1.046-0.417,2.038-0.946,3.039-1.458l3.002-1.531l3-1.53l1.498-0.765c0.497-0.257,0.965-0.564,1.448-0.844
		c1.919-1.144,3.833-2.284,5.743-3.423c0.944-0.59,1.932-1.09,2.838-1.75c0.919-0.634,1.836-1.268,2.752-1.899
		c1.82-1.258,3.634-2.511,5.438-3.758c0.849-0.68,1.695-1.357,2.539-2.033c0.803-0.724,1.604-1.445,2.402-2.165
		c3.109-2.971,5.827-6.271,8.126-9.767c4.599-7.006,7.552-14.687,9.402-22.161c1.87-7.488,2.642-14.8,2.936-21.542
		c0.274-6.751,0.05-12.958-0.327-18.442c-0.391-5.486-0.976-10.252-1.535-14.164c-0.563-3.913-1.075-6.977-1.446-9.063
		C466.894,347.54,466.689,346.429,466.689,346.429z"/>
</g>
<g>
	<path fill="none" d="M386.609,142.415"/>
</g>
<g>
	<path fill="#010101" d="M440.425,303.818l26.756,42.637l13.432,21.285c2.195,3.587,4.543,7.005,7.088,10.327
		c2.549,3.294,5.271,6.478,8.37,9.205c1.556,1.344,3.212,2.587,5.018,3.455c1.787,0.865,3.806,1.282,5.544,0.626
		c1.73-0.671,3.028-2.273,3.917-4.053c0.923-1.78,1.505-3.767,1.991-5.761c0.938-4.015,1.346-8.175,1.589-12.33
		c0.044-1.042,0.109-2.082,0.13-3.125l0.045-1.564l-0.043-1.534l-0.105-3.142l-0.392-3.053c-1.151-8.182-3.77-16.198-6.749-23.98
		c-3.016-7.794-6.496-15.412-10.167-22.935c-3.684-7.52-7.562-14.946-11.548-22.318c-3.991-7.363-8.083-14.7-12.228-21.963
		l-6.381-10.846l-6.609-10.678l-6.818-10.561l-6.989-10.451l-7.126-10.359c-2.38-3.45-4.83-6.853-7.241-10.281
		c-2.425-3.419-4.91-6.796-7.362-10.197l-7.473-10.117c-5.04-6.702-10.105-13.386-15.272-19.992
		c-2.558-3.323-5.151-6.618-7.747-9.912l-3.913-4.925l-1.966-2.457c-0.653-0.852-1.305-1.538-2.014-2.613l0.023,0.103
		l-12.397-26.583v-0.002l-0.034-0.118c-0.021-0.034-0.055-0.061-0.081-0.092c-0.07-0.052-0.111-0.122-0.125-0.208
		c0.015,0.086,0.057,0.154,0.128,0.205c0.027,0.031,0.063,0.057,0.083,0.091l0.037,0.121v-0.001l12.823,26.38l0.023,0.103
		c0.588,0.574,1.276,1.502,1.945,2.277l2.005,2.425l3.994,4.864c2.649,3.254,5.298,6.509,7.911,9.792
		c5.232,6.562,10.36,13.207,15.467,19.868l7.571,10.06c2.485,3.382,5.004,6.74,7.463,10.142c4.931,6.794,9.797,13.637,14.537,20.568
		l7.033,10.449l6.865,10.563l6.669,10.703l6.414,10.828c4.193,7.297,8.296,14.603,12.323,21.979
		c4.035,7.365,7.892,14.833,11.566,22.394c3.663,7.565,7.14,15.232,10.156,23.1c2.982,7.874,5.607,15.934,6.774,24.39l0.392,3.191
		l0.097,3.146l0.038,1.611l-0.05,1.58c-0.024,1.054-0.094,2.107-0.141,3.161c-0.261,4.212-0.682,8.436-1.665,12.594
		c-0.508,2.072-1.133,4.143-2.158,6.086c-0.986,1.914-2.48,3.842-4.726,4.697c-1.111,0.404-2.318,0.476-3.444,0.305
		c-1.131-0.169-2.19-0.554-3.177-1.033c-1.973-0.973-3.686-2.295-5.288-3.7c-3.178-2.851-5.902-6.104-8.453-9.462
		c-2.529-3.359-4.903-6.889-7.056-10.478l-13.208-21.425L440.425,303.818z"/>
</g>
<g>
	<path fill="#010101" d="M408.149,470.998c0,0,0.351,0.417,1.009,1.197c0.668,0.773,1.613,1.935,2.771,3.458
		c1.107,1.556,2.491,3.43,3.741,5.811c0.288,0.607,0.599,1.229,0.881,1.891c0.235,0.681,0.547,1.357,0.696,2.119
		c0.377,1.469,0.526,3.229-0.2,4.887c-0.712,1.664-2.238,2.895-3.883,3.674c-1.662,0.797-3.48,1.274-5.349,1.646
		c-3.749,0.683-7.732,0.936-11.833,0.999c-4.104,0.069-8.334,0.021-12.624-0.105c-2.145-0.067-4.306-0.136-6.475-0.203
		c-2.17-0.063-4.346-0.188-6.462-0.102c-4.287,0.146-8.584,0.735-12.792,1.434c-4.208,0.714-8.346,1.501-12.349,2.299
		c-4.002,0.803-7.885,1.547-11.588,2.17c-3.703,0.62-7.229,1.122-10.523,1.318c-3.271,0.173-6.415,0.134-8.964-1.057
		c-0.62-0.313-1.198-0.694-1.641-1.193c-0.442-0.498-0.746-1.073-0.928-1.654c-0.318-1.18-0.191-2.289,0.008-3.229
		c0.42-1.896,1.146-3.234,1.6-4.146c0.478-0.905,0.752-1.375,0.752-1.375s-0.245,0.487-0.665,1.416
		c-0.402,0.93-1.015,2.319-1.347,4.17c-0.153,0.917-0.213,1.978,0.121,3.016c0.187,0.509,0.475,0.994,0.876,1.408
		c0.402,0.416,0.931,0.73,1.503,0.988c1.161,0.505,2.544,0.707,3.996,0.782c1.457,0.075,3.006,0.014,4.616-0.124
		c6.459-0.573,13.881-2.344,21.868-4.024c3.997-0.843,8.131-1.737,12.378-2.458c4.244-0.724,8.596-1.348,13.019-1.517
		c2.239-0.08,4.418,0.061,6.583,0.132c2.167,0.078,4.325,0.157,6.466,0.234c4.28,0.134,8.488,0.28,12.553,0.258
		c4.061-0.026,7.988-0.146,11.628-0.709c1.808-0.306,3.551-0.719,5.087-1.404c1.53-0.677,2.833-1.697,3.458-3.05
		c0.65-1.348,0.569-2.902,0.279-4.293c-0.103-0.712-0.374-1.375-0.567-2.036c-0.242-0.646-0.518-1.265-0.77-1.869
		c-1.113-2.381-2.402-4.308-3.432-5.902c-1.089-1.556-1.939-2.79-2.565-3.598C408.475,471.436,408.149,470.998,408.149,470.998z"/>
</g>
<g>
	<path fill="#010101" d="M326.609,228.081c0,0,0.757,1.074,2.175,3.088c1.438,2,3.625,4.875,6.635,8.342
		c3.008,3.466,6.931,7.446,11.828,11.548c4.869,4.141,10.791,8.263,17.271,12.75c6.469,4.489,13.517,9.447,20.021,15.823
		c3.254,3.177,6.359,6.688,9.243,10.499c2.885,3.813,5.472,7.964,7.878,12.296c2.43,4.325,4.533,8.91,6.527,13.596
		c0.48,1.18,0.962,2.363,1.445,3.55c0.504,1.22,0.889,2.406,1.34,3.617c0.869,2.411,1.742,4.836,2.619,7.27
		c3.267,9.882,5.969,20.113,7.521,30.582c1.523,10.459,1.784,21.14,0.476,31.488c-1.233,10.369-4.229,20.276-7.938,29.443
		c-0.473,1.144-0.906,2.3-1.405,3.419c-0.501,1.119-1,2.233-1.497,3.342c-0.959,2.233-2.066,4.368-3.097,6.512
		c-2.076,4.28-4.657,8.289-7.505,11.831c-5.708,7.12-12.278,12.766-18.645,17.443c-6.368,4.701-12.614,8.408-18.256,11.458
		c-5.641,3.059-10.71,5.426-14.916,7.291c-4.213,1.854-7.587,3.157-9.894,4.021c-2.31,0.858-3.559,1.269-3.559,1.269
		s4.964-1.754,13.31-5.605c4.163-1.941,9.176-4.4,14.738-7.556c2.786-1.567,5.707-3.312,8.716-5.259
		c3.017-1.932,6.134-4.051,9.263-6.423c6.264-4.714,12.7-10.385,18.223-17.443c2.767-3.532,5.195-7.392,7.214-11.67
		c0.994-2.145,2.079-4.277,3.027-6.492c0.488-1.102,0.979-2.209,1.472-3.32c0.491-1.112,0.915-2.258,1.379-3.392
		c3.637-9.093,6.548-18.866,7.722-29.075c1.251-10.191,0.949-20.704-0.587-31.028c-1.489-10.335-4.135-20.507-7.322-30.279
		c-0.867-2.436-1.73-4.862-2.59-7.277c-0.44-1.192-0.843-2.441-1.311-3.579c-0.474-1.178-0.946-2.352-1.418-3.521
		c-1.957-4.647-4.021-9.191-6.402-13.469c-2.354-4.291-4.911-8.375-7.694-12.171c-2.796-3.785-5.813-7.277-8.985-10.447
		c-6.34-6.361-13.271-11.364-19.687-15.925c-6.437-4.543-12.312-8.808-17.125-13.066c-4.846-4.217-8.71-8.291-11.662-11.825
		c-2.961-3.527-5.06-6.483-6.452-8.512C327.338,229.174,326.609,228.081,326.609,228.081z"/>
</g>
<g>
	<path fill="#010101" d="M284.814,178.617l-0.198,0.226c-0.005,0.005-0.013,0.006-0.019,0.001l-0.004-0.005
		c-0.863-1.792-1.225-3.83-1.119-5.844c0.104-2.019,0.655-3.998,1.445-5.857c1.649-3.706,4.254-6.911,7.255-9.603
		c3.006-2.704,6.507-4.848,10.252-6.397c3.75-1.532,7.778-2.459,11.859-2.556l0.787-0.019l0.743,0.022
		c0.494,0.013,0.986,0.023,1.507,0.074c1.035,0.066,2.037,0.198,3.041,0.349c2.005,0.315,3.979,0.799,5.899,1.439
		c3.828,1.299,7.498,3.104,10.74,5.521c3.23,2.403,6.147,5.352,8.051,8.95c0.916,1.806,1.567,3.771,1.714,5.791
		c0.145,2.019-0.24,4.057-1.111,5.842c-0.001,0.003-0.006,0.006-0.009,0.006l-0.208-0.009l0.208-0.009l-0.009,0.005
		c0.69-1.861,0.902-3.859,0.648-5.784c-0.271-1.928-1.02-3.755-2.005-5.416c-1.958-3.352-4.871-6.077-8.074-8.258
		c-3.229-2.162-6.756-3.888-10.462-5.036c-1.851-0.579-3.737-1.044-5.65-1.326c-0.956-0.137-1.921-0.255-2.865-0.31
		c-0.466-0.044-0.964-0.052-1.461-0.062l-0.742-0.017l-0.699,0.022c-3.851,0.058-7.677,0.927-11.274,2.338
		c-3.618,1.387-6.976,3.428-9.988,5.875c-2.989,2.467-5.618,5.454-7.347,8.937c-0.874,1.728-1.53,3.589-1.761,5.526
		c-0.217,1.932-0.022,3.927,0.66,5.792l-0.022-0.004L284.814,178.617z"/>
</g>
<g>
	<path fill="#010101" d="M345.44,176.549l-0.014-0.2l0.006,0.011c-1.14-0.707-2.316-1.325-3.533-1.857
		c-1.218-0.527-2.467-0.978-3.733-1.366c-1.262-0.402-2.536-0.763-3.827-1.062c-1.286-0.311-2.58-0.594-3.884-0.822
		c-1.302-0.238-2.611-0.435-3.921-0.613c-1.312-0.18-2.628-0.313-3.945-0.422c-1.318-0.109-2.638-0.195-3.958-0.255
		c-1.322-0.04-2.644-0.066-3.964-0.045c-1.32,0.011-2.643,0.038-3.959,0.125c-1.319,0.065-2.633,0.198-3.943,0.344
		c-1.313,0.135-2.616,0.333-3.915,0.559c-1.298,0.235-2.584,0.515-3.867,0.819l-1.906,0.523l-1.881,0.606l-1.854,0.689
		c-0.611,0.245-1.205,0.531-1.813,0.79c-0.602,0.272-1.183,0.587-1.777,0.879c-0.583,0.313-1.142,0.667-1.717,1
		c-0.558,0.358-1.092,0.753-1.645,1.127l-1.575,1.239l1.404-1.445c0.512-0.434,1.016-0.885,1.544-1.306
		c0.546-0.394,1.081-0.812,1.643-1.189c0.572-0.357,1.136-0.739,1.723-1.078c0.597-0.318,1.19-0.649,1.8-0.948l1.852-0.845
		l1.898-0.738l1.933-0.64l1.958-0.554c0.656-0.171,1.321-0.304,1.982-0.458c1.327-0.273,2.661-0.519,4.004-0.7
		c0.67-0.11,1.344-0.172,2.018-0.238c0.674-0.074,1.348-0.133,2.023-0.171c1.351-0.103,2.703-0.145,4.056-0.17
		c1.354-0.007,2.705,0.034,4.056,0.088c1.35,0.082,2.699,0.164,4.043,0.315c2.684,0.31,5.359,0.721,7.988,1.35
		c1.315,0.306,2.624,0.646,3.913,1.054c1.291,0.398,2.563,0.857,3.817,1.361c1.247,0.521,2.468,1.104,3.647,1.76
		c1.183,0.649,2.306,1.409,3.332,2.272l0.006,0.011L345.44,176.549z"/>
</g>
<g>
	<path fill="#010101" d="M345.44,176.549c0.204,1.626-0.255,3.255-0.898,4.737c-0.354,0.731-0.688,1.473-1.058,2.195
		c-0.426,0.693-0.823,1.406-1.272,2.083c-0.497,0.644-0.938,1.333-1.474,1.947c-0.563,0.587-1.052,1.25-1.676,1.778
		c-0.608,0.543-1.187,1.124-1.861,1.587l-0.981,0.734c-0.337,0.229-0.693,0.431-1.037,0.652c-1.372,0.891-2.866,1.579-4.381,2.197
		c-0.757,0.315-1.545,0.541-2.318,0.815c-0.787,0.222-1.578,0.438-2.373,0.637c-1.6,0.354-3.215,0.646-4.843,0.832
		c-1.627,0.192-3.263,0.32-4.898,0.366c-1.669,0.076-3.25,0.035-4.928-0.069c-0.827-0.049-1.641-0.157-2.463-0.234l-2.445-0.375
		c-1.62-0.314-3.236-0.677-4.814-1.185c-1.577-0.506-3.137-1.09-4.636-1.817c-0.751-0.361-1.505-0.719-2.216-1.163l-1.08-0.638
		c-0.35-0.23-0.687-0.482-1.03-0.722c-0.34-0.246-0.688-0.479-1.021-0.735l-0.96-0.819c-0.661-0.523-1.238-1.14-1.82-1.752
		c-1.164-1.222-2.169-2.601-3.007-4.073c-0.462-0.712-0.74-1.522-1.116-2.279c-0.088-0.211-0.178-0.343-0.263-0.619l-0.191-0.578
		l-0.383-1.157l-0.18-0.543l0.392-0.35l1.55-1.385c0.551-0.416,1.087-0.854,1.653-1.248c0.581-0.369,1.149-0.761,1.742-1.108
		c0.603-0.328,1.194-0.678,1.807-0.985c0.62-0.289,1.231-0.598,1.858-0.869l1.899-0.762l1.935-0.652l1.96-0.555
		c1.317-0.326,2.639-0.622,3.971-0.854c1.332-0.228,2.668-0.427,4.01-0.562c1.341-0.146,2.685-0.253,4.029-0.305
		c1.345-0.071,2.69-0.081,4.034-0.073c1.344,0.01,2.686,0.069,4.026,0.142c1.339,0.096,2.677,0.205,4.009,0.36
		c1.332,0.158,2.661,0.337,3.981,0.565c1.32,0.227,2.64,0.463,3.946,0.758c1.309,0.282,2.607,0.608,3.893,0.983
		c1.288,0.365,2.559,0.788,3.816,1.242c1.256,0.46,2.489,0.982,3.688,1.578s2.346,1.29,3.425,2.079l0.001,0L345.44,176.549z
		 M345.44,176.549l-0.001-0.2v0c-1.086-0.78-2.237-1.465-3.438-2.051c-1.2-0.586-2.437-1.098-3.694-1.548
		c-1.258-0.451-2.534-0.849-3.828-1.18c-1.29-0.345-2.593-0.642-3.903-0.894c-1.309-0.261-2.626-0.482-3.95-0.649
		c-1.322-0.178-2.65-0.307-3.979-0.415c-1.329-0.105-2.66-0.164-3.991-0.209c-1.332-0.022-2.663-0.031-3.993,0.008
		c-1.329,0.043-2.657,0.102-3.98,0.222c-1.324,0.1-2.644,0.255-3.955,0.448c-1.313,0.182-2.615,0.426-3.909,0.697
		c-1.294,0.276-2.57,0.613-3.837,0.977l-1.879,0.608l-1.844,0.692l-1.807,0.772c-0.594,0.273-1.17,0.581-1.755,0.869
		c-0.576,0.305-1.128,0.65-1.693,0.972c-0.552,0.342-1.077,0.723-1.617,1.081l-1.534,1.185l-1.431,1.298l0.212-0.893l0.392,1.154
		l0.196,0.577c0.028,0.116,0.151,0.335,0.222,0.498c0.354,0.691,0.608,1.437,1.041,2.086c0.789,1.338,1.689,2.617,2.76,3.754
		c0.535,0.569,1.062,1.146,1.676,1.637l0.888,0.771c0.309,0.241,0.635,0.462,0.951,0.695c0.32,0.228,0.634,0.466,0.96,0.685
		l1.012,0.613c0.659,0.434,1.367,0.788,2.073,1.147c1.408,0.723,2.889,1.314,4.393,1.834c1.509,0.511,3.048,0.938,4.607,1.295
		l2.358,0.452c0.792,0.103,1.587,0.239,2.38,0.315c1.562,0.158,3.23,0.262,4.812,0.245c1.613,0.015,3.226-0.052,4.832-0.182
		c1.607-0.123,3.203-0.351,4.789-0.641c0.787-0.166,1.572-0.35,2.355-0.54c0.768-0.242,1.554-0.435,2.309-0.717
		c1.512-0.552,3.01-1.175,4.396-2.005c0.349-0.204,0.703-0.4,1.043-0.618l0.985-0.705c0.68-0.444,1.264-1.006,1.879-1.532
		c0.632-0.51,1.131-1.156,1.704-1.729c0.544-0.6,1.004-1.271,1.506-1.908c0.452-0.671,0.854-1.378,1.283-2.066
		c0.376-0.719,0.715-1.458,1.074-2.187C345.161,179.798,345.632,178.178,345.44,176.549z"/>
</g>
<g>
	<path fill="#010101" d="M266.193,178.617c-0.428,1.569-1.009,3.104-1.773,4.54c-0.79,1.44-1.723,2.803-2.824,4.021
		c-0.551,0.61-1.098,1.227-1.73,1.754l-0.919,0.827c-0.319,0.258-0.655,0.497-0.982,0.747c-0.331,0.245-0.655,0.501-0.993,0.736
		l-1.046,0.658c-0.686,0.463-1.419,0.837-2.154,1.211c-1.465,0.755-2.997,1.372-4.553,1.913c-1.558,0.537-3.15,0.959-4.758,1.32
		l-2.43,0.451c-0.817,0.102-1.632,0.238-2.453,0.312c-1.638,0.154-3.301,0.25-4.938,0.225c-1.614,0.011-3.301-0.083-4.931-0.233
		c-1.644-0.145-3.28-0.398-4.908-0.716c-0.81-0.181-1.617-0.379-2.422-0.585c-0.792-0.259-1.601-0.468-2.38-0.771
		c-0.773-0.317-1.572-0.572-2.314-0.969c-0.757-0.361-1.512-0.728-2.222-1.184c-0.358-0.219-0.727-0.424-1.077-0.656l-1.022-0.744
		c-0.703-0.47-1.31-1.061-1.946-1.615c-0.651-0.54-1.17-1.215-1.761-1.818c-0.562-0.629-1.032-1.333-1.552-1.998
		c-0.47-0.698-0.887-1.432-1.331-2.147c-0.391-0.743-0.735-1.51-1.103-2.265c-0.205-0.449-0.303-0.78-0.459-1.175
		c-0.139-0.391-0.243-0.864-0.36-1.293c-0.099-0.442-0.129-0.894-0.19-1.34c-0.02-0.458,0.024-0.933,0.043-1.397l-0.009,0.125
		l0.001-0.2l0.001-0.447l0.346-0.25c1.141-0.826,2.338-1.537,3.573-2.143c1.236-0.606,2.5-1.132,3.782-1.593
		c1.282-0.461,2.581-0.867,3.893-1.211c1.31-0.356,2.63-0.662,3.957-0.923c1.325-0.272,2.659-0.494,3.997-0.683
		c1.337-0.194,2.679-0.344,4.023-0.464c1.346-0.113,2.693-0.18,4.041-0.232c1.349-0.029,2.697-0.045,4.046-0.012
		c1.348,0.037,2.695,0.09,4.039,0.204c1.344,0.096,2.686,0.246,4.02,0.435c1.337,0.178,2.664,0.419,3.985,0.689
		c0.657,0.151,1.318,0.284,1.972,0.451l1.948,0.544l1.922,0.629l1.89,0.72l1.85,0.814c0.608,0.288,1.2,0.612,1.8,0.916
		c0.591,0.321,1.159,0.684,1.738,1.024c0.567,0.36,1.111,0.758,1.662,1.142c0.533,0.408,1.042,0.848,1.563,1.269L266.193,178.617z
		 M266.193,178.617l-1.528-1.295c-0.544-0.388-1.073-0.793-1.625-1.164c-0.571-0.343-1.121-0.718-1.698-1.047
		c-0.589-0.31-1.164-0.643-1.762-0.933c-0.605-0.273-1.201-0.566-1.813-0.822l-1.856-0.719l-1.889-0.624l-1.917-0.533
		c-1.29-0.31-2.583-0.597-3.888-0.835c-1.305-0.229-2.616-0.431-3.935-0.57c-1.316-0.15-2.64-0.261-3.964-0.319
		c-1.323-0.076-2.65-0.092-3.976-0.091c-1.325,0.004-2.65,0.056-3.974,0.121c-1.322,0.089-2.643,0.19-3.959,0.337
		c-2.633,0.278-5.253,0.681-7.835,1.237c-1.293,0.273-2.575,0.59-3.841,0.953c-1.27,0.353-2.519,0.767-3.752,1.211
		c-1.231,0.449-2.437,0.958-3.599,1.535c-1.163,0.576-2.266,1.244-3.289,1.989l0.347-0.697l0.001,0.2l-0.009,0.125
		c0,0.347-0.037,0.686-0.023,1.037c0.059,0.356,0.078,0.721,0.158,1.07c0.104,0.352,0.161,0.679,0.295,1.053
		c0.144,0.359,0.29,0.807,0.432,1.092l1.034,2.116c0.412,0.665,0.795,1.35,1.228,2c0.48,0.615,0.911,1.272,1.428,1.856
		c0.546,0.557,1.018,1.188,1.62,1.688c0.588,0.514,1.143,1.067,1.795,1.503l0.944,0.696c0.325,0.217,0.668,0.409,1.001,0.615
		c1.327,0.835,2.777,1.467,4.241,2.05c0.73,0.297,1.498,0.504,2.246,0.762c0.765,0.208,1.534,0.408,2.307,0.592
		c1.558,0.326,3.132,0.593,4.725,0.757c1.603,0.17,3.164,0.272,4.799,0.315c1.611,0.069,3.199,0.02,4.8-0.086
		c0.799-0.05,1.593-0.161,2.391-0.237l2.374-0.374c1.572-0.309,3.135-0.677,4.663-1.158c1.526-0.485,3.034-1.044,4.477-1.739
		c0.721-0.348,1.449-0.685,2.134-1.1l1.046-0.594c0.338-0.214,0.663-0.448,0.995-0.671c0.329-0.229,0.667-0.446,0.99-0.684
		l0.928-0.764c0.642-0.487,1.199-1.064,1.765-1.635c1.131-1.142,2.104-2.437,2.939-3.808c0.461-0.662,0.755-1.436,1.141-2.148
		C265.676,180.168,265.892,179.367,266.193,178.617z"/>
</g>
<path fill="#010101" d="M235.828,172.667c-10.734,0-17.927,7.13-16.571,11.456c1.407,4.369,8.755,8.833,17.544,8.859
	c8.616,0,14.73-4.377,15.704-8.729C253.478,179.885,247.988,172.667,235.828,172.667z"/>
<path fill="#010101" d="M315.231,172.667c10.648,0,17.927,7.13,16.521,11.456c-1.338,4.369-8.704,8.833-17.406,8.859
	c-8.703,0-14.748-4.377-15.895-8.729C297.565,179.885,303.071,172.667,315.231,172.667z"/>
<linearGradient id="SVGID_8_" gradientUnits="userSpaceOnUse" x1="230.5488" y1="305.3516" x2="347.312" y2="507.5913">
	<stop  offset="0" style="stop-color:#010101;stop-opacity:0"/>
	<stop  offset="1" style="stop-color:#010101;stop-opacity:0.3"/>
</linearGradient>
<path fill="url(#SVGID_8_)" d="M79.819,392.376c96.861,85.936,259.576,56.855,311.967,13.324
	c26.266-21.819,36.966-55.57,52.564-95.507l22.339,36.235c7.262,25.346,5.594,70.093-8.025,89.393
	c-15.6,22.043-43.671,30.643-59.617,38.165c-15.981,7.556-80.358,17.752-107.909,17.856c-27.551,0.122-79.524-2.206-100.717-7.262
	c-21.176-5.054-71.83-18.396-86.474-36.131c-14.626-17.754-17.823-23.468-21.401-37.608
	C82.667,412.23,79.819,392.376,79.819,392.376z"/>
<linearGradient id="SVGID_9_" gradientUnits="userSpaceOnUse" x1="94.5581" y1="381.8184" x2="94.5581" y2="305.9541">
	<stop  offset="0" style="stop-color:#010101;stop-opacity:0"/>
	<stop  offset="1" style="stop-color:#010101;stop-opacity:0.4"/>
</linearGradient>
<path fill="url(#SVGID_9_)" d="M109.297,305.954c-5.698,23.436-26.161,67.07-29.479,75.826c0.052,1.389,4.499-35.352,4.499-35.352
	L109.297,305.954z"/>
<linearGradient id="SVGID_10_" gradientUnits="userSpaceOnUse" x1="455.9414" y1="404.7607" x2="455.9414" y2="305.5205">
	<stop  offset="0" style="stop-color:#010101;stop-opacity:0"/>
	<stop  offset="1" style="stop-color:#010101;stop-opacity:0.4"/>
</linearGradient>
<path fill="url(#SVGID_10_)" d="M441.467,305.521c0,0,28.106,92.362,28.106,99.24c2.397-25.17-1.077-50.671-1.077-50.671
	l-1.807-7.661L441.467,305.521z"/>
<linearGradient id="SVGID_11_" gradientUnits="userSpaceOnUse" x1="293.1113" y1="260.3711" x2="293.1113" y2="209.6587">
	<stop  offset="0" style="stop-color:#010101;stop-opacity:0"/>
	<stop  offset="1" style="stop-color:#010101;stop-opacity:0.4"/>
</linearGradient>
<path fill="url(#SVGID_11_)" d="M250.663,256.543c7.608,4.473,5.871,2.406,20.011,2.067c14.141-0.348,37.904,4.56,44.471-0.652
	c6.532-5.211,21.436-45.686,20.359-48.3c-2.85,6.019-12.577,25.353-12.577,25.353s-9.9,16.633-14.383,18.561
	c-4.413,1.929-16.815,3.118-23.729,2.354C277.936,255.162,250.663,256.543,250.663,256.543z"/>
<linearGradient id="SVGID_12_" gradientUnits="userSpaceOnUse" x1="236.1533" y1="175.5234" x2="251.356" y2="201.8552">
	<stop  offset="0" style="stop-color:#010101;stop-opacity:0"/>
	<stop  offset="1" style="stop-color:#010101;stop-opacity:0.4"/>
</linearGradient>
<path fill="url(#SVGID_12_)" d="M267.339,174.152c2.294,4.829,1.912,28.61-25.813,26.89c-27.724-1.72-25.083-6.349-29.355-11.673
	c15.598,6.705,12.142,7.313,23.606,7.252c11.447-0.061,23.434-5.446,25.031-8.972C262.406,184.141,267.496,176.115,267.339,174.152z
	"/>
<linearGradient id="SVGID_13_" gradientUnits="userSpaceOnUse" x1="316.2432" y1="176.0181" x2="331.3882" y2="202.25">
	<stop  offset="0" style="stop-color:#010101;stop-opacity:0"/>
	<stop  offset="1" style="stop-color:#010101;stop-opacity:0.4"/>
</linearGradient>
<path fill="url(#SVGID_13_)" d="M346.204,174.508c2.328,4.82,3.995,28.254-23.694,26.534c-27.794-1.72-25.119-6.349-29.392-11.673
	c15.564,6.705,12.124,7.313,23.59,7.252c11.499-0.061,21.192-5.837,23.659-8.799C346.586,180.362,344.119,174.864,346.204,174.508z"
	/>
<linearGradient id="SVGID_14_" gradientUnits="userSpaceOnUse" x1="233.0547" y1="182.5825" x2="228.4385" y2="174.587">
	<stop  offset="0.2611" style="stop-color:#FFFFFF;stop-opacity:0"/>
	<stop  offset="1" style="stop-color:#FFFFFF"/>
</linearGradient>
<path fill="url(#SVGID_14_)" d="M224.5,176.875c-3.787,2.501-7.013,7.248-0.52,10.945c-1.77-9.945,15.463-12.724,18.52-12.445
	C234.625,173.72,227.591,174.843,224.5,176.875z"/>
<linearGradient id="SVGID_15_" gradientUnits="userSpaceOnUse" x1="312.8877" y1="182.582" x2="308.272" y2="174.5874">
	<stop  offset="0.2611" style="stop-color:#FFFFFF;stop-opacity:0"/>
	<stop  offset="1" style="stop-color:#FFFFFF"/>
</linearGradient>
<path fill="url(#SVGID_15_)" d="M304.333,176.875c-3.787,2.501-7.013,7.248-0.52,10.945c-1.77-9.945,15.463-12.724,18.52-12.445
	C314.458,173.72,307.424,174.843,304.333,176.875z"/>
</svg>
