<?xml version="1.0" encoding="utf-8"?>
<!-- Generator: Adobe Illustrator 16.0.0, SVG Export Plug-In . SVG Version: 6.00 Build 0)  -->
<!DOCTYPE svg PUBLIC "-//W3C//DTD SVG 1.1//EN" "http://www.w3.org/Graphics/SVG/1.1/DTD/svg11.dtd">
<svg version="1.1" id="Layer_1" xmlns="http://www.w3.org/2000/svg" xmlns:xlink="http://www.w3.org/1999/xlink" x="0px" y="0px"
	 width="540px" height="540px" viewBox="0 0 540 540" enable-background="new 0 0 540 540" xml:space="preserve">
<linearGradient id="SVGID_1_" gradientUnits="userSpaceOnUse" x1="582.8867" y1="786.9551" x2="344.0893" y2="373.3459">
	<stop  offset="0" style="stop-color:#000000;stop-opacity:0"/>
	<stop  offset="1" style="stop-color:#000000;stop-opacity:0.6"/>
</linearGradient>
<path fill="url(#SVGID_1_)" d="M118.574,520.068c2.831,52.573,102.294,129.503,303.134,178.801
	c256.215,62.89,434.109-39.591,376.368-82.895c-57.741-43.305-155.548-81.869-220.359-101.617
	c-64.812-19.746-120.063-22.055-120.063-22.055S114.292,440.523,118.574,520.068z"/>
<path fill="#233C7A" d="M491.229,265.247c-38-66.361-60.365-93.341-97.473-137.348c0,0-0.233,0-0.233-0.232
	c-4.372-9.219-8.976-18.902-14.045-29.495c0-0.242-0.271-0.242-0.271-0.465c-15.4-44.247-40.746-87.334-108.964-87.334h-0.465
	c-68.218,0-93.563,43.087-109.002,87.334c0,0.223-0.213,0.223-0.213,0.465c-5.088,10.592-9.693,20.276-14.066,29.495
	c0,0.232-0.232,0.232-0.232,0.232c-37.108,44.006-59.474,70.986-97.472,137.348C26.194,304.88,2.474,349.379,3.151,375.188
	c1.412,62.434,33.413,12.421,36.625,7.604l17.296-27.668c-8.977,43.301-8.513,90.779,23.508,114.982
	c12.672,9.442,26.718,17.276,41.945,23.273c25.132,10.352,52.992,16.853,81.336,20.045c0,0-61.273-20.973-79.711-58.546
	c-16.852-33.837-26.293-67.771-2.999-128.582c25.113-65.201,60.131-55.536,91.474-102.076c-2.748-5.988-5.765-13.137-9.209-21.427
	c-2.553-6.211,7.14-5.301,22.56-3.231c12.228,1.848,28.131,4.373,44.035,4.624c16.135,0.213,32.271-1.848,44.73-3.25
	c14.743-2.05,24.184-2.989,22.096,1.857c-3.676,7.826-6.927,14.743-9.907,20.518c31.344,47.671,66.594,37.321,91.94,102.985
	c23.295,60.811,13.813,94.745-2.98,128.582c-18.458,37.573-79.75,58.546-79.75,58.546c28.324-3.192,56.224-9.693,81.376-20.045
	c15.167-5.997,29.253-13.831,41.945-23.273c31.999-24.203,32.425-71.682,23.486-114.982l17.258,27.668
	c3.25,4.817,35.289,54.83,36.645-7.604C537.545,349.379,513.825,304.88,491.229,265.247z M258.943,170.3
	c-5.301,13.378-21.417,17.974-33.181,17.974c-13.138,0-26.738-3.231-32.717-17.277c-0.696-1.616-1.161-3.463-0.928-5.079v-0.222
	c12.208-9.22,51.387-13.369,67.522,2.524C259.407,168.907,259.176,169.613,258.943,170.3z M346.975,170.996
	c-5.96,14.046-19.58,17.277-32.699,17.277c-11.762,0-27.897-4.595-33.198-17.974c-0.233-0.687-0.465-1.393-0.697-2.08
	c16.135-15.894,55.294-11.744,67.523-2.524v0.222C348.134,167.533,347.67,169.38,346.975,170.996z"/>
<path fill="#FAF5BD" d="M418.869,326.297c23.295,60.811,13.813,94.745-2.98,128.582c-18.458,37.573-79.75,58.546-79.75,58.546
	c-7.585,1.181-15.4,1.838-23.256,2.283c-14.51,1.181-28.789,1.626-42.873,1.626c-14.046,0-28.345-0.445-42.874-1.626
	c-7.815-0.445-15.671-1.103-23.274-2.283c0,0-61.273-20.973-79.711-58.546c-16.852-33.837-26.293-67.771-2.999-128.582
	c25.113-65.201,60.131-55.536,91.474-102.076c19.367,40.32,28.364,29.718,57.617,29.718c29.952,0,35.483,10.854,56.687-30.627
	C358.272,270.983,393.522,260.632,418.869,326.297z"/>
<linearGradient id="SVGID_2_" gradientUnits="userSpaceOnUse" x1="185.5815" y1="239.8345" x2="343.3589" y2="513.1129">
	<stop  offset="0" style="stop-color:#000000;stop-opacity:0"/>
	<stop  offset="1" style="stop-color:#000000;stop-opacity:0.2"/>
</linearGradient>
<path fill="url(#SVGID_2_)" d="M418.869,326.297c23.295,60.811,13.813,94.745-2.98,128.582
	c-18.458,37.573-79.75,58.546-79.75,58.546c-7.585,1.181-15.4,1.838-23.256,2.283c-14.51,1.181-28.789,1.626-42.873,1.626
	c-14.046,0-28.345-0.445-42.874-1.626c-7.815-0.445-15.671-1.103-23.274-2.283c0,0-61.273-20.973-79.711-58.546
	c-16.852-33.837-26.293-67.771-2.999-128.582c25.113-65.201,60.131-55.536,91.474-102.076c19.367,40.32,28.364,29.718,57.617,29.718
	c29.952,0,35.483,10.854,56.687-30.627C358.272,270.983,393.522,260.632,418.869,326.297z"/>
<path fill="#F39820" d="M417.746,493.865c24.418,29.949,1.123,28.557-38.269,27.162c-26.971-1.141-81.801,23.063-66.595-5.067
	v-0.252c7.855-0.445,15.671-1.103,23.256-2.283c28.324-3.192,56.224-9.693,81.376-20.045L417.746,493.865z"/>
<path fill="#FFFFFF" d="M347.903,165.917c0.23,1.616-0.233,3.463-0.929,5.079c-5.96,14.046-19.58,17.277-32.699,17.277
	c-11.762,0-27.897-4.595-33.198-17.974c-0.233-0.687-0.465-1.393-0.697-2.08c16.135-15.894,55.294-11.744,67.523-2.524V165.917z"/>
<linearGradient id="SVGID_3_" gradientUnits="userSpaceOnUse" x1="279.0957" y1="152.0986" x2="349.1943" y2="152.0986">
	<stop  offset="0" style="stop-color:#000000;stop-opacity:0"/>
	<stop  offset="1" style="stop-color:#000000;stop-opacity:0.4"/>
</linearGradient>
<path fill="url(#SVGID_3_)" d="M314.045,135.736c-20.78,0-39.663,19.347-33.897,32.726l0.232-0.242
	c16.135-15.894,55.294-11.744,67.523-2.524v0.222h0.23C354.132,152.084,333.586,135.736,314.045,135.736z"/>
<linearGradient id="SVGID_4_" gradientUnits="userSpaceOnUse" x1="190.8291" y1="152.0986" x2="260.9224" y2="152.0986">
	<stop  offset="0" style="stop-color:#000000;stop-opacity:0"/>
	<stop  offset="1" style="stop-color:#000000;stop-opacity:0.4"/>
</linearGradient>
<path fill="url(#SVGID_4_)" d="M225.975,135.736c-19.578,0-40.067,16.348-34.09,30.182h0.233v-0.222
	c12.208-9.22,51.387-13.369,67.522,2.524l0.231,0.242C265.638,155.083,246.733,135.736,225.975,135.736z"/>
<path fill="#FFFFFF" d="M259.64,168.22c-0.233,0.687-0.464,1.393-0.697,2.08c-5.301,13.378-21.417,17.974-33.181,17.974
	c-13.138,0-26.738-3.231-32.717-17.277c-0.696-1.616-1.161-3.463-0.928-5.079v-0.222C204.326,156.476,243.504,152.326,259.64,168.22
	z"/>
<path fill="#F39820" d="M227.136,515.96c15.227,28.131-39.623,3.927-66.574,5.067c-39.411,1.395-62.705,2.787-38.288-27.162
	l0.251-0.485c25.132,10.352,52.992,16.853,81.336,20.045c7.604,1.181,15.459,1.838,23.274,2.283V515.96z"/>
<linearGradient id="SVGID_5_" gradientUnits="userSpaceOnUse" x1="310.2646" y1="511.5029" x2="427.7295" y2="511.5029">
	<stop  offset="0" style="stop-color:#000000;stop-opacity:0"/>
	<stop  offset="1" style="stop-color:#000000;stop-opacity:0.4"/>
</linearGradient>
<path fill="url(#SVGID_5_)" d="M417.746,493.865c24.418,29.949,1.123,28.557-38.269,27.162
	c-26.971-1.141-81.801,23.063-66.595-5.067v-0.252c7.855-0.445,15.671-1.103,23.256-2.283c28.324-3.192,56.224-9.693,81.376-20.045
	L417.746,493.865z"/>
<linearGradient id="SVGID_6_" gradientUnits="userSpaceOnUse" x1="112.291" y1="511.5029" x2="229.7598" y2="511.5029">
	<stop  offset="0" style="stop-color:#000000;stop-opacity:0"/>
	<stop  offset="1" style="stop-color:#000000;stop-opacity:0.4"/>
</linearGradient>
<path fill="url(#SVGID_6_)" d="M227.136,515.96c15.227,28.131-39.623,3.927-66.574,5.067c-39.411,1.395-62.705,2.787-38.288-27.162
	l0.251-0.485c25.132,10.352,52.992,16.853,81.336,20.045c7.604,1.181,15.459,1.838,23.274,2.283V515.96z"/>
<path fill="#F8C116" d="M314.74,200.936c-12.459,1.403-28.596,3.464-44.73,3.25c-15.904-0.251-31.808-2.776-44.035-4.624
	c-15.42-2.07-25.112-2.98-22.56,3.231c3.445,8.291,6.462,15.439,9.209,21.427c19.367,40.32,28.364,29.718,57.617,29.718
	c29.952,0,35.483,10.854,56.687-30.627c2.98-5.775,6.231-12.692,9.907-20.518C338.924,197.947,329.483,198.886,314.74,200.936z"/>
<linearGradient id="SVGID_7_" gradientUnits="userSpaceOnUse" x1="299.583" y1="256.0005" x2="251.0527" y2="171.9436">
	<stop  offset="0" style="stop-color:#000000;stop-opacity:0"/>
	<stop  offset="1" style="stop-color:#000000;stop-opacity:0.2"/>
</linearGradient>
<path fill="url(#SVGID_7_)" d="M314.74,200.936c-12.459,1.403-28.596,3.464-44.73,3.25c-15.904-0.251-31.808-2.776-44.035-4.624
	c-15.42-2.07-25.112-2.98-22.56,3.231c3.445,8.291,6.462,15.439,9.209,21.427c19.367,40.32,28.364,29.718,57.617,29.718
	c29.952,0,35.483,10.854,56.687-30.627c2.98-5.775,6.231-12.692,9.907-20.518C338.924,197.947,329.483,198.886,314.74,200.936z"/>
<linearGradient id="SVGID_8_" gradientUnits="userSpaceOnUse" x1="106.4561" y1="85.623" x2="361.793" y2="527.8796">
	<stop  offset="0" style="stop-color:#000000;stop-opacity:0"/>
	<stop  offset="1" style="stop-color:#000000;stop-opacity:0.6"/>
</linearGradient>
<path fill="url(#SVGID_8_)" d="M491.229,265.247c-38-66.361-60.365-93.341-97.473-137.348c0,0-0.233,0-0.233-0.232
	c-4.372-9.219-8.976-18.902-14.045-29.495c0-0.242-0.271-0.242-0.271-0.465c-15.4-44.247-40.746-87.334-108.964-87.334h-0.465
	c-68.218,0-93.563,43.087-109.002,87.334c0,0.223-0.213,0.223-0.213,0.465c-5.088,10.592-9.693,20.276-14.066,29.495
	c0,0.232-0.232,0.232-0.232,0.232c-37.108,44.006-59.474,70.986-97.472,137.348C26.194,304.88,2.474,349.379,3.151,375.188
	c1.412,62.434,33.413,12.421,36.625,7.604l17.296-27.668c-8.977,43.301-8.513,90.779,23.508,114.982
	c12.672,9.442,26.718,17.276,41.945,23.273c25.132,10.352,52.992,16.853,81.336,20.045c0,0-61.273-20.973-79.711-58.546
	c-16.852-33.837-26.293-67.771-2.999-128.582c25.113-65.201,60.131-55.536,91.474-102.076c-2.748-5.988-5.765-13.137-9.209-21.427
	c-2.553-6.211,7.14-5.301,22.56-3.231c12.228,1.848,28.131,4.373,44.035,4.624c16.135,0.213,32.271-1.848,44.73-3.25
	c14.743-2.05,24.184-2.989,22.096,1.857c-3.676,7.826-6.927,14.743-9.907,20.518c31.344,47.671,66.594,37.321,91.94,102.985
	c23.295,60.811,13.813,94.745-2.98,128.582c-18.458,37.573-79.75,58.546-79.75,58.546c28.324-3.192,56.224-9.693,81.376-20.045
	c15.167-5.997,29.253-13.831,41.945-23.273c31.999-24.203,32.425-71.682,23.486-114.982l17.258,27.668
	c3.25,4.817,35.289,54.83,36.645-7.604C537.545,349.379,513.825,304.88,491.229,265.247z M259.872,168.461l-0.231-0.242
	c-0.233,0.687-0.464,1.393-0.697,2.08c-5.301,13.378-21.417,17.974-33.181,17.974c-13.138,0-26.738-3.231-32.717-17.277
	c-0.696-1.616-1.161-3.463-0.928-5.079h-0.233c-5.978-13.833,14.512-30.182,34.09-30.182
	C246.733,135.736,265.638,155.083,259.872,168.461z M348.134,165.917h-0.23c0.23,1.616-0.233,3.463-0.929,5.079
	c-5.96,14.046-19.58,17.277-32.699,17.277c-11.762,0-27.897-4.595-33.198-17.974c-0.233-0.687-0.465-1.393-0.697-2.08l-0.232,0.242
	c-5.766-13.378,13.117-32.726,33.897-32.726C333.586,135.736,354.132,152.084,348.134,165.917z"/>
<g>
	<path d="M225.975,199.563c0,0-1.285-0.164-3.695-0.472c-2.411-0.28-5.947-0.769-10.474-0.985c-1.131-0.043-2.326-0.062-3.573,0.014
		c-1.235,0.091-2.574,0.22-3.785,0.821c-0.59,0.308-1.111,0.817-1.282,1.488c-0.156,0.673-0.011,1.398,0.24,2.075
		c0.554,1.354,1.187,2.756,1.807,4.205c1.257,2.897,2.595,5.979,4.005,9.229c0.707,1.624,1.433,3.29,2.175,4.995
		c0.752,1.71,1.487,3.445,2.397,5.166c1.751,3.468,3.64,7.041,5.829,10.603c2.177,3.56,4.658,7.118,7.694,10.311
		c1.539,1.57,3.225,3.037,5.118,4.227c1.889,1.194,3.986,2.083,6.204,2.608c4.456,1.065,9.241,0.736,14.054,0.349
		c4.827-0.417,9.77-0.894,14.8-1.046c5.036-0.146,10.129,0.071,15.234,0.464c2.55,0.192,5.1,0.421,7.641,0.568
		c2.54,0.145,5.078,0.198,7.544-0.121c1.239-0.131,2.438-0.43,3.618-0.771c1.158-0.402,2.303-0.857,3.363-1.486
		c2.145-1.212,4.058-2.854,5.781-4.693c3.465-3.679,6.313-7.996,8.946-12.386c2.618-4.404,5.071-8.923,7.321-13.467
		c2.236-4.585,4.454-9.134,6.646-13.627c0.554-1.121,1.105-2.238,1.655-3.352l0.824-1.667c0.224-0.475,0.356-0.959,0.27-1.261
		c-0.065-0.611-1.291-1.047-2.387-1.199c-1.143-0.164-2.339-0.199-3.531-0.18c-4.79,0.114-9.541,0.759-14.17,1.328
		c-2.346,0.315-4.632,0.502-6.909,0.755c-2.273,0.234-4.515,0.484-6.737,0.673c-4.441,0.387-8.752,0.86-12.945,1.048
		c-2.094,0.124-4.152,0.246-6.173,0.366c-1.009,0.078-2.011,0.102-3.005,0.099c-0.992,0.009-1.976,0.019-2.948,0.028
		c-3.887,0.015-7.627,0.165-11.161-0.116c-1.769-0.091-3.493-0.18-5.168-0.266c-1.675-0.085-3.304-0.148-4.874-0.344
		c-3.144-0.323-6.085-0.625-8.806-0.905c-2.716-0.31-5.198-0.694-7.446-0.988c-4.497-0.588-8.014-1.164-10.416-1.525
		C227.255,199.759,225.975,199.563,225.975,199.563z M225.975,199.563c0,0,1.282,0.187,3.686,0.538
		c2.405,0.344,5.925,0.896,10.425,1.453c2.25,0.278,4.734,0.645,7.45,0.935c2.719,0.261,5.659,0.542,8.801,0.843
		c1.567,0.185,3.197,0.236,4.873,0.31c1.676,0.074,3.4,0.151,5.17,0.229c3.54,0.274,7.251,0.039,11.137-0.042
		c0.97-0.026,1.95-0.053,2.94-0.08c0.99-0.014,1.989-0.056,2.996-0.152c2.014-0.155,4.065-0.314,6.152-0.475
		c4.177-0.261,8.475-0.811,12.899-1.276c2.211-0.228,4.451-0.518,6.72-0.792c2.26-0.292,4.583-0.525,6.866-0.875
		c4.637-0.651,9.363-1.386,14.291-1.593c1.234-0.041,2.485-0.032,3.771,0.129c0.645,0.094,1.301,0.219,1.973,0.503
		c0.334,0.133,0.675,0.344,0.991,0.618c0.302,0.3,0.587,0.691,0.688,1.144c0.108,0.447,0.096,0.869,0.007,1.271
		c-0.046,0.207-0.1,0.419-0.152,0.542l-0.078,0.218c-0.005,0.021-0.089,0.215-0.077,0.182l-0.05,0.105l-0.794,1.683
		c-0.53,1.123-1.063,2.25-1.596,3.381c-2.156,4.511-4.34,9.078-6.54,13.68c-2.245,4.613-4.67,9.157-7.295,13.645
		c-2.645,4.465-5.493,8.894-9.126,12.788c-1.828,1.923-3.899,3.689-6.275,5.011c-1.175,0.683-2.449,1.184-3.734,1.616
		c-1.303,0.371-2.625,0.685-3.956,0.817c-2.661,0.323-5.3,0.242-7.882,0.078c-2.587-0.167-5.137-0.414-7.673-0.623
		c-5.063-0.435-10.094-0.652-15.058-0.584c-4.971,0.062-9.875,0.447-14.735,0.78c-4.838,0.299-9.753,0.567-14.426-0.632
		c-2.321-0.593-4.521-1.573-6.471-2.855c-1.957-1.279-3.669-2.827-5.217-4.462c-3.048-3.323-5.485-6.962-7.613-10.583
		c-2.138-3.619-3.972-7.245-5.663-10.745c-0.878-1.733-1.598-3.516-2.313-5.225c-0.726-1.712-1.436-3.385-2.127-5.016
		c-1.388-3.26-2.704-6.352-3.941-9.257c-0.613-1.458-1.23-2.848-1.782-4.228c-0.253-0.696-0.404-1.454-0.231-2.178
		c0.188-0.726,0.759-1.268,1.371-1.58c1.258-0.612,2.604-0.727,3.848-0.812c1.254-0.067,2.452-0.041,3.584,0.011
		c4.533,0.248,8.063,0.762,10.474,1.059C224.69,199.39,225.975,199.563,225.975,199.563z"/>
</g>
<g>
	<path d="M57.072,355.124c0,0-0.229,1.238-0.656,3.559c-0.416,2.323-0.989,5.736-1.617,10.094c-0.625,4.356-1.28,9.664-1.716,15.774
		c-0.421,6.108-0.671,13.022-0.365,20.541c0.329,7.509,1.191,15.651,3.277,23.991c2.065,8.324,5.358,16.877,10.483,24.678
		c2.563,3.892,5.59,7.567,9.055,10.875c0.889,0.802,1.781,1.605,2.676,2.411c0.94,0.753,1.882,1.508,2.828,2.264
		c2.008,1.392,4.027,2.789,6.053,4.193c1.019,0.704,2.041,1.41,3.063,2.117c1.008,0.737,2.107,1.294,3.159,1.951
		c2.126,1.269,4.258,2.541,6.394,3.815c0.539,0.312,1.058,0.654,1.613,0.94l1.669,0.851l3.34,1.704l3.344,1.706
		c1.114,0.569,2.22,1.158,3.385,1.621c9.121,4.058,18.505,7.876,27.86,10.924c2.329,0.808,4.708,1.454,7.043,2.185
		c1.171,0.354,2.34,0.709,3.505,1.063c1.165,0.354,2.348,0.633,3.516,0.951c2.341,0.618,4.668,1.233,6.979,1.843
		c2.33,0.533,4.643,1.063,6.937,1.588c1.147,0.261,2.29,0.521,3.428,0.78c1.145,0.223,2.286,0.445,3.42,0.666
		c2.27,0.444,4.518,0.884,6.741,1.319c2.235,0.374,4.446,0.744,6.63,1.109c2.186,0.357,4.341,0.745,6.484,1.004
		c4.286,0.57,8.456,1.124,12.488,1.66c2.019,0.261,4.003,0.518,5.951,0.771c0.487,0.063,0.972,0.125,1.454,0.188
		c0.483,0.039,0.964,0.078,1.442,0.116c0.957,0.077,1.904,0.154,2.842,0.229c7.491,0.642,14.417,1.06,20.535,1.498
		c3.061,0.211,5.925,0.407,8.574,0.589c2.651,0.076,5.087,0.146,7.286,0.208c8.805,0.275,13.836,0.434,13.836,0.434
		s-5.037-0.018-13.851-0.049c-2.205-0.014-4.646-0.029-7.304-0.046c-2.652-0.123-5.521-0.257-8.585-0.398
		c-6.133-0.298-13.037-0.557-20.602-1.126c-0.945-0.063-1.9-0.128-2.865-0.192c-0.482-0.032-0.967-0.065-1.454-0.098
		c-0.483-0.056-0.969-0.112-1.457-0.169c-1.951-0.226-3.939-0.456-5.961-0.689c-4.045-0.482-8.227-0.98-12.526-1.492
		c-2.156-0.231-4.325-0.592-6.525-0.92c-2.199-0.338-4.425-0.68-6.676-1.025c-2.238-0.417-4.501-0.839-6.786-1.265
		c-1.142-0.217-2.289-0.436-3.441-0.654c-1.145-0.255-2.295-0.512-3.45-0.769c-2.31-0.518-4.638-1.04-6.983-1.565
		c-2.327-0.604-4.671-1.211-7.029-1.822c-1.176-0.315-2.368-0.59-3.542-0.942c-1.174-0.35-2.352-0.701-3.533-1.053
		c-2.355-0.725-4.747-1.363-7.104-2.169c-9.513-3.06-18.82-6.791-28.113-10.883c-1.175-0.474-2.29-1.074-3.414-1.654l-3.373-1.739
		l-3.368-1.737l-1.682-0.868c-0.56-0.291-1.088-0.643-1.633-0.961c-2.165-1.306-4.324-2.607-6.478-3.906
		c-1.06-0.67-2.188-1.253-3.187-1.99c-1.02-0.712-2.038-1.423-3.054-2.132c-2.041-1.427-4.073-2.849-6.096-4.264
		c-0.969-0.783-1.935-1.563-2.898-2.342c-0.917-0.834-1.831-1.665-2.742-2.493c-3.549-3.419-6.646-7.214-9.257-11.218
		c-5.256-8.016-8.462-16.815-10.447-25.281c-2.002-8.49-2.759-16.721-2.989-24.29c-0.23-7.579,0.182-14.521,0.744-20.641
		c0.573-6.121,1.346-11.424,2.068-15.772c0.711-4.352,1.416-7.744,1.891-10.056C56.808,356.354,57.072,355.124,57.072,355.124z"/>
</g>
<g>
	<path d="M86.364,307.666l-29.069,47.947L42.56,379.461c-2.408,3.991-5.023,7.936-7.842,11.68c-2.835,3.744-5.867,7.372-9.404,10.55
		c-1.783,1.567-3.69,3.042-5.886,4.126c-1.098,0.535-2.278,0.964-3.538,1.152c-1.254,0.191-2.599,0.112-3.836-0.337
		c-1.234-0.46-2.303-1.254-3.161-2.176c-0.865-0.923-1.55-1.969-2.107-3.052c-1.145-2.162-1.843-4.468-2.411-6.775
		c-1.102-4.631-1.575-9.334-1.869-14.025c-0.054-1.173-0.132-2.347-0.16-3.521l-0.057-1.76c0.003-0.672,0.029-1.192,0.043-1.796
		l0.109-3.504l0.438-3.554c1.304-9.418,4.228-18.395,7.551-27.164c3.361-8.762,7.233-17.302,11.314-25.728
		c4.093-8.421,8.389-16.739,12.884-24.942c4.485-8.216,9.055-16.354,13.726-24.481l7.143-12.06l7.428-11.921l7.646-11.766
		l7.834-11.639c2.63-3.866,5.332-7.683,8.012-11.515c2.689-3.825,5.456-7.594,8.18-11.394c2.739-3.789,5.544-7.529,8.313-11.296
		l8.433-11.204c5.688-7.42,11.399-14.821,17.227-22.13c2.91-3.657,5.86-7.283,8.811-10.907l4.449-5.418l2.233-2.701
		c0.745-0.864,1.511-1.897,2.167-2.537l0.026-0.115l14.303-29.382l0,0.002c0.015-0.089,0.04-0.172,0.105-0.236
		c0.066-0.062,0.1-0.14,0.112-0.229c-0.011,0.089-0.044,0.168-0.109,0.232c-0.064,0.064-0.086,0.146-0.1,0.233l0,0.002
		l-13.828,29.607l0.025-0.114c-0.789,1.197-1.515,1.961-2.243,2.91l-2.189,2.736l-4.358,5.486c-2.891,3.669-5.78,7.339-8.629,11.041
		c-5.754,7.358-11.396,14.803-17.011,22.268l-8.323,11.27c-2.731,3.788-5.499,7.549-8.2,11.357
		c-2.686,3.819-5.415,7.609-8.065,11.452l-7.937,11.539l-7.785,11.64l-7.594,11.763l-7.362,11.893l-7.107,12.081
		c-4.617,8.089-9.174,16.261-13.62,24.462c-4.44,8.211-8.76,16.483-12.862,24.857c-4.089,8.379-7.966,16.864-11.326,25.545
		c-3.321,8.668-6.237,17.596-7.524,26.709l-0.438,3.399l-0.119,3.5l-0.048,1.707l0.052,1.742c0.024,1.162,0.098,2.32,0.148,3.48
		c0.275,4.629,0.733,9.262,1.784,13.732c0.544,2.221,1.194,4.432,2.225,6.413c0.992,1.981,2.44,3.765,4.368,4.511
		c1.937,0.729,4.184,0.265,6.174-0.7c2.011-0.969,3.854-2.354,5.586-3.853c3.449-3.041,6.477-6.59,9.31-10.264
		c2.834-3.698,5.425-7.526,7.881-11.515l14.984-23.692L86.364,307.666z"/>
</g>
<g>
	<path d="M122.273,493.865c0,0-0.362,0.487-1.04,1.4c-0.697,0.899-1.645,2.274-2.857,4.007c-1.146,1.776-2.582,3.922-3.822,6.574
		c-0.281,0.673-0.587,1.361-0.857,2.082c-0.216,0.735-0.517,1.476-0.632,2.268c-0.323,1.55-0.413,3.28,0.313,4.781
		c0.697,1.506,2.148,2.644,3.853,3.396c1.711,0.764,3.652,1.224,5.666,1.564c4.054,0.626,8.428,0.756,12.951,0.802
		c4.527,0.029,9.216-0.1,13.982-0.267c2.385-0.092,4.789-0.185,7.201-0.277c2.413-0.084,4.837-0.247,7.331-0.164
		c4.927,0.196,9.771,0.903,14.496,1.72c4.726,0.824,9.336,1.784,13.789,2.719c8.901,1.847,17.165,3.838,24.36,4.471
		c1.793,0.154,3.519,0.222,5.142,0.139c1.618-0.084,3.158-0.309,4.451-0.871c0.638-0.287,1.226-0.638,1.674-1.101
		c0.447-0.462,0.767-1.002,0.975-1.569c0.371-1.156,0.303-2.338,0.132-3.359c-0.372-2.06-1.054-3.607-1.503-4.643
		c-0.468-1.034-0.742-1.577-0.742-1.577s0.306,0.523,0.839,1.53c0.505,1.015,1.315,2.506,1.784,4.617
		c0.223,1.047,0.365,2.283,0.012,3.598c-0.202,0.646-0.54,1.287-1.032,1.842c-0.493,0.557-1.137,0.982-1.828,1.331
		c-2.839,1.324-6.341,1.368-9.984,1.175c-3.669-0.218-7.597-0.777-11.721-1.469c-4.125-0.693-8.45-1.52-12.904-2.43
		c-4.458-0.893-9.06-1.806-13.752-2.579c-4.688-0.769-9.478-1.411-14.252-1.565c-2.357-0.103-4.782,0.034-7.198,0.098
		c-2.417,0.07-4.824,0.141-7.212,0.21c-4.779,0.124-9.49,0.21-14.06,0.138c-4.568-0.053-9.005-0.341-13.18-1.1
		c-2.081-0.413-4.106-0.945-5.958-1.833c-1.832-0.868-3.533-2.237-4.326-4.091c-0.81-1.846-0.644-3.807-0.224-5.442
		c0.167-0.849,0.513-1.603,0.775-2.361c0.314-0.735,0.661-1.429,0.981-2.105c1.393-2.652,2.934-4.739,4.167-6.472
		c1.29-1.697,2.343-2.991,3.086-3.852C121.882,494.329,122.273,493.865,122.273,493.865z"/>
</g>
<g>
	<path d="M212.625,224.221c0,0-0.823,1.205-2.366,3.465c-1.575,2.235-3.938,5.495-7.277,9.37
		c-3.325,3.886-7.669,8.359-13.089,12.999c-5.392,4.677-11.939,9.38-19.086,14.426c-7.124,5.064-14.789,10.669-21.775,17.792
		c-7.011,7.082-13.23,15.66-18.354,25.252c-1.323,2.376-2.496,4.857-3.706,7.341c-0.59,1.25-1.129,2.529-1.699,3.799
		c-0.573,1.269-1.128,2.549-1.635,3.856c-0.522,1.301-1.046,2.605-1.572,3.913c-0.477,1.326-0.955,2.655-1.434,3.988
		c-0.942,2.685-1.959,5.368-2.852,8.089c-3.559,10.849-6.428,22.169-8.059,33.65c-1.671,11.472-1.971,23.148-0.549,34.466
		c1.334,11.338,4.636,22.176,8.68,32.271c1.99,5.068,4.302,9.912,6.561,14.652c2.254,4.751,4.968,9.02,8.05,12.94
		c6.157,7.821,13.305,14.12,20.27,19.349c3.479,2.63,6.94,4.985,10.292,7.13c3.344,2.158,6.587,4.098,9.683,5.838
		c6.179,3.504,11.748,6.233,16.372,8.391c9.271,4.278,14.784,6.228,14.784,6.228s-1.387-0.455-3.953-1.409
		c-2.563-0.96-6.31-2.408-10.99-4.467c-4.672-2.072-10.304-4.699-16.57-8.097c-6.267-3.385-13.205-7.503-20.283-12.718
		c-7.078-5.188-14.375-11.458-20.737-19.347c-3.168-3.924-6.06-8.373-8.375-13.119c-1.142-2.382-2.389-4.744-3.456-7.225
		c-1.108-2.461-2.246-4.937-3.24-7.503c-4.124-10.178-7.52-21.163-8.921-32.678c-1.487-11.492-1.233-23.356,0.424-34.98
		c1.699-11.63,4.632-23.016,8.278-33.987c0.909-2.734,1.932-5.401,2.886-8.086c0.49-1.345,0.978-2.686,1.464-4.023
		c0.536-1.318,1.07-2.633,1.603-3.943c0.516-1.317,1.082-2.609,1.666-3.89c0.581-1.28,1.13-2.57,1.732-3.831
		c1.233-2.509,2.43-5.013,3.779-7.415c2.645-4.826,5.469-9.471,8.67-13.709c3.169-4.257,6.587-8.185,10.173-11.741
		c7.17-7.141,14.969-12.699,22.156-17.685c7.199-4.987,13.8-9.532,19.253-14.079c5.478-4.512,9.885-8.881,13.273-12.69
		c3.392-3.809,5.853-6.978,7.478-9.179C211.771,225.405,212.625,224.221,212.625,224.221z"/>
</g>
<g>
	<path d="M259.872,168.461c0.764-2.085,0.969-4.3,0.73-6.457c-0.257-2.159-0.99-4.231-1.964-6.157
		c-1.949-3.87-4.885-7.177-8.197-9.942c-3.343-2.741-7.092-5.002-11.119-6.552c-2.009-0.778-4.069-1.422-6.172-1.869
		c-2.101-0.459-4.245-0.689-6.385-0.736l-0.778-0.024l-0.827,0.019c-0.553,0.01-1.108,0.019-1.627,0.068
		c-1.051,0.06-2.126,0.192-3.191,0.344c-2.131,0.313-4.233,0.83-6.293,1.476c-4.126,1.28-8.062,3.191-11.646,5.616
		c-3.55,2.449-6.798,5.468-8.993,9.192c-1.097,1.849-1.929,3.884-2.232,6.032c-0.283,2.144-0.049,4.37,0.717,6.443l-0.01-0.006
		l0.233,0.01l-0.233,0.01c-0.004,0-0.008-0.003-0.01-0.006c-0.968-1.99-1.395-4.26-1.234-6.508c0.164-2.25,0.888-4.439,1.906-6.451
		c2.101-4.019,5.342-7.323,8.957-9.981c3.623-2.677,7.703-4.697,11.969-6.139c2.139-0.711,4.338-1.251,6.571-1.601
		c1.118-0.167,2.234-0.314,3.386-0.387c0.581-0.056,1.129-0.068,1.679-0.083l0.827-0.024l0.876,0.022
		c4.545,0.108,9.032,1.14,13.208,2.85c4.172,1.723,8.061,4.123,11.422,7.119c3.359,2.98,6.252,6.567,8.068,10.702
		c0.88,2.07,1.495,4.273,1.61,6.52C261.242,164.198,260.828,166.474,259.872,168.461z"/>
</g>
<g>
	<path d="M192.118,165.917l-0.015-0.222c0-0.004,0.003-0.009,0.006-0.012c1.147-0.967,2.405-1.815,3.729-2.542
		c1.321-0.73,2.688-1.384,4.084-1.965c1.402-0.563,2.828-1.075,4.273-1.518c0.72-0.232,1.447-0.439,2.179-0.625
		c0.73-0.199,1.462-0.386,2.2-0.548c2.943-0.701,5.938-1.156,8.941-1.497c1.503-0.168,3.014-0.258,4.524-0.344
		c1.512-0.065,3.024-0.101,4.539-0.094c1.514,0.033,3.027,0.085,4.538,0.202c0.756,0.041,1.51,0.121,2.264,0.197
		c0.754,0.068,1.508,0.152,2.257,0.274c1.502,0.206,2.995,0.483,4.478,0.8c1.486,0.309,2.953,0.708,4.404,1.153
		c0.721,0.243,1.445,0.468,2.16,0.725c0.708,0.276,1.421,0.54,2.12,0.834l2.068,0.956l2.007,1.075l1.918,1.223
		c0.609,0.453,1.227,0.889,1.823,1.352c0.57,0.498,1.161,0.967,1.708,1.484c0.518,0.551,1.063,1.067,1.549,1.638
		c-0.557-0.501-1.167-0.941-1.743-1.411c-0.592-0.451-1.217-0.858-1.821-1.287c-0.629-0.395-1.275-0.761-1.908-1.141l-1.979-1.002
		l-2.023-0.898l-2.069-0.782l-2.102-0.687c-0.705-0.213-1.421-0.395-2.129-0.594c-1.432-0.354-2.871-0.671-4.322-0.938
		c-1.45-0.263-2.91-0.488-4.378-0.642c-1.464-0.181-2.937-0.31-4.41-0.399c-1.474-0.099-2.952-0.133-4.43-0.151
		c-1.479-0.022-2.957-0.002-4.436,0.046c-1.478,0.063-2.954,0.156-4.429,0.277c-1.475,0.119-2.949,0.265-4.416,0.466
		c-0.736,0.086-1.466,0.205-2.197,0.32c-0.734,0.101-1.463,0.227-2.192,0.361c-1.459,0.252-2.907,0.568-4.347,0.916
		c-1.444,0.332-2.871,0.735-4.283,1.185c-1.418,0.432-2.814,0.938-4.179,1.526c-1.361,0.597-2.678,1.287-3.952,2.08l0.006-0.012
		L192.118,165.917z"/>
</g>
<g>
	<path d="M403.429,168.461c0,0-0.189-0.399-0.557-1.173c-0.37-0.773-0.928-1.915-1.551-3.453c-1.322-3.045-3.054-7.592-5.179-13.408
		c-2.121-5.818-4.579-12.923-7.324-21.099c-2.749-8.175-5.775-17.421-8.943-27.552c-0.396-1.267-0.796-2.546-1.2-3.839
		c-0.456-1.265-0.916-2.542-1.381-3.832c-0.958-2.582-1.957-5.199-3.025-7.846c-2.14-5.288-4.534-10.68-7.292-16.069
		c-5.491-10.77-12.556-21.561-21.835-30.899c-4.642-4.649-9.813-8.939-15.535-12.54c-5.706-3.62-11.897-6.62-18.395-8.931
		c-13.013-4.655-27.139-6.453-41.182-6.458c-7.064,0.02-14.048,0.445-20.976,1.479c-6.913,1.027-13.709,2.654-20.208,4.967
		c-6.499,2.308-12.69,5.305-18.398,8.922c-5.724,3.598-10.9,7.882-15.543,12.53c-9.284,9.333-16.354,20.121-21.855,30.884
		c-2.762,5.387-5.161,10.777-7.305,16.063c-1.07,2.645-2.074,5.264-3.034,7.846c-0.467,1.29-0.93,2.568-1.388,3.833
		c-0.417,1.288-0.831,2.563-1.24,3.824c-1.64,5.046-3.212,9.881-4.707,14.48c-1.516,4.579-2.817,8.988-4.11,13.098
		c-2.562,8.232-4.812,15.412-6.921,21.237c-1.029,2.92-2.044,5.495-2.914,7.736c-0.948,2.211-1.707,4.112-2.405,5.616
		c-1.438,2.989-2.204,4.583-2.204,4.583s0.739-1.606,2.125-4.619c0.671-1.515,1.397-3.428,2.306-5.651
		c0.83-2.254,1.799-4.841,2.777-7.775c2.006-5.853,4.13-13.061,6.55-21.334c1.224-4.137,2.444-8.55,3.889-13.179
		c1.445-4.615,2.964-9.467,4.55-14.53c0.397-1.266,0.798-2.544,1.204-3.835c0.451-1.285,0.906-2.582,1.366-3.892
		c0.939-2.601,1.922-5.242,2.972-7.911c2.104-5.335,4.466-10.784,7.2-16.244c5.441-10.905,12.477-21.931,21.926-31.443
		c4.71-4.746,9.975-9.131,15.802-12.82c5.811-3.709,12.12-6.787,18.735-9.16c13.24-4.779,27.611-6.643,41.807-6.684
		c14.21,0.049,28.558,1.914,41.804,6.699c6.614,2.375,12.921,5.457,18.73,9.168c5.825,3.691,11.085,8.083,15.794,12.83
		c9.444,9.516,16.466,20.551,21.902,31.458c2.729,5.462,5.087,10.913,7.187,16.249c1.047,2.668,2.029,5.314,2.966,7.917
		c0.458,1.311,0.912,2.61,1.361,3.896c0.392,1.295,0.778,2.578,1.162,3.847c6.185,20.294,11.47,37.171,15.518,48.868
		c2.025,5.846,3.679,10.422,4.946,13.483c0.596,1.547,1.135,2.7,1.491,3.479C403.246,168.059,403.429,168.461,403.429,168.461z"/>
</g>
<g>
	<path d="M482.946,355.124c0,0,0.264,1.23,0.759,3.539c0.473,2.312,1.176,5.705,1.885,10.056c0.72,4.35,1.49,9.652,2.063,15.773
		c0.561,6.119,0.973,13.062,0.743,20.641c-0.229,7.569-0.983,15.8-2.981,24.291c-1.981,8.467-5.182,17.268-10.436,25.286
		c-2.609,4.005-5.705,7.8-9.253,11.22c-0.911,0.829-1.825,1.66-2.742,2.494c-0.963,0.778-1.93,1.56-2.897,2.342
		c-2.024,1.413-4.059,2.833-6.102,4.259c-1.017,0.708-2.035,1.418-3.056,2.129c-1,0.736-2.128,1.319-3.188,1.988
		c-2.154,1.297-4.314,2.599-6.479,3.902c-0.545,0.318-1.074,0.668-1.634,0.961l-1.682,0.868l-3.368,1.737l-3.372,1.739
		c-1.124,0.58-2.239,1.181-3.413,1.655c-9.286,4.105-18.6,7.829-28.111,10.886c-2.358,0.805-4.749,1.443-7.105,2.168
		c-1.181,0.352-2.357,0.702-3.532,1.052c-1.174,0.352-2.365,0.626-3.542,0.941c-2.357,0.61-4.701,1.218-7.028,1.82
		c-2.346,0.525-4.674,1.048-6.983,1.565c-1.154,0.257-2.305,0.513-3.449,0.768c-1.152,0.22-2.3,0.438-3.441,0.655
		c-2.284,0.426-4.547,0.847-6.786,1.265c-2.25,0.346-4.476,0.688-6.675,1.025c-2.2,0.328-4.368,0.689-6.524,0.921
		c-4.3,0.513-8.481,1.012-12.526,1.494c-2.021,0.234-4.01,0.465-5.961,0.691c-0.487,0.057-0.973,0.112-1.456,0.169
		c-0.487,0.032-0.972,0.065-1.454,0.098c-0.965,0.064-1.92,0.129-2.865,0.192c-7.565,0.567-14.469,0.828-20.602,1.125
		c-3.064,0.143-5.933,0.275-8.585,0.398c-2.658,0.017-5.099,0.032-7.304,0.047c-8.814,0.03-13.851,0.048-13.851,0.048
		s5.031-0.157,13.836-0.434c2.199-0.063,4.635-0.132,7.286-0.207c2.648-0.182,5.514-0.379,8.574-0.589
		c6.116-0.438,13.043-0.857,20.534-1.498c0.938-0.076,1.885-0.152,2.842-0.229c0.479-0.038,0.959-0.077,1.442-0.116
		c0.482-0.062,0.967-0.125,1.454-0.188c1.947-0.253,3.932-0.511,5.95-0.772c4.033-0.537,8.202-1.092,12.488-1.662
		c2.145-0.259,4.299-0.648,6.484-1.004c2.185-0.366,4.396-0.736,6.63-1.111c2.224-0.435,4.472-0.874,6.741-1.318
		c1.135-0.222,2.274-0.443,3.42-0.667c1.138-0.259,2.28-0.519,3.428-0.779c2.294-0.525,4.607-1.054,6.938-1.587
		c2.311-0.61,4.638-1.224,6.979-1.842c1.168-0.318,2.352-0.597,3.516-0.951c1.166-0.353,2.334-0.707,3.506-1.062
		c2.335-0.729,4.715-1.376,7.044-2.183c9.356-3.047,18.741-6.854,27.857-10.926c1.165-0.464,2.271-1.054,3.385-1.623l3.344-1.706
		l3.341-1.704l1.669-0.852c0.554-0.286,1.074-0.628,1.612-0.939c2.138-1.273,4.271-2.545,6.396-3.813
		c1.053-0.656,2.151-1.213,3.161-1.949c1.023-0.706,2.045-1.411,3.065-2.114c2.027-1.402,4.047-2.798,6.057-4.187
		c0.944-0.757,1.887-1.512,2.827-2.265c0.895-0.806,1.786-1.609,2.675-2.411c3.464-3.309,6.491-6.985,9.052-10.878
		c5.121-7.803,8.41-16.357,10.472-24.682c2.082-8.341,2.942-16.483,3.27-23.993c0.306-7.519,0.056-14.432-0.364-20.541
		c-0.436-6.11-1.087-11.418-1.711-15.775c-0.625-4.357-1.196-7.771-1.61-10.094C483.174,356.362,482.946,355.124,482.946,355.124z"
		/>
</g>
<g>
	<path fill="none" d="M393.756,127.899"/>
</g>
<g>
	<path d="M453.693,307.666l29.8,47.487l14.96,23.707c2.444,3.994,5.061,7.802,7.895,11.502c2.838,3.669,5.87,7.215,9.321,10.253
		c1.733,1.496,3.578,2.881,5.59,3.848c1.99,0.964,4.238,1.428,6.174,0.697c1.927-0.747,3.373-2.532,4.363-4.515
		c1.027-1.982,1.676-4.194,2.218-6.415c1.045-4.472,1.498-9.105,1.77-13.734c0.049-1.16,0.121-2.318,0.145-3.48l0.05-1.742
		l-0.048-1.708l-0.118-3.5l-0.436-3.399c-1.282-9.113-4.198-18.041-7.518-26.709c-3.358-8.681-7.234-17.166-11.323-25.544
		c-4.102-8.374-8.421-16.646-12.86-24.856c-4.445-8.201-9.003-16.373-13.619-24.462l-7.106-12.08l-7.362-11.893l-7.594-11.762
		l-7.784-11.64l-7.938-11.538c-2.65-3.843-5.379-7.632-8.064-11.452c-2.701-3.809-5.469-7.569-8.2-11.357l-8.323-11.269
		c-5.613-7.464-11.255-14.909-17.01-22.267c-2.849-3.701-5.737-7.371-8.628-11.04l-4.359-5.485l-2.188-2.736
		c-0.729-0.949-1.454-1.713-2.243-2.91l0.026,0.115l-13.808-29.607l-0.001-0.002l-0.037-0.131c-0.022-0.038-0.061-0.067-0.091-0.102
		l-0.098-0.099l-0.041-0.133l0.043,0.131l0.099,0.097c0.03,0.034,0.069,0.063,0.094,0.102l0.041,0.135l-0.001-0.002l14.282,29.382
		l0.026,0.115c0.655,0.639,1.422,1.672,2.166,2.537l2.233,2.701l4.449,5.417c2.951,3.624,5.9,7.25,8.811,10.907
		c5.828,7.309,11.539,14.709,17.227,22.128l8.433,11.204c2.769,3.767,5.573,7.507,8.313,11.296
		c2.724,3.799,5.489,7.569,8.179,11.394c2.681,3.831,5.382,7.648,8.012,11.514l7.834,11.638l7.646,11.766l7.428,11.92l7.144,12.06
		c4.671,8.127,9.239,16.265,13.725,24.479c4.494,8.203,8.79,16.521,12.883,24.941c4.08,8.426,7.951,16.966,11.312,25.728
		c3.321,8.77,6.245,17.746,7.545,27.165l0.436,3.554l0.108,3.504l0.043,1.794l-0.056,1.761c-0.027,1.173-0.104,2.347-0.157,3.521
		c-0.29,4.69-0.759,9.395-1.854,14.026c-0.565,2.308-1.262,4.614-2.403,6.778c-0.557,1.083-1.24,2.129-2.104,3.053
		c-0.857,0.923-1.925,1.719-3.158,2.179c-1.237,0.45-2.583,0.53-3.836,0.34c-1.261-0.188-2.44-0.616-3.539-1.15
		c-2.196-1.083-4.105-2.556-5.889-4.122c-3.54-3.174-6.575-6.799-9.416-10.537c-2.817-3.742-5.461-7.673-7.857-11.67l-14.711-23.862
		L453.693,307.666z"/>
</g>
<g>
	<path d="M417.746,493.865c0,0,0.391,0.464,1.124,1.334c0.744,0.86,1.797,2.154,3.087,3.851c1.232,1.733,2.774,3.82,4.166,6.472
		c0.321,0.677,0.668,1.37,0.981,2.105c0.263,0.759,0.609,1.513,0.776,2.361c0.42,1.636,0.586,3.596-0.223,5.441
		c-0.793,1.854-2.493,3.225-4.325,4.093c-1.851,0.888-3.876,1.42-5.957,1.833c-4.175,0.76-8.612,1.047-13.18,1.1
		c-4.569,0.072-9.28-0.014-14.059-0.138c-2.389-0.069-4.796-0.14-7.212-0.211c-2.417-0.063-4.841-0.199-7.198-0.096
		c-4.774,0.154-9.563,0.797-14.252,1.565c-4.691,0.773-9.294,1.687-13.751,2.579c-4.455,0.91-8.779,1.735-12.904,2.43
		c-4.124,0.69-8.051,1.25-11.72,1.469c-3.644,0.192-7.146,0.148-9.984-1.177c-0.69-0.348-1.335-0.773-1.828-1.329
		c-0.491-0.555-0.83-1.195-1.032-1.842c-0.355-1.313-0.214-2.55,0.008-3.597c0.468-2.111,1.276-3.604,1.781-4.618
		c0.532-1.008,0.838-1.531,0.838-1.531s-0.273,0.543-0.741,1.577c-0.447,1.036-1.129,2.584-1.499,4.645
		c-0.171,1.021-0.237,2.202,0.135,3.358c0.208,0.567,0.528,1.107,0.976,1.569c0.449,0.462,1.037,0.813,1.675,1.1
		c1.293,0.562,2.833,0.787,4.45,0.871c1.623,0.083,3.349,0.016,5.142-0.139c7.195-0.633,15.458-2.623,24.359-4.47
		c4.452-0.935,9.063-1.895,13.788-2.719c4.726-0.816,9.568-1.523,14.495-1.721c2.493-0.083,4.919,0.079,7.331,0.164
		c2.413,0.093,4.816,0.186,7.201,0.277c4.767,0.167,9.455,0.296,13.981,0.267c4.523-0.046,8.897-0.176,12.951-0.802
		c2.014-0.341,3.954-0.801,5.666-1.564c1.704-0.754,3.154-1.891,3.852-3.397c0.724-1.501,0.634-3.232,0.311-4.781
		c-0.115-0.792-0.417-1.532-0.632-2.268c-0.271-0.721-0.577-1.409-0.857-2.081c-1.241-2.652-2.676-4.798-3.822-6.574
		c-1.213-1.732-2.16-3.107-2.857-4.007C418.107,494.353,417.746,493.865,417.746,493.865z"/>
</g>
<g>
	<path d="M326.929,223.312c0,0,0.843,1.196,2.423,3.44c1.602,2.227,4.037,5.429,7.39,9.291c3.35,3.86,7.719,8.293,13.174,12.862
		c5.423,4.611,12.019,9.203,19.235,14.201c7.204,4.999,15.054,10.521,22.3,17.624c3.623,3.538,7.082,7.448,10.294,11.692
		c3.213,4.246,6.095,8.87,8.774,13.695c2.707,4.817,5.049,9.923,7.271,15.143c0.535,1.313,1.071,2.631,1.609,3.952
		c0.562,1.359,0.989,2.682,1.492,4.029c0.968,2.687,1.94,5.386,2.917,8.097c3.639,11.006,6.648,22.402,8.377,34.062
		c1.696,11.649,1.987,23.545,0.529,35.071c-1.374,11.548-4.711,22.583-8.841,32.793c-0.526,1.273-1.009,2.562-1.565,3.809
		c-0.559,1.246-1.113,2.486-1.667,3.722c-1.068,2.487-2.301,4.864-3.449,7.252c-2.313,4.767-5.188,9.232-8.358,13.177
		c-6.357,7.931-13.676,14.219-20.766,19.428c-3.546,2.616-7.056,4.967-10.474,7.066c-3.409,2.115-6.713,4.003-9.858,5.695
		c-6.283,3.407-11.929,6.044-16.614,8.12c-4.691,2.065-8.449,3.517-11.019,4.479c-2.573,0.957-3.964,1.413-3.964,1.413
		s5.528-1.953,14.824-6.243c4.637-2.162,10.22-4.9,16.415-8.415c3.103-1.746,6.356-3.688,9.707-5.856
		c3.36-2.152,6.831-4.512,10.316-7.154c6.977-5.25,14.146-11.566,20.297-19.428c3.08-3.934,5.786-8.233,8.034-12.998
		c1.106-2.389,2.315-4.764,3.371-7.231c0.544-1.227,1.09-2.459,1.639-3.698c0.548-1.238,1.02-2.514,1.536-3.777
		c4.05-10.126,7.293-21.012,8.601-32.383c1.393-11.351,1.058-23.06-0.653-34.558c-1.659-11.512-4.605-22.841-8.155-33.724
		c-0.966-2.714-1.928-5.416-2.885-8.105c-0.49-1.329-0.938-2.721-1.46-3.987c-0.527-1.311-1.055-2.618-1.579-3.922
		c-2.18-5.177-4.478-10.237-7.132-15.001c-2.62-4.779-5.469-9.328-8.568-13.556c-3.114-4.216-6.475-8.104-10.008-11.636
		c-7.062-7.085-14.782-12.657-21.927-17.737c-7.169-5.059-13.713-9.81-19.074-14.553c-5.396-4.697-9.7-9.234-12.988-13.17
		c-3.298-3.928-5.635-7.22-7.187-9.48C327.74,224.529,326.929,223.312,326.929,223.312z"/>
</g>
<g>
	<path d="M280.38,168.22l-0.222,0.252c-0.005,0.006-0.015,0.007-0.021,0.001l-0.004-0.006c-0.962-1.997-1.364-4.266-1.247-6.508
		c0.116-2.249,0.73-4.453,1.609-6.523c1.82-4.136,4.713-7.723,8.073-10.704c3.362-2.997,7.253-5.393,11.426-7.116
		c4.178-1.706,8.664-2.738,13.209-2.846l0.877-0.021l0.827,0.024c0.55,0.015,1.099,0.026,1.679,0.083
		c1.152,0.074,2.269,0.22,3.387,0.388c2.233,0.351,4.433,0.89,6.57,1.604c4.267,1.443,8.346,3.464,11.969,6.141
		c3.615,2.657,6.857,5.959,8.961,9.978c1.019,2.011,1.745,4.199,1.908,6.45c0.16,2.248-0.269,4.518-1.238,6.507
		c-0.002,0.004-0.006,0.006-0.01,0.006l-0.23-0.01l0.23-0.01l-0.01,0.006c0.77-2.072,1.005-4.298,0.723-6.442
		c-0.302-2.148-1.135-4.183-2.233-6.032c-2.197-3.724-5.447-6.74-8.998-9.189c-3.585-2.424-7.521-4.335-11.646-5.618
		c-2.061-0.645-4.162-1.164-6.293-1.477c-1.065-0.152-2.14-0.285-3.191-0.345c-0.519-0.049-1.074-0.058-1.627-0.069l-0.827-0.018
		l-0.778,0.025c-2.141,0.047-4.284,0.276-6.385,0.735c-2.104,0.447-4.164,1.088-6.173,1.869c-4.027,1.547-7.775,3.812-11.117,6.552
		c-3.312,2.765-6.246,6.074-8.189,9.945c-0.974,1.925-1.705,3.997-1.961,6.154c-0.242,2.152-0.025,4.375,0.734,6.451l-0.024-0.004
		L280.38,168.22z"/>
</g>
<g>
	<path d="M347.903,165.917l-0.015-0.222l0.006,0.012c-1.27-0.787-2.579-1.476-3.935-2.068c-1.357-0.587-2.747-1.089-4.159-1.522
		c-1.405-0.448-2.824-0.85-4.262-1.183c-1.433-0.346-2.873-0.662-4.326-0.916c-1.449-0.265-2.908-0.484-4.367-0.683
		c-1.46-0.2-2.927-0.348-4.395-0.471c-1.468-0.122-2.937-0.217-4.408-0.284c-1.472-0.044-2.943-0.074-4.414-0.051
		c-1.471,0.012-2.943,0.042-4.41,0.139c-1.469,0.073-2.932,0.22-4.391,0.383c-1.462,0.151-2.915,0.372-4.361,0.622
		c-1.445,0.262-2.878,0.574-4.307,0.912l-2.123,0.583l-2.096,0.675c-0.691,0.242-1.374,0.512-2.063,0.768
		c-0.682,0.273-1.343,0.592-2.021,0.879c-0.67,0.303-1.316,0.653-1.979,0.979c-0.649,0.348-1.271,0.743-1.912,1.114
		c-0.621,0.399-1.216,0.838-1.831,1.256l-1.755,1.379l1.564-1.609c0.57-0.483,1.131-0.986,1.719-1.454
		c0.608-0.439,1.204-0.905,1.829-1.325c0.639-0.398,1.266-0.823,1.92-1.201c0.664-0.355,1.326-0.724,2.004-1.056
		c0.687-0.313,1.369-0.641,2.063-0.941l2.114-0.822l2.152-0.712l2.181-0.616c0.731-0.191,1.472-0.339,2.208-0.511
		c1.479-0.305,2.965-0.577,4.46-0.779c0.746-0.123,1.497-0.191,2.247-0.266c0.75-0.082,1.501-0.148,2.254-0.19
		c1.504-0.115,3.011-0.162,4.517-0.189c1.508-0.008,3.013,0.038,4.518,0.099c1.503,0.09,3.006,0.183,4.502,0.351
		c2.99,0.345,5.97,0.803,8.897,1.504c1.466,0.341,2.923,0.719,4.358,1.174c1.438,0.444,2.855,0.955,4.252,1.515
		c1.389,0.581,2.749,1.231,4.063,1.961c1.317,0.723,2.568,1.569,3.711,2.531c0.004,0.002,0.006,0.008,0.006,0.012L347.903,165.917z"
		/>
</g>
<g>
	<path d="M347.903,165.917c0.226,1.811-0.284,3.626-1.001,5.276c-0.394,0.814-0.766,1.64-1.178,2.445
		c-0.475,0.772-0.917,1.566-1.417,2.32c-0.554,0.716-1.045,1.485-1.642,2.168l-0.911,1.011c-0.297,0.345-0.608,0.675-0.956,0.969
		c-0.677,0.605-1.321,1.252-2.072,1.768l-1.093,0.818c-0.376,0.255-0.772,0.479-1.155,0.726c-0.757,0.51-1.568,0.923-2.383,1.333
		c-0.798,0.448-1.662,0.745-2.497,1.114c-0.843,0.352-1.721,0.602-2.582,0.908c-0.877,0.248-1.758,0.489-2.644,0.709
		c-1.781,0.394-3.58,0.72-5.394,0.926c-1.812,0.213-3.633,0.356-5.455,0.407c-1.858,0.085-3.62,0.039-5.488-0.076
		c-0.921-0.055-1.827-0.175-2.743-0.261c-0.908-0.132-1.817-0.266-2.724-0.418c-1.805-0.349-3.604-0.753-5.362-1.319
		c-1.757-0.563-3.494-1.213-5.164-2.023c-0.836-0.403-1.675-0.801-2.467-1.295l-1.203-0.711c-0.39-0.256-0.765-0.536-1.147-0.804
		c-0.378-0.274-0.767-0.535-1.137-0.819l-1.069-0.913c-0.736-0.583-1.379-1.27-2.027-1.951c-1.296-1.361-2.416-2.897-3.349-4.536
		c-0.262-0.395-0.462-0.821-0.652-1.253l-0.591-1.286c-0.098-0.235-0.198-0.382-0.292-0.689l-0.214-0.645l-0.427-1.289l-0.2-0.604
		l0.437-0.391c0.575-0.514,1.142-1.04,1.726-1.542c0.614-0.463,1.212-0.951,1.842-1.39c0.648-0.411,1.281-0.847,1.94-1.235
		c0.672-0.365,1.331-0.755,2.013-1.097c0.69-0.322,1.372-0.666,2.069-0.968c0.706-0.283,1.406-0.581,2.116-0.849l2.154-0.726
		l2.184-0.618l2.203-0.52c0.736-0.161,1.479-0.287,2.219-0.432c1.483-0.253,2.972-0.475,4.467-0.625
		c0.745-0.094,1.494-0.149,2.242-0.204c0.747-0.064,1.496-0.112,2.245-0.136c1.497-0.079,2.996-0.09,4.492-0.082
		c1.497,0.012,2.992,0.078,4.485,0.158c1.491,0.107,2.98,0.229,4.465,0.402c1.483,0.175,2.963,0.375,4.435,0.629
		c1.471,0.252,2.939,0.515,4.395,0.844c1.457,0.314,2.905,0.678,4.336,1.095c1.434,0.407,2.85,0.877,4.25,1.384
		c1.399,0.512,2.773,1.094,4.107,1.758c1.334,0.663,2.612,1.436,3.814,2.314l0.001,0.001L347.903,165.917z M347.903,165.917
		l-0.001-0.222v0c-1.209-0.869-2.491-1.632-3.83-2.284c-1.337-0.653-2.714-1.224-4.114-1.725c-1.4-0.502-2.823-0.945-4.264-1.314
		c-1.437-0.384-2.888-0.714-4.348-0.995c-1.458-0.291-2.925-0.538-4.399-0.724c-1.473-0.198-2.951-0.342-4.431-0.461
		c-1.48-0.117-2.964-0.183-4.446-0.233c-1.483-0.024-2.965-0.035-4.446,0.009c-1.48,0.048-2.961,0.113-4.435,0.247
		c-0.737,0.051-1.473,0.126-2.207,0.216c-0.734,0.082-1.469,0.163-2.197,0.283c-1.463,0.203-2.913,0.474-4.354,0.776
		c-0.717,0.169-1.438,0.319-2.149,0.502l-2.124,0.585l-2.092,0.677l-2.055,0.771l-2.011,0.86c-0.662,0.304-1.304,0.647-1.955,0.968
		c-0.642,0.339-1.257,0.725-1.886,1.083c-0.615,0.38-1.2,0.805-1.802,1.204c-0.579,0.429-1.138,0.882-1.708,1.32l-1.594,1.446
		l0.236-0.995l0.436,1.285l0.219,0.643c0.031,0.129,0.168,0.374,0.246,0.555l0.553,1.177c0.177,0.396,0.362,0.787,0.607,1.146
		c0.878,1.491,1.882,2.915,3.073,4.181c0.596,0.634,1.183,1.277,1.867,1.823l0.988,0.858c0.344,0.269,0.707,0.515,1.06,0.774
		c0.356,0.253,0.705,0.519,1.069,0.763l1.126,0.683c0.734,0.483,1.523,0.877,2.31,1.278c1.568,0.805,3.217,1.464,4.893,2.043
		c1.68,0.569,3.395,1.044,5.131,1.442l2.627,0.503c0.883,0.115,1.768,0.267,2.65,0.352c1.739,0.175,3.599,0.292,5.359,0.273
		c1.797,0.016,3.592-0.059,5.381-0.202c1.791-0.137,3.568-0.391,5.335-0.714c0.877-0.185,1.751-0.389,2.624-0.601
		c0.854-0.27,1.73-0.484,2.57-0.799c0.833-0.332,1.698-0.594,2.498-1.005c0.817-0.375,1.634-0.752,2.399-1.228
		c0.388-0.227,0.782-0.446,1.16-0.688l1.099-0.785c0.756-0.494,1.407-1.12,2.093-1.706c0.352-0.285,0.667-0.605,0.97-0.94
		l0.928-0.985c0.606-0.667,1.118-1.416,1.677-2.125c0.505-0.748,0.951-1.535,1.43-2.301c0.419-0.801,0.797-1.625,1.196-2.436
		C347.592,169.536,348.115,167.731,347.903,165.917z"/>
</g>
<g>
	<path d="M259.64,168.22c-0.287,0.861-0.467,1.747-0.843,2.587l-0.534,1.248c-0.172,0.419-0.35,0.835-0.598,1.222
		c-0.88,1.604-1.918,3.122-3.146,4.478c-0.614,0.679-1.223,1.367-1.928,1.954l-1.023,0.921c-0.356,0.288-0.729,0.554-1.094,0.832
		c-0.369,0.272-0.73,0.558-1.107,0.819l-1.165,0.733c-0.763,0.516-1.581,0.932-2.399,1.349c-1.632,0.841-3.338,1.528-5.07,2.131
		c-1.735,0.599-3.51,1.068-5.3,1.471l-2.706,0.502c-0.91,0.114-1.817,0.265-2.731,0.347c-1.824,0.172-3.676,0.278-5.501,0.25
		c-1.798,0.015-3.676-0.097-5.491-0.268c-1.83-0.166-3.651-0.453-5.462-0.811c-0.901-0.203-1.799-0.426-2.695-0.658
		c-0.881-0.291-1.779-0.525-2.646-0.864c-0.86-0.355-1.748-0.641-2.575-1.079c-0.843-0.401-1.684-0.807-2.474-1.312
		c-0.4-0.243-0.81-0.47-1.201-0.728l-1.139-0.825c-0.783-0.521-1.459-1.177-2.169-1.793c-0.727-0.599-1.306-1.35-1.964-2.02
		c-0.626-0.7-1.153-1.481-1.732-2.221c-0.525-0.776-0.991-1.591-1.487-2.387c-0.438-0.826-0.817-1.682-1.225-2.523
		c-0.228-0.5-0.335-0.869-0.509-1.31c-0.154-0.435-0.268-0.962-0.398-1.44c-0.108-0.492-0.141-0.994-0.209-1.491
		c-0.02-0.509,0.029-1.037,0.052-1.552l-0.01,0.136l0.001-0.222l0.002-0.491l0.378-0.272c1.271-0.916,2.604-1.705,3.981-2.376
		s2.785-1.253,4.213-1.763c1.429-0.508,2.873-0.965,4.332-1.352c1.456-0.399,2.925-0.744,4.402-1.038
		c1.475-0.307,2.96-0.558,4.449-0.771c1.488-0.22,2.982-0.392,4.479-0.527c1.499-0.126,3-0.2,4.501-0.259
		c1.502-0.033,3.004-0.05,4.506-0.014c1.501,0.041,3.002,0.1,4.499,0.228c0.75,0.048,1.497,0.121,2.243,0.208
		c0.747,0.079,1.493,0.158,2.235,0.276c1.488,0.198,2.967,0.467,4.438,0.768c0.732,0.169,1.468,0.316,2.196,0.502l2.17,0.606
		l2.141,0.701l2.104,0.802c0.693,0.289,1.374,0.606,2.06,0.907c0.678,0.321,1.337,0.682,2.005,1.02
		c0.658,0.358,1.292,0.762,1.937,1.141c0.632,0.401,1.238,0.844,1.851,1.271c0.594,0.454,1.161,0.944,1.74,1.413L259.64,168.22z
		 M259.64,168.22l-1.703-1.442c-0.605-0.432-1.195-0.883-1.81-1.296c-0.636-0.382-1.248-0.8-1.891-1.167
		c-0.656-0.345-1.296-0.716-1.961-1.039c-0.675-0.304-1.339-0.63-2.021-0.916l-2.067-0.801l-2.104-0.695l-2.134-0.594
		c-1.437-0.345-2.877-0.665-4.33-0.931c-1.454-0.255-2.914-0.479-4.383-0.634c-0.732-0.096-1.468-0.153-2.205-0.21
		c-0.735-0.066-1.472-0.118-2.21-0.145c-1.474-0.085-2.952-0.103-4.428-0.102c-1.477,0.005-2.952,0.063-4.426,0.135
		c-1.473,0.099-2.944,0.211-4.41,0.375c-1.466,0.159-2.931,0.332-4.386,0.563c-1.456,0.223-2.907,0.482-4.345,0.794
		c-1.44,0.301-2.87,0.65-4.282,1.051c-1.416,0.389-2.81,0.845-4.182,1.346c-1.372,0.503-2.713,1.074-4.008,1.72
		c-1.295,0.645-2.522,1.392-3.662,2.226l0.38-0.763l0.001,0.222l-0.01,0.137c0.001,0.388-0.039,0.766-0.023,1.158
		c0.066,0.397,0.089,0.803,0.18,1.193c0.117,0.392,0.181,0.756,0.331,1.172c0.161,0.399,0.325,0.897,0.484,1.215l1.154,2.355
		c0.457,0.741,0.882,1.506,1.362,2.232c0.533,0.686,1.012,1.419,1.587,2.071l0.88,0.963c0.287,0.329,0.586,0.644,0.921,0.922
		c0.653,0.574,1.271,1.192,1.997,1.681l1.051,0.778c0.362,0.243,0.744,0.458,1.115,0.688c0.732,0.479,1.519,0.866,2.307,1.25
		c0.771,0.42,1.612,0.696,2.42,1.041c0.816,0.329,1.672,0.558,2.506,0.844c0.854,0.229,1.711,0.45,2.573,0.653
		c1.736,0.359,3.491,0.653,5.265,0.83c1.786,0.186,3.525,0.292,5.347,0.343c1.794,0.077,3.563,0.022,5.346-0.096
		c0.89-0.055,1.773-0.179,2.662-0.264l2.644-0.417c1.751-0.345,3.491-0.754,5.194-1.29c1.7-0.541,3.378-1.163,4.985-1.937
		c0.804-0.387,1.614-0.763,2.377-1.225l1.164-0.662c0.377-0.238,0.739-0.499,1.109-0.748c0.366-0.254,0.743-0.497,1.102-0.762
		l1.034-0.851c0.715-0.542,1.336-1.185,1.965-1.821c1.26-1.271,2.343-2.714,3.274-4.241c0.259-0.367,0.467-0.769,0.663-1.178
		l0.608-1.214C259.064,169.948,259.304,169.056,259.64,168.22z"/>
</g>
<path d="M225.82,161.594c-11.955,0-19.966,7.941-18.457,12.759c1.567,4.866,9.751,9.838,19.54,9.868
	c9.597,0,16.406-4.875,17.491-9.722C245.478,169.632,239.363,161.594,225.82,161.594z"/>
<path d="M314.258,161.594c11.859,0,19.966,7.941,18.399,12.759c-1.49,4.866-9.694,9.838-19.387,9.868
	c-9.693,0-16.426-4.875-17.703-9.722C294.582,169.632,300.713,161.594,314.258,161.594z"/>
<linearGradient id="SVGID_9_" gradientUnits="userSpaceOnUse" x1="219.9404" y1="309.375" x2="349.9873" y2="534.6228">
	<stop  offset="0" style="stop-color:#000000;stop-opacity:0"/>
	<stop  offset="1" style="stop-color:#000000;stop-opacity:0.3"/>
</linearGradient>
<path fill="url(#SVGID_9_)" d="M52.062,406.299c107.881,95.712,289.108,63.324,347.46,14.84
	c29.253-24.302,41.171-61.892,58.544-106.373l24.881,40.358c8.088,28.229,6.229,78.067-8.938,99.563
	c-17.374,24.551-48.64,34.129-66.399,42.507c-17.8,8.416-89.501,19.771-120.187,19.889c-30.685,0.135-88.572-2.457-112.175-8.088
	c-23.585-5.629-80.002-20.489-96.312-40.242c-16.291-19.773-19.85-26.137-23.836-41.886
	C55.234,428.412,52.062,406.299,52.062,406.299z"/>
<linearGradient id="SVGID_10_" gradientUnits="userSpaceOnUse" x1="68.478" y1="394.541" x2="68.478" y2="310.0449">
	<stop  offset="0" style="stop-color:#000000;stop-opacity:0"/>
	<stop  offset="1" style="stop-color:#000000;stop-opacity:0.4"/>
</linearGradient>
<path fill="url(#SVGID_10_)" d="M84.894,310.045c-6.346,26.101-29.137,74.7-32.833,84.453c0.058,1.547,5.011-39.374,5.011-39.374
	L84.894,310.045z"/>
<linearGradient id="SVGID_11_" gradientUnits="userSpaceOnUse" x1="470.9756" y1="420.0928" x2="470.9756" y2="309.5615">
	<stop  offset="0" style="stop-color:#000000;stop-opacity:0"/>
	<stop  offset="1" style="stop-color:#000000;stop-opacity:0.4"/>
</linearGradient>
<path fill="url(#SVGID_11_)" d="M454.854,309.562c0,0,31.305,102.87,31.305,110.531c2.67-28.033-1.199-56.437-1.199-56.437
	l-2.013-8.532L454.854,309.562z"/>
<linearGradient id="SVGID_12_" gradientUnits="userSpaceOnUse" x1="289.6201" y1="259.2754" x2="289.6201" y2="202.7935">
	<stop  offset="0" style="stop-color:#000000;stop-opacity:0"/>
	<stop  offset="1" style="stop-color:#000000;stop-opacity:0.4"/>
</linearGradient>
<path fill="url(#SVGID_12_)" d="M242.343,255.012c8.474,4.982,6.539,2.68,22.288,2.303c15.75-0.387,42.217,5.079,49.53-0.726
	c7.275-5.804,23.875-50.883,22.676-53.795c-3.174,6.704-14.008,28.237-14.008,28.237s-11.027,18.526-16.02,20.673
	c-4.915,2.148-18.729,3.473-26.429,2.622C272.718,253.474,242.343,255.012,242.343,255.012z"/>
<linearGradient id="SVGID_13_" gradientUnits="userSpaceOnUse" x1="226.1816" y1="164.7744" x2="243.1143" y2="194.1026">
	<stop  offset="0" style="stop-color:#000000;stop-opacity:0"/>
	<stop  offset="1" style="stop-color:#000000;stop-opacity:0.4"/>
</linearGradient>
<path fill="url(#SVGID_13_)" d="M260.916,163.248c2.555,5.378,2.13,31.865-28.75,29.95c-30.878-1.916-27.937-7.071-32.695-13.001
	c17.372,7.468,13.523,8.145,26.292,8.078c12.75-0.067,26.1-6.065,27.879-9.993C255.422,174.373,261.091,165.434,260.916,163.248z"/>
<linearGradient id="SVGID_14_" gradientUnits="userSpaceOnUse" x1="315.3838" y1="165.3257" x2="332.2524" y2="194.543">
	<stop  offset="0" style="stop-color:#000000;stop-opacity:0"/>
	<stop  offset="1" style="stop-color:#000000;stop-opacity:0.4"/>
</linearGradient>
<path fill="url(#SVGID_14_)" d="M348.754,163.645c2.593,5.369,4.449,31.468-26.391,29.553c-30.956-1.916-27.977-7.071-32.735-13.001
	c17.335,7.468,13.504,8.145,26.273,8.078c12.808-0.067,23.604-6.501,26.351-9.8C349.179,170.165,346.431,164.041,348.754,163.645z"
	/>
<linearGradient id="SVGID_15_" gradientUnits="userSpaceOnUse" x1="222.7314" y1="172.6367" x2="217.5908" y2="163.7329">
	<stop  offset="0.2611" style="stop-color:#FFFFFF;stop-opacity:0"/>
	<stop  offset="1" style="stop-color:#FFFFFF"/>
</linearGradient>
<path fill="url(#SVGID_15_)" d="M213.203,166.28c-4.218,2.786-7.811,8.072-0.579,12.19c-1.971-11.077,17.222-14.171,20.626-13.861
	C224.48,162.766,216.646,164.017,213.203,166.28z"/>
<linearGradient id="SVGID_16_" gradientUnits="userSpaceOnUse" x1="311.6465" y1="172.6357" x2="306.5059" y2="163.7319">
	<stop  offset="0.2611" style="stop-color:#FFFFFF;stop-opacity:0"/>
	<stop  offset="1" style="stop-color:#FFFFFF"/>
</linearGradient>
<path fill="url(#SVGID_16_)" d="M302.118,166.28c-4.217,2.786-7.811,8.072-0.578,12.19c-1.971-11.077,17.222-14.171,20.626-13.861
	C313.396,162.766,305.562,164.017,302.118,166.28z"/>
</svg>
