<?xml version="1.0" encoding="utf-8"?>
<!-- Generator: Adobe Illustrator 16.0.0, SVG Export Plug-In . SVG Version: 6.00 Build 0)  -->
<!DOCTYPE svg PUBLIC "-//W3C//DTD SVG 1.1//EN" "http://www.w3.org/Graphics/SVG/1.1/DTD/svg11.dtd">
<svg version="1.1" id="Layer_1" xmlns="http://www.w3.org/2000/svg" xmlns:xlink="http://www.w3.org/1999/xlink" x="0px" y="0px"
	 width="276.472px" height="243.333px" viewBox="0 0 276.472 243.333" enable-background="new 0 0 276.472 243.333"
	 xml:space="preserve">
<radialGradient id="SVGID_1_" cx="139.5688" cy="107.1372" r="124.4341" gradientUnits="userSpaceOnUse">
	<stop  offset="0" style="stop-color:#615A8D"/>
	<stop  offset="0.1807" style="stop-color:#5C568A"/>
	<stop  offset="0.4414" style="stop-color:#4F4982"/>
	<stop  offset="0.7491" style="stop-color:#3B3675"/>
	<stop  offset="1" style="stop-color:#27246B"/>
</radialGradient>
<path fill="url(#SVGID_1_)" d="M75.355,161.747c0-0.009-0.008-0.009-0.008-0.009c-1.308-1.089-2.58-1.935-3.757-2.458h-0.009
	c-6.502-4.428-12.517-9.605-17.589-15.628c-11.122-13.222-16.666-31.091-17.851-48.14c-0.636-9.205,0.07-18.479,2.075-27.482
	c1.56-6.973,3.713-18.051,9.814-22.688c2.458-1.865,6.738-1.682,8.237,1.369c1.909,3.914,1.272,10.337,1.499,14.608
	c0.279,5.387,1.002,10.712,1.97,15.994c0.924-2.998,2.101-5.927,3.46-8.76c3.042-16.543,13.17-30.516,24.868-42.997
	C109.07,3.146,142.636,2.37,169.16,12.419c25.373,9.605,44.13,28.467,51.487,54.686c-0.009-0.863-0.043-1.743-0.096-2.615
	c-0.575-8.132-2.902-18.017,2.328-24.99c28.981,13.005,14.817,64.431,9.588,78.376c-4.071,12.787-6.319,24.188-13.075,35.519
	c-8.376,14.05-14.347,15.873-25.965,25.748c-1.979,2.214-4.105,4.445-5.884,6.346c-4.933,13.432-14.878,30.829-25.817,38.517h-0.009
	c2.476-3.835,3.861-8.28,3.861-13.083c-8.934,0.218-15.262-8.08-24.85-6.755c-4.097,0.566-7.845,1.961-11.549,3.704
	c-4.184,1.883-8.56,2.362-12.569,4.516c0.392,3.66,2.065,7.81,4.541,11.645c-4.323-1.49-7.513-4.759-10.712-8.751
	c-6.354-10.32-14.146-19.193-16.587-30.576C90.871,180.503,82.468,167.656,75.355,161.747z M161.28,195.818
	c12.203,0,6.398-11.627-4.062-10.459l-0.026,0.069C149.147,182.552,150.176,195.818,161.28,195.818z M121.186,198.721
	c9.3,2.902,10.459-15.105,0.584-13.946C113.054,183.616,113.638,196.978,121.186,198.721z"/>
<linearGradient id="SVGID_2_" gradientUnits="userSpaceOnUse" x1="141.0938" y1="204.0249" x2="141.0938" y2="237.0933">
	<stop  offset="0" style="stop-color:#ECE82C"/>
	<stop  offset="1" style="stop-color:#F79420"/>
</linearGradient>
<path fill="url(#SVGID_2_)" d="M121.151,224.033c-2.476-3.835-4.149-7.984-4.541-11.645c4.009-2.153,8.385-2.633,12.569-4.516
	c3.704-1.743,7.452-3.138,11.549-3.704c9.588-1.325,15.916,6.973,24.85,6.755c0,4.803-1.386,9.248-3.861,13.083
	c-3.783,5.91-10.12,10.373-17.868,12.482C135.707,239.208,126.538,232.348,121.151,224.033z"/>
<path fill="#8DC63F" d="M157.192,185.428l0.026-0.069c10.459-1.168,16.265,10.459,4.062,10.459
	C150.176,195.818,149.147,182.552,157.192,185.428z"/>
<path fill="#8DC63F" d="M121.77,184.775c9.875-1.159,8.716,16.849-0.584,13.946C113.638,196.978,113.054,183.616,121.77,184.775z"/>
<path fill="#27246B" d="M75.347,161.738c-1.264-0.793-2.519-1.604-3.757-2.458C72.767,159.803,74.04,160.648,75.347,161.738z"/>
<g>
	<path fill="none" stroke="#000000" stroke-width="2" stroke-miterlimit="10" d="M75.355,161.747
		c7.113,5.909,15.515,18.757,18.496,22.959"/>
	<path fill="none" stroke="#000000" stroke-width="2" stroke-miterlimit="10" d="M71.59,159.28c1.177,0.523,2.449,1.369,3.757,2.458
		"/>
	<path fill="none" stroke="#000000" stroke-width="2" stroke-miterlimit="10" d="M63.902,67.105
		c-0.244,0.479-0.479,0.959-0.706,1.447c-1.359,2.833-2.536,5.762-3.46,8.76c-0.061,0.183-0.122,0.366-0.174,0.549"/>
	<path fill="none" stroke="#000000" stroke-width="2" stroke-miterlimit="10" d="M161.725,224.006
		c10.939-7.688,20.884-25.085,25.817-38.517c0.384-1.037,0.732-2.058,1.055-3.042"/>
	<path fill="none" stroke="#000000" stroke-width="2" stroke-miterlimit="10" d="M93.294,181.289
		c0.13,1.168,0.322,2.301,0.558,3.417c2.44,11.383,10.233,20.256,16.587,30.576c3.199,3.992,6.389,7.261,10.712,8.751
		c0.392,0.148,0.793,0.271,1.203,0.375"/>
	<path fill="none" stroke="#000000" stroke-width="2" stroke-miterlimit="10" d="M220.647,67.105
		c-7.356-26.219-26.114-45.081-51.487-54.686c-26.524-10.05-60.09-9.274-81.096,13.136C76.367,38.037,66.238,52.009,63.196,68.552
		c-0.043,0.192-0.078,0.392-0.113,0.584"/>
	<path fill="none" stroke="#000000" stroke-width="2" stroke-miterlimit="10" d="M187.508,185.525
		c0.009-0.009,0.017-0.026,0.035-0.035c1.778-1.9,3.905-4.132,5.884-6.346c1.246-1.395,2.44-2.789,3.443-4.088"/>
	<path fill="none" stroke="#000000" stroke-width="2" stroke-miterlimit="10" d="M116.54,211.507
		c0.018,0.288,0.035,0.584,0.07,0.881c0.392,3.66,2.065,7.81,4.541,11.645c5.387,8.315,14.556,15.175,22.697,12.456
		c7.749-2.109,14.085-6.572,17.868-12.482c2.476-3.835,3.861-8.28,3.861-13.083"/>
	<path fill="none" stroke="#000000" stroke-width="2" stroke-miterlimit="10" d="M121.77,184.775
		c-8.716-1.159-8.132,12.203-0.584,13.946C130.486,201.624,131.645,183.616,121.77,184.775z"/>
	<path fill="none" stroke="#000000" stroke-width="2" stroke-miterlimit="10" d="M158.378,185.934
		c-0.418-0.209-0.811-0.375-1.186-0.506c-8.045-2.876-7.017,10.39,4.088,10.39c12.203,0,6.398-11.627-4.062-10.459"/>
	<path fill="none" stroke="#000000" stroke-width="2" stroke-miterlimit="10" d="M78.188,144.096
		c-0.967-4.175-2.005-8.524-3.583-12.508c-1.691-4.262-4.079-8.324-5.265-12.77c-2.501-9.405-4.637-18.966-6.842-28.45
		c-1.002-4.341-1.97-8.69-2.763-13.057c-0.968-5.282-1.691-10.607-1.97-15.994c-0.227-4.271,0.41-10.695-1.499-14.608
		c-1.499-3.051-5.779-3.234-8.237-1.369c-6.102,4.637-8.254,15.715-9.814,22.688c-2.005,9.004-2.711,18.278-2.075,27.482
		c1.186,17.049,6.729,34.917,17.851,48.14c5.073,6.023,11.087,11.201,17.589,15.628h0.009c1.238,0.854,2.493,1.665,3.757,2.458
		c0,0,0.008,0,0.008,0.009c0.471,0.288,0.933,0.575,1.403,0.854"/>
	<path fill="none" stroke="#000000" stroke-width="2" stroke-miterlimit="10" d="M194.402,149.326
		c1.743-18.008,15.114-38.927,21.503-56.359c3.173-8.472,4.907-16.953,4.742-25.861c-0.009-0.863-0.043-1.743-0.096-2.615
		c-0.575-8.132-2.902-18.017,2.328-24.99c28.981,13.005,14.817,64.431,9.588,78.376c-4.071,12.787-6.319,24.188-13.075,35.519
		c-8.376,14.05-14.347,15.873-25.965,25.748"/>
	<path fill="none" stroke="#000000" stroke-width="2" stroke-miterlimit="10" d="M116.104,212.667
		c0.166-0.096,0.34-0.191,0.506-0.278c4.009-2.153,8.385-2.633,12.569-4.516c3.704-1.743,7.452-3.138,11.549-3.704
		c9.588-1.325,15.916,6.973,24.85,6.755"/>
</g>
</svg>
