<?xml version="1.0" encoding="utf-8"?>
<!-- Generator: Adobe Illustrator 16.0.0, SVG Export Plug-In . SVG Version: 6.00 Build 0)  -->
<!DOCTYPE svg PUBLIC "-//W3C//DTD SVG 1.1//EN" "http://www.w3.org/Graphics/SVG/1.1/DTD/svg11.dtd">
<svg version="1.1" id="Layer_1" xmlns="http://www.w3.org/2000/svg" xmlns:xlink="http://www.w3.org/1999/xlink" x="0px" y="0px"
	 width="276.472px" height="243.333px" viewBox="0 0 276.472 243.333" enable-background="new 0 0 276.472 243.333"
	 xml:space="preserve">
<g id="XMLID_3_">
	<g>
		<path fill="#27246B" d="M52.202,93.566c0.05-0.11,0.11-0.21,0.16-0.32c1.54-3.01,3.3-6.34,5.56-10.36c2.51-4.42,5.2-8.74,8-12.99
			c9.8-14.86,12.43-18.31,28-27.43c0.67-0.39,1.35-0.78,2.05-1.15c16.17-8.7,38.69-12.13,56.57-8.35c1,0.57,4.77,2.07,9.2,3.94
			c7.07,2.97,15.81,6.85,17.65,9.31c8.99,10.79,16.08,15.11,24.1,24.81c18,12.68,21.51,20.2,35.55,38.19
			c14.35,18.39,20.5,25,19.77,47.5c-0.16,5.06-4.74,5.7-8.55,2.97c1.45,13.47-0.62,25.84-12.17,34.79
			c-12.14,9.43-26.55,15-41.43,18.33c-3.07,0.7-6.16,1.29-9.25,1.81c-4.05,0.681-8.13,1.26-12.23,1.75
			c-15.37,1.88-30.99,2.641-46.37,3.07c-0.36,0.01-0.71,0.02-1.07,0.03c-9.37,0.25-19.21,0.27-28.99-0.5
			c-12.13-0.96-24.16-3.131-35.03-7.62c-14.99-6.19-27.36-29.511-27.97-48.291c-2.98,1.54-6.11,0.24-9.71-0.73
			c-10-6.67,4.15-30.25,9.68-39C44.722,109.076,47.452,102.826,52.202,93.566z M155.292,40.216c1.45-2.42-6.26-3.91-7.87-1.71
			c-3.03-0.93-6.72-1.69-8.38,0.33c-3.25,4.26,4.88,3.88,7.88,3.88C149.162,42.716,154.042,42.216,155.292,40.216z M112.042,42.216
			c5.94-2.97,2.82-2.76-2.09-2.02c-3.08-0.2-5.49,0.31-7.66,2.24C104.542,45.436,109.292,43.466,112.042,42.216z"/>
		<path fill="#F26722" d="M187.412,214.616c3.09-0.52,6.18-1.109,9.25-1.81c-5.41,9.14-13.41,11.529-21.48,3.56
			C179.282,215.875,183.362,215.296,187.412,214.616z"/>
		<path fill="#ECE82C" d="M145.542,23.966c5.86,2.2,16.4,5.79,16.2,12.94c-4.43-1.87-8.2-3.37-9.2-3.94
			c-17.88-3.78-40.4-0.35-56.57,8.35c-0.23-2.13-1-5.28-0.18-6.6c6.5-10.49,17.5-14.75,31-13
			C133.042,22.466,140.042,21.716,145.542,23.966z"/>
		<path fill="#949C9E" d="M147.422,38.506c1.61-2.2,9.32-0.71,7.87,1.71c-1.25,2-6.13,2.5-8.37,2.5c-3,0-11.13,0.38-7.88-3.88
			C140.702,36.816,144.392,37.576,147.422,38.506z"/>
		<path fill="#F26722" d="M98.752,218.966c9.78,0.77,19.62,0.75,28.99,0.5C116.642,221.676,100.802,236.316,98.752,218.966z"/>
		<path fill="#949C9E" d="M109.952,40.196c4.91-0.74,8.03-0.95,2.09,2.02c-2.75,1.25-7.5,3.22-9.75,0.22
			C104.462,40.506,106.872,39.996,109.952,40.196z"/>
		<path fill="#27246B" d="M52.362,93.246c1.74-3.51,3.59-6.96,5.56-10.36C55.662,86.906,53.902,90.236,52.362,93.246z"/>
	</g>
	<g>
		<path fill="none" stroke="#000000" stroke-width="5" stroke-linecap="round" stroke-linejoin="round" d="M206.242,74.516
			c-0.93-1.24-1.84-2.4-2.75-3.49c-8.02-9.7-15.11-14.02-24.1-24.81c-1.84-2.46-10.58-6.34-17.65-9.31c-4.43-1.87-8.2-3.37-9.2-3.94
			"/>
		<path fill="none" stroke="#000000" stroke-width="5" stroke-linecap="round" stroke-linejoin="round" d="M36.292,154.966
			c-0.47,2.54-0.64,5.26-0.54,8.09c0.61,18.78,12.98,42.1,27.97,48.291c10.87,4.489,22.9,6.66,35.03,7.62
			c9.78,0.77,19.62,0.75,28.99,0.5c0.36-0.011,0.71-0.021,1.07-0.03c15.38-0.43,31-1.19,46.37-3.07c4.1-0.49,8.18-1.069,12.23-1.75
			c3.09-0.52,6.18-1.109,9.25-1.81c14.88-3.33,29.29-8.9,41.43-18.33c11.55-8.95,13.62-21.32,12.17-34.79
			c-0.11-1.11-0.26-2.23-0.42-3.36"/>
		<path fill="none" stroke="#000000" stroke-width="5" stroke-linecap="round" stroke-linejoin="round" d="M52.202,93.566
			c-0.2,0.39-0.39,0.78-0.58,1.17"/>
		<path fill="none" stroke="#000000" stroke-width="5" stroke-linecap="round" stroke-linejoin="round" d="M152.542,32.966
			c-17.88-3.78-40.4-0.35-56.57,8.35c-0.7,0.37-1.38,0.76-2.05,1.15c-15.57,9.12-18.2,12.57-28,27.43c-2.8,4.25-5.49,8.57-8,12.99
			c-1.97,3.4-3.82,6.85-5.56,10.36"/>
		<path fill="none" stroke="#000000" stroke-width="5" stroke-linecap="round" stroke-linejoin="round" d="M98.542,215.716
			c0.02,1.189,0.1,2.27,0.21,3.25c2.05,17.35,17.89,2.71,28.99,0.5c1.16-0.24,2.27-0.341,3.3-0.25"/>
		<path fill="none" stroke="#000000" stroke-width="5" stroke-linecap="round" stroke-linejoin="round" d="M174.542,215.716
			c0.21,0.22,0.43,0.439,0.64,0.649c8.07,7.97,16.07,5.58,21.48-3.56c0.48-0.811,0.94-1.681,1.38-2.59"/>
		<path fill="none" stroke="#000000" stroke-width="5" stroke-linecap="round" stroke-linejoin="round" d="M61.292,127.756
			c-9.75,14.5-13.8,10.46-18.46,24.46c-2.38,6.54-4.69,9.61-7.08,10.84c-2.98,1.54-6.11,0.24-9.71-0.73c-10-6.67,4.15-30.25,9.68-39
			c9-14.25,11.73-20.5,16.48-29.76c0.05-0.11,0.11-0.21,0.16-0.32c1.54-3.01,3.3-6.34,5.56-10.36"/>
		<path fill="none" stroke="#000000" stroke-width="5" stroke-linecap="round" stroke-linejoin="round" d="M217.542,127.756
			c12,12.67,24.83,19.13,28.83,27.13c0.96,2.09,2.36,3.71,3.89,4.8c3.81,2.73,8.39,2.09,8.55-2.97c0.73-22.5-5.42-29.11-19.77-47.5
			c-14.04-17.99-17.55-25.51-35.55-38.19c-0.49-0.35-1-0.7-1.52-1.06"/>
		<path fill="none" stroke="#000000" stroke-width="5" stroke-linecap="round" stroke-linejoin="round" d="M109.952,40.196
			c-0.05,0-0.11,0.01-0.16,0.02"/>
		<path fill="none" stroke="#000000" stroke-width="5" stroke-linecap="round" stroke-linejoin="round" d="M109.952,40.196
			c-3.08-0.2-5.49,0.31-7.66,2.24c2.25,3,7,1.03,9.75-0.22C117.982,39.246,114.862,39.456,109.952,40.196z"/>
		<path fill="none" stroke="#000000" stroke-width="5" stroke-linecap="round" stroke-linejoin="round" d="M110.292,40.216
			c-0.11-0.01-0.23-0.02-0.34-0.02"/>
		<path fill="none" stroke="#000000" stroke-width="5" stroke-linecap="round" stroke-linejoin="round" d="M147.422,38.506
			c-0.05,0.06-0.09,0.14-0.13,0.21"/>
		<path fill="none" stroke="#000000" stroke-width="5" stroke-linecap="round" stroke-linejoin="round" d="M147.422,38.506
			c-3.03-0.93-6.72-1.69-8.38,0.33c-3.25,4.26,4.88,3.88,7.88,3.88c2.24,0,7.12-0.5,8.37-2.5
			C156.742,37.796,149.032,36.306,147.422,38.506z"/>
		<path fill="none" stroke="#000000" stroke-width="5" stroke-linecap="round" stroke-linejoin="round" d="M150.292,39.466
			c-0.79-0.26-1.79-0.62-2.87-0.96"/>
		<path fill="none" stroke="#000000" stroke-width="5" stroke-linecap="round" stroke-linejoin="round" d="M161.712,37.436
			c0.01-0.18,0.03-0.36,0.03-0.53c0.2-7.15-10.34-10.74-16.2-12.94c-5.5-2.25-12.5-1.5-18.75-2.25c-13.5-1.75-24.5,2.51-31,13
			c-0.82,1.32-0.05,4.47,0.18,6.6c0.05,0.35,0.07,0.68,0.07,0.96"/>
	</g>
</g>
</svg>
