<?xml version="1.0" encoding="utf-8"?>
<!-- Generator: Adobe Illustrator 16.0.0, SVG Export Plug-In . SVG Version: 6.00 Build 0)  -->
<!DOCTYPE svg PUBLIC "-//W3C//DTD SVG 1.1//EN" "http://www.w3.org/Graphics/SVG/1.1/DTD/svg11.dtd">
<svg version="1.1" id="Layer_1" xmlns="http://www.w3.org/2000/svg" xmlns:xlink="http://www.w3.org/1999/xlink" x="0px" y="0px"
	 width="540px" height="540px" viewBox="0 0 540 540" enable-background="new 0 0 540 540" xml:space="preserve">
<rect fill="#148DCD" width="540" height="540"/>
<linearGradient id="SVGID_1_" gradientUnits="userSpaceOnUse" x1="381.4189" y1="70.1416" x2="257.7756" y2="193.7851" gradientTransform="matrix(1 0 0 -1 -36 415)">
	<stop  offset="0" style="stop-color:#0079B4;stop-opacity:0.4"/>
	<stop  offset="0.9852" style="stop-color:#0079B4;stop-opacity:0"/>
</linearGradient>
<path fill="url(#SVGID_1_)" d="M539.91,0.105C427.512-10.214,12.042,392.592,0,538.685C172.61,564.851,549.51,194.168,539.91,0.105z
	"/>
<linearGradient id="SVGID_2_" gradientUnits="userSpaceOnUse" x1="261.188" y1="178.7104" x2="91.4308" y2="348.4676" gradientTransform="matrix(1 0 0 -1 -36 415)">
	<stop  offset="0" style="stop-color:#FFFFFF;stop-opacity:0"/>
	<stop  offset="0.4926" style="stop-color:#FFFFFF;stop-opacity:0.3"/>
	<stop  offset="1" style="stop-color:#FFFFFF;stop-opacity:0"/>
</linearGradient>
<path fill="url(#SVGID_2_)" d="M0,125.608C39.34,81.17,82.154,38.571,126.476,0H401.73C315.605,154.26,156.173,326.896,0,423.938
	V125.608z"/>
<linearGradient id="SVGID_3_" gradientUnits="userSpaceOnUse" x1="533.9443" y1="-82.0229" x2="364.7647" y2="87.1568" gradientTransform="matrix(1 0 0 -1 -36 415)">
	<stop  offset="0" style="stop-color:#FFFFFF;stop-opacity:0"/>
	<stop  offset="0.4926" style="stop-color:#FFFFFF;stop-opacity:0.3"/>
	<stop  offset="1" style="stop-color:#FFFFFF;stop-opacity:0"/>
</linearGradient>
<path fill="url(#SVGID_3_)" d="M158,540c91.414-144.73,238.792-295.246,382.09-383.756L540,451.391
	c-26.025,30.044-56.82,60.784-85.5,88.609H158z"/>
<linearGradient id="SVGID_4_" gradientUnits="userSpaceOnUse" x1="306.0459" y1="145.0449" x2="576.0012" y2="415.0002" gradientTransform="matrix(1 0 0 -1 -36 415)">
	<stop  offset="0" style="stop-color:#FFFFFF;stop-opacity:0"/>
	<stop  offset="1" style="stop-color:#FFFFFF;stop-opacity:0.5"/>
</linearGradient>
<rect x="270.045" fill="url(#SVGID_4_)" width="269.955" height="269.955"/>
<linearGradient id="SVGID_5_" gradientUnits="userSpaceOnUse" x1="305.9561" y1="145.0449" x2="36.0008" y2="-124.9103" gradientTransform="matrix(1 0 0 -1 -36 415)">
	<stop  offset="0" style="stop-color:#FFFFFF;stop-opacity:0"/>
	<stop  offset="1" style="stop-color:#FFFFFF;stop-opacity:0.5"/>
</linearGradient>
<rect y="269.955" fill="url(#SVGID_5_)" width="269.955" height="269.955"/>
<linearGradient id="SVGID_6_" gradientUnits="userSpaceOnUse" x1="305.9561" y1="145.0449" x2="36.0008" y2="415.0002" gradientTransform="matrix(1 0 0 -1 -36 415)">
	<stop  offset="0" style="stop-color:#FFFFFF;stop-opacity:0"/>
	<stop  offset="1" style="stop-color:#FFFFFF;stop-opacity:0.5"/>
</linearGradient>
<rect fill="url(#SVGID_6_)" width="269.955" height="269.955"/>
<linearGradient id="SVGID_7_" gradientUnits="userSpaceOnUse" x1="306.0459" y1="145.0449" x2="576.0012" y2="-124.9103" gradientTransform="matrix(1 0 0 -1 -36 415)">
	<stop  offset="0" style="stop-color:#FFFFFF;stop-opacity:0"/>
	<stop  offset="1" style="stop-color:#FFFFFF;stop-opacity:0.5"/>
</linearGradient>
<rect x="270.045" y="269.955" fill="url(#SVGID_7_)" width="269.955" height="269.955"/>
</svg>
