<?xml version="1.0" encoding="utf-8"?>
<!-- Generator: Adobe Illustrator 16.0.0, SVG Export Plug-In . SVG Version: 6.00 Build 0)  -->
<!DOCTYPE svg PUBLIC "-//W3C//DTD SVG 1.1//EN" "http://www.w3.org/Graphics/SVG/1.1/DTD/svg11.dtd">
<svg version="1.1" id="Layer_1" xmlns="http://www.w3.org/2000/svg" xmlns:xlink="http://www.w3.org/1999/xlink" x="0px" y="0px"
	 width="540px" height="540px" viewBox="0 0 540 540" enable-background="new 0 0 540 540" xml:space="preserve">
<g>
	<defs>
		<rect id="SVGID_1_" width="540" height="540"/>
	</defs>
	<clipPath id="SVGID_2_">
		<use xlink:href="#SVGID_1_"  overflow="visible"/>
	</clipPath>
	<rect clip-path="url(#SVGID_2_)" fill="none" width="540" height="540"/>
	<rect clip-path="url(#SVGID_2_)" fill="#325592" width="540" height="540"/>
	<rect clip-path="url(#SVGID_2_)" fill="none" width="540" height="540"/>
	
		<linearGradient id="SVGID_3_" gradientUnits="userSpaceOnUse" x1="-153.9995" y1="605.001" x2="-693.9998" y2="1145.0012" gradientTransform="matrix(1 0 0 -1 694 1145)">
		<stop  offset="0" style="stop-color:#17204E;stop-opacity:0.2"/>
		<stop  offset="0.125" style="stop-color:#17204E;stop-opacity:0.4"/>
		<stop  offset="0.375" style="stop-color:#17204E;stop-opacity:0"/>
		<stop  offset="0.625" style="stop-color:#17204E;stop-opacity:0.4"/>
		<stop  offset="0.875" style="stop-color:#17204E;stop-opacity:0"/>
		<stop  offset="1" style="stop-color:#17204E;stop-opacity:0.2"/>
	</linearGradient>
	<rect clip-path="url(#SVGID_2_)" fill="url(#SVGID_3_)" width="540" height="540"/>
	<rect clip-path="url(#SVGID_2_)" fill="none" width="540" height="540"/>
	<rect clip-path="url(#SVGID_2_)" fill="none" width="540" height="540"/>
	<rect clip-path="url(#SVGID_2_)" fill="none" width="540" height="540"/>
	<rect clip-path="url(#SVGID_2_)" fill="none" width="540" height="540"/>
	<rect clip-path="url(#SVGID_2_)" fill="none" width="540" height="540"/>
	
		<linearGradient id="SVGID_4_" gradientUnits="userSpaceOnUse" x1="-393.4785" y1="1392.7578" x2="-334.0038" y2="1333.2832" gradientTransform="matrix(1 0 0 -1 694 1145)">
		<stop  offset="0" style="stop-color:#A4B1D9"/>
		<stop  offset="1" style="stop-color:#A4B1D9;stop-opacity:0"/>
	</linearGradient>
	<path opacity="0.3" clip-path="url(#SVGID_2_)" fill="url(#SVGID_4_)" enable-background="new    " d="M68.28,46.252
		c0,0,0.391-3.054,1.123-8.779c0.924-5.705,2.223-14.156,5.039-24.69c2.738-10.562,6.953-23.293,13.938-37.255
		c0.909-1.731,1.832-3.49,2.77-5.276c1.002-1.755,2.061-3.517,3.119-5.32c1.067-1.796,2.265-3.554,3.424-5.376
		c1.166-1.818,2.483-3.572,3.754-5.404c5.199-7.238,11.498-14.335,18.707-21.092c7.188-6.789,15.438-13.036,24.305-18.76
		c2.208-1.468,4.48-2.808,6.766-4.209c2.312-1.307,4.635-2.677,7.004-3.932c4.725-2.589,9.562-5.02,14.459-7.394
		c9.777-4.79,19.899-9.013,29.871-13.438c9.986-4.423,19.896-8.847,29.396-13.806c9.502-4.94,18.566-10.411,26.896-16.725
		c8.338-6.296,15.95-13.434,22.724-21.479c13.618-16.02,23.77-35.77,31.394-57.074l3.063-8.568l0.773-2.154
		c0.271-0.733,0.485-1.393,0.812-2.205l1.822-4.688c1.193-3.166,2.498-6.133,3.772-9.154c0.621-1.51,1.32-3.004,2.021-4.496
		l2.09-4.479c2.946-5.93,5.966-11.847,9.508-17.574c1.686-2.888,3.598-5.697,5.442-8.518c0.957-1.397,1.965-2.773,2.944-4.157
		c0.967-1.39,2.005-2.746,3.065-4.089c8.299-10.811,18.394-20.624,29.547-28.549c11.165-7.955,23.309-13.771,35.019-18.072
		c5.861-2.175,11.637-4.008,17.264-5.641c5.624-1.642,11.094-3.123,16.397-4.521c10.59-2.822,20.512-5.512,29.746-8.695
		c4.617-1.586,9.071-3.291,13.36-5.144c4.269-1.88,8.368-3.921,12.336-6.056c7.923-4.295,15.146-9.277,21.78-14.607
		c13.261-10.701,23.939-22.92,32.713-34.412c8.772-11.529,15.697-22.371,21.197-31.459c1.416-2.254,2.65-4.447,3.847-6.498
		c1.181-2.059,2.372-3.955,3.358-5.777c1.018-1.813,1.958-3.491,2.819-5.028c0.882-1.533,1.675-2.933,2.347-4.2
		c2.782-5.054,4.268-7.749,4.268-7.749s-0.18,0.748-0.525,2.199c-0.352,1.448-0.848,3.61-1.561,6.414
		c-1.438,5.602-3.685,13.793-7.201,24.065c-3.502,10.279-8.338,22.631-15.359,36.336c-3.54,6.838-7.663,13.984-12.551,21.287
		c-4.924,7.271-10.674,14.642-17.378,21.861c-6.758,7.158-14.56,14.061-23.302,20.365c-4.377,3.144-9.035,6.029-13.832,8.813
		c-4.818,2.731-9.808,5.281-14.903,7.666c-10.206,4.737-20.836,8.644-31.284,12.36c-5.215,1.873-10.389,3.675-15.44,5.563
		c-5.05,1.896-9.984,3.842-14.739,5.95c-9.503,4.242-18.261,9.111-26.025,15.236c-3.896,3.045-7.545,6.408-11.016,10.033
		c-1.757,1.784-3.395,3.729-5.061,5.646c-1.587,2.014-3.213,3.987-4.707,6.124c-0.773,1.039-1.545,2.084-2.265,3.191
		c-0.729,1.094-1.481,2.164-2.203,3.272c-1.39,2.271-2.842,4.484-4.14,6.863c-2.705,4.645-5.175,9.57-7.557,14.568
		c-1.118,2.563-2.325,5.057-3.384,7.678c-1.075,2.598-2.22,5.217-3.157,7.766l-1.483,3.846c-0.245,0.604-0.506,1.396-0.758,2.095
		l-0.765,2.157l-1.528,4.314l-1.577,4.359c-4.465,12.316-9.771,24.52-16.398,36.189c-6.612,11.656-14.381,22.857-23.498,32.871
		c-9.026,10.077-19.354,18.899-30.18,26.296c-5.436,3.669-10.979,7.012-16.553,10.059c-5.596,2.993-11.215,5.686-16.791,8.162
		c-11.169,4.898-22.162,8.885-32.704,12.46c-10.558,3.585-20.604,6.992-30.147,10.396c-19.039,6.873-35.797,14.639-49.6,24.526
		c-1.77,1.18-3.396,2.494-5.072,3.729c-1.65,1.267-3.212,2.601-4.803,3.882c-1.514,1.358-3.055,2.669-4.514,4.031
		c-1.428,1.395-2.922,2.703-4.285,4.108c-5.557,5.528-10.367,11.321-14.664,17.021c-4.258,5.729-7.916,11.406-11.171,16.79
		c-1.604,2.703-3.078,5.351-4.483,7.89c-1.314,2.582-2.695,5.003-3.857,7.374c-1.151,2.375-2.28,4.617-3.284,6.758
		c-0.989,2.152-1.917,4.172-2.78,6.05c-0.881,1.88-1.563,3.654-2.279,5.265c-0.693,1.616-1.349,3.078-1.896,4.411
		C69.44,43.4,68.28,46.252,68.28,46.252z"/>
	
		<linearGradient id="SVGID_5_" gradientUnits="userSpaceOnUse" x1="-444.2178" y1="909.71" x2="-292.9395" y2="758.4316" gradientTransform="matrix(1 0 0 -1 694 1145)">
		<stop  offset="0" style="stop-color:#A4B1D9;stop-opacity:0"/>
		<stop  offset="0.5" style="stop-color:#A4B1D9;stop-opacity:0.4"/>
		<stop  offset="1" style="stop-color:#A4B1D9;stop-opacity:0"/>
	</linearGradient>
	<path opacity="0.3" clip-path="url(#SVGID_2_)" fill="url(#SVGID_5_)" enable-background="new    " d="M792.098-206.236
		C711.271-69.252,604.561-155.865,549.371,5.52c-4.968,14.527-10.631,27.164-16.867,38.232c0.047,0.146,0.093,0.289,0.141,0.434
		c-80.797,136.361-187.338,50.11-242.468,211.322C242.076,396.17,128.764,359.589,60.752,439.77v2.676
		c-0.432-0.745-0.872-1.485-1.322-2.219c-12.57,15.644-23.955,36.44-33.725,65.012C-22.396,645.9-135.709,609.318-203.721,689.5
		v143.982h62.516C-80.357,699.606,58.66,768.839,113.355,608.89c3.129-9.146,6.422-17.498,9.867-25.138h0.045
		c60.847-133.875,199.863-64.642,254.561-224.591c50.785-148.511,145.198-87.015,222.924-182.995v-0.969h0.001
		c14.147-16.381,26.542-37.578,36.271-66.024c50.784-148.51,145.197-87.015,222.924-182.995v-132.414H792.098z"/>
	
		<linearGradient id="SVGID_6_" gradientUnits="userSpaceOnUse" x1="-392.1465" y1="853.7578" x2="-332.6721" y2="794.2834" gradientTransform="matrix(1 0 0 -1 694 1145)">
		<stop  offset="0" style="stop-color:#A4B1D9"/>
		<stop  offset="1" style="stop-color:#A4B1D9;stop-opacity:0"/>
	</linearGradient>
	<path opacity="0.3" clip-path="url(#SVGID_2_)" fill="url(#SVGID_6_)" enable-background="new    " d="M69.613,585.252
		c0,0,0.391-3.054,1.123-8.779c0.924-5.705,2.223-14.156,5.039-24.69c2.738-10.562,6.953-23.293,13.938-37.255
		c0.909-1.731,1.832-3.49,2.77-5.276c1.002-1.755,2.061-3.517,3.119-5.32c1.067-1.796,2.265-3.554,3.424-5.376
		c1.166-1.818,2.483-3.572,3.754-5.404c5.199-7.238,11.498-14.335,18.707-21.092c7.188-6.789,15.438-13.036,24.305-18.76
		c2.208-1.468,4.48-2.808,6.766-4.209c2.312-1.307,4.635-2.677,7.004-3.932c4.725-2.589,9.562-5.02,14.459-7.394
		c9.777-4.79,19.899-9.013,29.871-13.438c9.986-4.423,19.896-8.847,29.396-13.806c9.502-4.94,18.566-10.411,26.896-16.725
		c8.338-6.296,15.95-13.434,22.724-21.479c13.618-16.02,23.77-35.77,31.394-57.074l3.063-8.568l0.773-2.154
		c0.271-0.733,0.485-1.393,0.812-2.205l1.822-4.688c1.193-3.166,2.498-6.133,3.772-9.154c0.621-1.51,1.32-3.004,2.021-4.496
		l2.09-4.479c2.946-5.93,5.966-11.847,9.508-17.574c1.686-2.888,3.598-5.697,5.442-8.518c0.957-1.397,1.965-2.773,2.944-4.157
		c0.967-1.39,2.005-2.746,3.065-4.089c8.299-10.811,18.394-20.624,29.547-28.549c11.165-7.955,23.309-13.771,35.019-18.072
		c5.861-2.175,11.637-4.008,17.264-5.641c5.624-1.642,11.094-3.123,16.397-4.521c10.59-2.822,20.512-5.512,29.746-8.695
		c4.617-1.586,9.071-3.291,13.36-5.144c4.269-1.88,8.368-3.921,12.336-6.056c7.923-4.295,15.146-9.277,21.78-14.607
		c13.261-10.701,23.939-22.92,32.713-34.412c8.772-11.529,15.697-22.371,21.197-31.459c1.416-2.254,2.65-4.447,3.847-6.498
		c1.181-2.059,2.372-3.955,3.358-5.777c1.018-1.813,1.958-3.491,2.819-5.028c0.882-1.533,1.675-2.933,2.347-4.2
		c2.782-5.054,4.268-7.749,4.268-7.749s-0.18,0.748-0.525,2.199c-0.352,1.448-0.848,3.61-1.561,6.414
		c-1.438,5.602-3.685,13.793-7.201,24.065c-3.502,10.279-8.338,22.631-15.359,36.336c-3.54,6.838-7.663,13.984-12.551,21.287
		c-4.924,7.271-10.674,14.642-17.378,21.861c-6.758,7.158-14.56,14.061-23.302,20.365c-4.377,3.144-9.035,6.029-13.832,8.813
		c-4.818,2.731-9.808,5.281-14.903,7.666c-10.206,4.737-20.836,8.644-31.284,12.36c-5.215,1.873-10.389,3.675-15.44,5.563
		c-5.05,1.896-9.984,3.842-14.739,5.95c-9.503,4.242-18.261,9.111-26.025,15.236c-3.896,3.045-7.545,6.408-11.016,10.033
		c-1.757,1.784-3.395,3.729-5.061,5.646c-1.587,2.014-3.213,3.987-4.707,6.124c-0.773,1.039-1.545,2.084-2.265,3.191
		c-0.729,1.094-1.481,2.164-2.203,3.272c-1.39,2.271-2.842,4.484-4.14,6.863c-2.705,4.645-5.175,9.57-7.557,14.568
		c-1.118,2.563-2.325,5.057-3.384,7.678c-1.075,2.598-2.22,5.217-3.157,7.766l-1.483,3.846c-0.245,0.604-0.506,1.396-0.758,2.095
		l-0.765,2.157l-1.528,4.314l-1.577,4.359c-4.465,12.316-9.771,24.52-16.398,36.189c-6.612,11.656-14.381,22.857-23.498,32.871
		c-9.026,10.077-19.354,18.899-30.18,26.296c-5.436,3.669-10.979,7.012-16.553,10.059c-5.596,2.993-11.215,5.686-16.791,8.162
		c-11.169,4.898-22.162,8.885-32.704,12.46c-10.558,3.585-20.604,6.992-30.147,10.396c-19.039,6.873-35.797,14.639-49.6,24.526
		c-1.77,1.18-3.396,2.494-5.072,3.729c-1.65,1.267-3.212,2.601-4.803,3.882c-1.514,1.358-3.055,2.669-4.514,4.031
		c-1.428,1.395-2.922,2.703-4.285,4.108c-5.557,5.528-10.367,11.321-14.664,17.021c-4.258,5.729-7.916,11.406-11.171,16.79
		c-1.604,2.703-3.078,5.351-4.483,7.89c-1.314,2.582-2.695,5.003-3.857,7.374c-1.151,2.375-2.28,4.617-3.284,6.758
		c-0.989,2.152-1.917,4.172-2.78,6.05c-0.881,1.88-1.563,3.654-2.279,5.265c-0.693,1.616-1.349,3.078-1.896,4.411
		C70.773,582.4,69.613,585.252,69.613,585.252z"/>
	
		<linearGradient id="SVGID_7_" gradientUnits="userSpaceOnUse" x1="-984.2183" y1="909.71" x2="-832.9399" y2="758.4315" gradientTransform="matrix(1 0 0 -1 694 1145)">
		<stop  offset="0" style="stop-color:#A4B1D9;stop-opacity:0"/>
		<stop  offset="0.5" style="stop-color:#A4B1D9;stop-opacity:0.4"/>
		<stop  offset="1" style="stop-color:#A4B1D9;stop-opacity:0"/>
	</linearGradient>
	<path opacity="0.3" clip-path="url(#SVGID_2_)" fill="url(#SVGID_7_)" enable-background="new    " d="M252.098-206.236
		C171.271-69.252,64.561-155.865,9.371,5.52C4.403,20.047-1.26,32.684-7.496,43.752c0.047,0.146,0.093,0.289,0.141,0.434
		c-80.797,136.361-187.338,50.11-242.468,211.322C-297.924,396.17-411.236,359.589-479.248,439.77v2.676
		c-0.432-0.745-0.872-1.485-1.322-2.219c-12.57,15.644-23.955,36.44-33.725,65.012C-562.396,645.9-675.709,609.318-743.721,689.5
		v143.982h62.516c60.848-133.876,199.865-64.644,254.561-224.593c3.129-9.146,6.422-17.498,9.867-25.138h0.045
		c60.847-133.875,199.863-64.642,254.561-224.591c50.785-148.511,145.198-87.015,222.924-182.995v-0.969h0.001
		c14.147-16.381,26.542-37.578,36.271-66.024c50.784-148.51,145.197-87.015,222.924-182.995v-132.414H252.098z"/>
	
		<linearGradient id="SVGID_8_" gradientUnits="userSpaceOnUse" x1="-932.1465" y1="853.7578" x2="-872.6722" y2="794.2835" gradientTransform="matrix(1 0 0 -1 694 1145)">
		<stop  offset="0" style="stop-color:#A4B1D9"/>
		<stop  offset="1" style="stop-color:#A4B1D9;stop-opacity:0"/>
	</linearGradient>
	<path opacity="0.3" clip-path="url(#SVGID_2_)" fill="url(#SVGID_8_)" enable-background="new    " d="M-470.387,585.252
		c0,0,0.391-3.054,1.123-8.779c0.924-5.705,2.223-14.156,5.039-24.69c2.738-10.562,6.953-23.293,13.938-37.255
		c0.909-1.731,1.832-3.49,2.77-5.276c1.002-1.755,2.061-3.517,3.119-5.32c1.067-1.796,2.265-3.554,3.424-5.376
		c1.166-1.818,2.483-3.572,3.754-5.404c5.199-7.238,11.498-14.335,18.707-21.092c7.188-6.789,15.438-13.036,24.305-18.76
		c2.208-1.468,4.48-2.808,6.766-4.209c2.312-1.307,4.635-2.677,7.004-3.932c4.725-2.589,9.562-5.02,14.459-7.394
		c9.777-4.79,19.899-9.013,29.871-13.438c9.986-4.423,19.896-8.847,29.396-13.806c9.502-4.94,18.566-10.411,26.896-16.725
		c8.338-6.296,15.95-13.434,22.724-21.479c13.618-16.02,23.77-35.77,31.394-57.074l3.063-8.568l0.773-2.154
		c0.271-0.733,0.485-1.393,0.812-2.205l1.822-4.688c1.193-3.166,2.498-6.133,3.772-9.154c0.621-1.51,1.32-3.004,2.021-4.496
		l2.09-4.479c2.946-5.93,5.966-11.847,9.508-17.574c1.686-2.888,3.598-5.697,5.442-8.518c0.957-1.397,1.965-2.773,2.944-4.157
		c0.967-1.39,2.005-2.746,3.065-4.089c8.299-10.811,18.394-20.624,29.547-28.549c11.165-7.955,23.309-13.771,35.019-18.072
		c5.861-2.175,11.637-4.008,17.264-5.641c5.624-1.642,11.094-3.123,16.397-4.521c10.59-2.822,20.512-5.512,29.746-8.695
		c4.617-1.586,9.071-3.291,13.36-5.144c4.269-1.88,8.368-3.921,12.336-6.056c7.923-4.295,15.146-9.277,21.78-14.607
		c13.261-10.701,23.939-22.92,32.713-34.412c8.772-11.529,15.697-22.371,21.197-31.459c1.416-2.254,2.65-4.447,3.847-6.498
		c1.181-2.059,2.372-3.955,3.358-5.777c1.018-1.813,1.958-3.491,2.819-5.028c0.882-1.533,1.675-2.933,2.347-4.2
		c2.782-5.054,4.268-7.749,4.268-7.749s-0.18,0.748-0.525,2.199c-0.352,1.448-0.848,3.61-1.561,6.414
		c-1.438,5.602-3.685,13.793-7.201,24.065c-3.502,10.279-8.338,22.631-15.359,36.336c-3.54,6.838-7.663,13.984-12.551,21.287
		c-4.924,7.271-10.674,14.642-17.378,21.861c-6.758,7.158-14.56,14.061-23.302,20.365c-4.377,3.144-9.035,6.029-13.832,8.813
		c-4.818,2.731-9.808,5.281-14.903,7.666c-10.206,4.737-20.836,8.644-31.284,12.36c-5.215,1.873-10.389,3.675-15.44,5.563
		c-5.05,1.896-9.984,3.842-14.739,5.95c-9.503,4.242-18.261,9.111-26.025,15.236c-3.896,3.045-7.545,6.408-11.016,10.033
		c-1.757,1.784-3.395,3.729-5.061,5.646c-1.587,2.014-3.213,3.987-4.707,6.124c-0.773,1.039-1.545,2.084-2.265,3.191
		c-0.729,1.094-1.481,2.164-2.203,3.272c-1.39,2.271-2.842,4.484-4.14,6.863c-2.705,4.645-5.175,9.57-7.557,14.568
		c-1.118,2.563-2.325,5.057-3.384,7.678c-1.075,2.598-2.22,5.217-3.157,7.766l-1.483,3.846c-0.245,0.604-0.506,1.396-0.758,2.095
		l-0.765,2.157l-1.528,4.314l-1.577,4.359c-4.465,12.316-9.771,24.52-16.398,36.189c-6.612,11.656-14.381,22.857-23.498,32.871
		c-9.026,10.077-19.354,18.899-30.18,26.296c-5.436,3.669-10.979,7.012-16.553,10.059c-5.596,2.993-11.215,5.686-16.791,8.162
		c-11.169,4.898-22.162,8.885-32.704,12.46c-10.558,3.585-20.604,6.992-30.147,10.396c-19.039,6.873-35.797,14.639-49.6,24.526
		c-1.77,1.18-3.396,2.494-5.072,3.729c-1.65,1.267-3.212,2.601-4.803,3.882c-1.514,1.358-3.055,2.669-4.514,4.031
		c-1.428,1.395-2.922,2.703-4.285,4.108c-5.557,5.528-10.367,11.321-14.664,17.021c-4.258,5.729-7.916,11.406-11.171,16.79
		c-1.604,2.703-3.078,5.351-4.483,7.89c-1.314,2.582-2.695,5.003-3.857,7.374c-1.151,2.375-2.28,4.617-3.284,6.758
		c-0.989,2.152-1.917,4.172-2.78,6.05c-0.881,1.88-1.563,3.654-2.279,5.265c-0.693,1.616-1.349,3.078-1.896,4.411
		C-469.227,582.4-470.387,585.252-470.387,585.252z"/>
</g>
</svg>
