<?xml version="1.0" encoding="utf-8"?>
<!-- Generator: Adobe Illustrator 16.0.0, SVG Export Plug-In . SVG Version: 6.00 Build 0)  -->
<!DOCTYPE svg PUBLIC "-//W3C//DTD SVG 1.1//EN" "http://www.w3.org/Graphics/SVG/1.1/DTD/svg11.dtd">
<svg version="1.1" id="Layer_1" xmlns="http://www.w3.org/2000/svg" xmlns:xlink="http://www.w3.org/1999/xlink" x="0px" y="0px"
	 width="540px" height="540px" viewBox="0 0 540 540" enable-background="new 0 0 540 540" xml:space="preserve">
<rect fill="#325492" width="540" height="540"/>
<linearGradient id="SVGID_1_" gradientUnits="userSpaceOnUse" x1="4.882813e-004" y1="4.882813e-004" x2="540.0008" y2="540.0008">
	<stop  offset="0" style="stop-color:#001950;stop-opacity:0"/>
	<stop  offset="0.25" style="stop-color:#001950;stop-opacity:0.4"/>
	<stop  offset="0.5" style="stop-color:#001950;stop-opacity:0"/>
	<stop  offset="0.75" style="stop-color:#001950;stop-opacity:0.4"/>
	<stop  offset="1" style="stop-color:#001950;stop-opacity:0"/>
</linearGradient>
<rect fill="url(#SVGID_1_)" width="540" height="540"/>
<linearGradient id="SVGID_2_" gradientUnits="userSpaceOnUse" x1="197.6553" y1="197.6553" x2="336.9595" y2="336.9595">
	<stop  offset="0" style="stop-color:#A4B1DA;stop-opacity:0"/>
	<stop  offset="0.5" style="stop-color:#A4B1DA;stop-opacity:0.4"/>
	<stop  offset="1" style="stop-color:#A4B1DA;stop-opacity:0"/>
</linearGradient>
<path fill="url(#SVGID_2_)" d="M472.151,0c-80.827,136.984-187.538,50.371-242.727,211.756
	C181.324,352.418,68.012,315.837,0,396.018V540h62.516c60.847-133.875,199.864-64.642,254.561-224.591
	C367.861,166.899,462.274,228.394,540,132.414V0H472.151z"/>
<linearGradient id="SVGID_3_" gradientUnits="userSpaceOnUse" x1="620.0684" y1="589.9336" x2="484.5601" y2="454.4253">
	<stop  offset="0" style="stop-color:#A4B1DA;stop-opacity:0"/>
	<stop  offset="0.5" style="stop-color:#A4B1DA;stop-opacity:0.4"/>
	<stop  offset="1" style="stop-color:#A4B1DA;stop-opacity:0"/>
</linearGradient>
<path fill="url(#SVGID_3_)" d="M540,413.31c-13.145,15.834-25.028,37.118-35.172,66.78c-8.56,25.03-19.184,44.448-31.25,59.91H540
	V413.31z"/>
<linearGradient id="SVGID_4_" gradientUnits="userSpaceOnUse" x1="237.1021" y1="243.4907" x2="296.5771" y2="302.9657">
	<stop  offset="0" style="stop-color:#A4B1DA"/>
	<stop  offset="1" style="stop-color:#A4B1DA;stop-opacity:0"/>
</linearGradient>
<path fill="url(#SVGID_4_)" d="M4.861,537.5c0,0,0.391-3.054,1.123-8.779c0.924-5.705,2.223-14.157,5.039-24.691
	c2.738-10.561,6.953-23.293,13.938-37.255c0.909-1.731,1.832-3.49,2.77-5.276c1.001-1.755,2.06-3.517,3.118-5.32
	c1.068-1.796,2.265-3.554,3.424-5.376c1.166-1.819,2.484-3.573,3.754-5.405c5.2-7.238,11.498-14.335,18.708-21.091
	c7.188-6.79,15.438-13.037,24.304-18.76c2.208-1.468,4.48-2.808,6.766-4.209c2.311-1.307,4.635-2.677,7.004-3.932
	c4.724-2.589,9.561-5.019,14.459-7.393c9.777-4.79,19.899-9.013,29.87-13.438c9.987-4.423,19.897-8.846,29.397-13.805
	c9.502-4.941,18.566-10.412,26.896-16.725c8.339-6.296,15.951-13.434,22.724-21.479c13.619-16.019,23.77-35.769,31.394-57.074
	l3.063-8.568l0.774-2.154c0.271-0.734,0.485-1.393,0.811-2.205l1.822-4.688c1.194-3.166,2.499-6.133,3.773-9.155
	c0.621-1.509,1.32-3.003,2.021-4.496l2.09-4.478c2.947-5.93,5.966-11.847,9.508-17.574c1.686-2.888,3.598-5.697,5.442-8.518
	c0.958-1.397,1.965-2.773,2.945-4.157c0.967-1.39,2.005-2.746,3.065-4.089c8.299-10.811,18.394-20.624,29.547-28.549
	c11.165-7.955,23.309-13.771,35.019-18.072c5.861-2.175,11.636-4.008,17.263-5.641c5.624-1.641,11.094-3.123,16.398-4.521
	c10.59-2.822,20.511-5.512,29.746-8.695c4.617-1.586,9.071-3.291,13.36-5.144c4.269-1.88,8.368-3.921,12.336-6.056
	c7.923-4.294,15.146-9.277,21.78-14.607c13.261-10.701,23.94-22.92,32.713-34.412c8.773-11.529,15.697-22.371,21.197-31.459
	c1.416-2.254,2.651-4.447,3.847-6.498c1.181-2.059,2.372-3.955,3.359-5.777c1.017-1.814,1.958-3.492,2.819-5.029
	c0.882-1.533,1.675-2.932,2.347-4.2c2.782-5.054,4.267-7.749,4.267-7.749s-0.179,0.748-0.525,2.199
	c-0.352,1.449-0.848,3.611-1.561,6.414c-1.438,5.602-3.684,13.793-7.201,24.066c-3.502,10.279-8.338,22.631-15.359,36.336
	c-3.54,6.838-7.663,13.984-12.551,21.287c-4.924,7.271-10.674,14.641-17.378,21.861c-6.758,7.158-14.56,14.061-23.302,20.365
	c-4.377,3.144-9.035,6.029-13.832,8.813c-4.818,2.731-9.807,5.281-14.903,7.666c-10.206,4.737-20.836,8.643-31.284,12.36
	c-5.215,1.873-10.389,3.675-15.441,5.563c-5.049,1.896-9.984,3.842-14.739,5.951c-9.503,4.242-18.261,9.111-26.025,15.236
	c-3.896,3.045-7.545,6.408-11.016,10.033c-1.757,1.785-3.395,3.729-5.06,5.646c-1.587,2.013-3.213,3.987-4.707,6.124
	c-0.774,1.039-1.546,2.084-2.265,3.191c-0.73,1.094-1.482,2.164-2.203,3.273c-1.39,2.271-2.842,4.484-4.14,6.863
	c-2.705,4.645-5.175,9.57-7.557,14.568c-1.118,2.564-2.325,5.057-3.383,7.678c-1.076,2.598-2.22,5.217-3.157,7.766l-1.484,3.846
	c-0.245,0.603-0.506,1.396-0.758,2.094l-0.764,2.157l-1.529,4.315l-1.577,4.359c-4.465,12.317-9.77,24.52-16.398,36.19
	c-6.613,11.656-14.381,22.857-23.498,32.871c-9.027,10.077-19.354,18.899-30.18,26.296c-5.436,3.669-10.978,7.011-16.553,10.058
	c-5.596,2.993-11.215,5.686-16.791,8.162c-11.169,4.899-22.162,8.885-32.704,12.46c-10.557,3.585-20.604,6.992-30.148,10.396
	c-19.038,6.873-35.796,14.638-49.599,24.526c-1.77,1.18-3.396,2.494-5.072,3.73c-1.65,1.266-3.212,2.6-4.803,3.881
	c-1.513,1.359-3.054,2.669-4.514,4.032c-1.427,1.394-2.922,2.703-4.285,4.108c-5.557,5.529-10.367,11.321-14.664,17.021
	c-4.258,5.729-7.916,11.406-11.171,16.79c-1.604,2.703-3.078,5.35-4.483,7.889c-1.314,2.582-2.695,5.003-3.857,7.374
	c-1.152,2.375-2.281,4.618-3.285,6.758c-0.989,2.153-1.917,4.172-2.78,6.05c-0.881,1.88-1.563,3.654-2.28,5.265
	c-0.693,1.616-1.348,3.078-1.896,4.411C6.021,534.648,4.861,537.5,4.861,537.5z"/>
<linearGradient id="SVGID_5_" gradientUnits="userSpaceOnUse" x1="-82.645" y1="-55.353" x2="45.6047" y2="72.8967">
	<stop  offset="0" style="stop-color:#A4B1DA;stop-opacity:0"/>
	<stop  offset="0.5" style="stop-color:#A4B1DA;stop-opacity:0.4"/>
	<stop  offset="1" style="stop-color:#A4B1DA;stop-opacity:0"/>
</linearGradient>
<path fill="url(#SVGID_5_)" d="M0,117.372c17.241-17.335,32.294-40.701,43.687-74.017C49.51,26.326,55.908,12.061,62.789,0H0
	V117.372z"/>
</svg>
